NotoSansMalayalam-Bold.ufo
<glyph name="quotedbl.mlym" format="2">
  <advance width="536"/>
  <unicode hex="0022"/>
  <outline>
    <contour>
      <point x="85" y="542" type="line"/>
      <point x="219" y="542" type="line"/>
      <point x="239" y="800" type="line"/>
      <point x="65" y="800" type="line"/>
    </contour>
    <contour>
      <point x="317" y="542" type="line"/>
      <point x="451" y="542" type="line"/>
      <point x="471" y="800" type="line"/>
      <point x="297" y="800" type="line"/>
    </contour>
  </outline>
</glyph>
<glyph name="numbersign.mlym" format="2">
  <advance width="695"/>
  <unicode hex="0023"/>
  <outline>
    <contour>
      <point x="107" y="0" type="line"/>
      <point x="237" y="0" type="line"/>
      <point x="272" y="193" type="line"/>
      <point x="360" y="193" type="line"/>
      <point x="323" y="0" type="line"/>
      <point x="454" y="0" type="line"/>
      <point x="490" y="193" type="line"/>
      <point x="632" y="193" type="line"/>
      <point x="632" y="313" type="line"/>
      <point x="512" y="313" type="line"/>
      <point x="528" y="399" type="line"/>
      <point x="663" y="399" type="line"/>
      <point x="663" y="522" type="line"/>
      <point x="550" y="522" type="line"/>
      <point x="587" y="714" type="line"/>
      <point x="456" y="714" type="line"/>
      <point x="421" y="522" type="line"/>
      <point x="334" y="522" type="line"/>
      <point x="371" y="714" type="line"/>
      <point x="240" y="714" type="line"/>
      <point x="205" y="522" type="line"/>
      <point x="65" y="522" type="line"/>
      <point x="65" y="399" type="line"/>
      <point x="182" y="399" type="line"/>
      <point x="166" y="313" type="line"/>
      <point x="32" y="313" type="line"/>
      <point x="32" y="193" type="line"/>
      <point x="143" y="193" type="line"/>
    </contour>
    <contour>
      <point x="296" y="313" type="line"/>
      <point x="311" y="399" type="line"/>
      <point x="398" y="399" type="line"/>
      <point x="382" y="313" type="line"/>
    </contour>
  </outline>
</glyph>
<glyph name="percent.mlym" format="2">
  <advance width="968"/>
  <unicode hex="0025"/>
  <outline>
    <contour>
      <point x="213" y="0" type="line"/>
      <point x="358" y="0" type="line"/>
      <point x="754" y="714" type="line"/>
      <point x="609" y="714" type="line"/>
    </contour>
    <contour>
      <point x="211" y="276" type="curve" smooth="yes"/>
      <point x="332" y="276"/>
      <point x="397" y="354"/>
      <point x="397" y="500" type="curve" smooth="yes"/>
      <point x="397" y="648"/>
      <point x="327" y="724"/>
      <point x="213" y="724" type="curve" smooth="yes"/>
      <point x="94" y="724"/>
      <point x="29" y="647"/>
      <point x="29" y="501" type="curve" smooth="yes"/>
      <point x="29" y="353"/>
      <point x="102" y="276"/>
    </contour>
    <contour>
      <point x="213" y="394" type="curve" smooth="yes"/>
      <point x="185" y="394"/>
      <point x="176" y="432"/>
      <point x="176" y="500" type="curve" smooth="yes"/>
      <point x="176" y="571"/>
      <point x="185" y="606"/>
      <point x="213" y="606" type="curve" smooth="yes"/>
      <point x="241" y="606"/>
      <point x="250" y="571"/>
      <point x="250" y="500" type="curve" smooth="yes"/>
      <point x="250" y="429"/>
      <point x="241" y="394"/>
    </contour>
    <contour>
      <point x="753" y="-10" type="curve" smooth="yes"/>
      <point x="874" y="-10"/>
      <point x="939" y="68"/>
      <point x="939" y="214" type="curve" smooth="yes"/>
      <point x="939" y="362"/>
      <point x="869" y="438"/>
      <point x="755" y="438" type="curve" smooth="yes"/>
      <point x="636" y="438"/>
      <point x="571" y="361"/>
      <point x="571" y="215" type="curve" smooth="yes"/>
      <point x="571" y="67"/>
      <point x="644" y="-10"/>
    </contour>
    <contour>
      <point x="755" y="108" type="curve" smooth="yes"/>
      <point x="727" y="108"/>
      <point x="718" y="146"/>
      <point x="718" y="214" type="curve" smooth="yes"/>
      <point x="718" y="285"/>
      <point x="727" y="320"/>
      <point x="755" y="320" type="curve" smooth="yes"/>
      <point x="783" y="320"/>
      <point x="792" y="285"/>
      <point x="792" y="214" type="curve" smooth="yes"/>
      <point x="792" y="143"/>
      <point x="783" y="108"/>
    </contour>
  </outline>
</glyph>
<glyph name="quotesingle.mlym" format="2">
  <advance width="304"/>
  <unicode hex="0027"/>
  <outline>
    <contour>
      <point x="85" y="542" type="line"/>
      <point x="219" y="542" type="line"/>
      <point x="239" y="800" type="line"/>
      <point x="65" y="800" type="line"/>
    </contour>
  </outline>
</glyph>
<glyph name="parenleft.mlym" format="2">
  <advance width="374"/>
  <unicode hex="0028"/>
  <outline>
    <contour>
      <point x="41" y="279" type="curve" smooth="yes"/>
      <point x="41" y="82"/>
      <point x="91" y="-97"/>
      <point x="188" y="-244" type="curve"/>
      <point x="347" y="-244" type="line"/>
      <point x="257" y="-80"/>
      <point x="209" y="86"/>
      <point x="209" y="279" type="curve" smooth="yes"/>
      <point x="209" y="470"/>
      <point x="257" y="636"/>
      <point x="347" y="800" type="curve"/>
      <point x="188" y="800" type="line"/>
      <point x="91" y="653"/>
      <point x="41" y="474"/>
    </contour>
  </outline>
</glyph>
<glyph name="parenright.mlym" format="2">
  <advance width="373"/>
  <unicode hex="0029"/>
  <outline>
    <contour>
      <point x="333" y="277" type="curve" smooth="yes"/>
      <point x="333" y="473"/>
      <point x="283" y="652"/>
      <point x="186" y="799" type="curve"/>
      <point x="27" y="799" type="line"/>
      <point x="117" y="636"/>
      <point x="165" y="469"/>
      <point x="165" y="277" type="curve" smooth="yes"/>
      <point x="165" y="86"/>
      <point x="117" y="-81"/>
      <point x="27" y="-244" type="curve"/>
      <point x="186" y="-244" type="line"/>
      <point x="283" y="-97"/>
      <point x="333" y="82"/>
    </contour>
  </outline>
</glyph>
<glyph name="asterisk.mlym" format="2">
  <advance width="566"/>
  <unicode hex="002A"/>
  <outline>
    <contour>
      <point x="357" y="800" type="line"/>
      <point x="209" y="800" type="line"/>
      <point x="228" y="628" type="line"/>
      <point x="58" y="677" type="line"/>
      <point x="36" y="535" type="line"/>
      <point x="189" y="523" type="line"/>
      <point x="88" y="387" type="line"/>
      <point x="221" y="321" type="line"/>
      <point x="281" y="458" type="line"/>
      <point x="351" y="320" type="line"/>
      <point x="478" y="387" type="line"/>
      <point x="377" y="523" type="line"/>
      <point x="530" y="533" type="line"/>
      <point x="512" y="677" type="line"/>
      <point x="338" y="628" type="line"/>
    </contour>
  </outline>
</glyph>
<glyph name="hyphen.mlym" format="2">
  <advance width="348"/>
  <unicode hex="002D"/>
  <outline>
    <contour>
      <point x="36" y="194" type="line"/>
      <point x="312" y="194" type="line"/>
      <point x="312" y="343" type="line"/>
      <point x="36" y="343" type="line"/>
    </contour>
  </outline>
</glyph>
<glyph name="one.mlym" format="2">
  <advance width="572"/>
  <unicode hex="0031"/>
  <outline>
    <contour>
      <point x="454" y="0" type="line"/>
      <point x="454" y="714" type="line"/>
      <point x="278" y="714" type="line"/>
      <point x="37" y="517" type="line"/>
      <point x="135" y="392" type="line"/>
      <point x="207" y="453" type="line" smooth="yes"/>
      <point x="230" y="473"/>
      <point x="245" y="490"/>
      <point x="264" y="512" type="curve"/>
      <point x="261" y="465"/>
      <point x="261" y="407"/>
      <point x="261" y="355" type="curve" smooth="yes"/>
      <point x="261" y="0" type="line"/>
    </contour>
  </outline>
</glyph>
<glyph name="two.mlym" format="2">
  <advance width="572"/>
  <unicode hex="0032"/>
  <outline>
    <contour>
      <point x="27" y="0" type="line"/>
      <point x="535" y="0" type="line"/>
      <point x="535" y="153" type="line"/>
      <point x="273" y="153" type="line"/>
      <point x="273" y="158" type="line"/>
      <point x="333" y="216" type="line" smooth="yes"/>
      <point x="460" y="339"/>
      <point x="523" y="405"/>
      <point x="523" y="529" type="curve" smooth="yes"/>
      <point x="523" y="636"/>
      <point x="438" y="724"/>
      <point x="289" y="724" type="curve" smooth="yes"/>
      <point x="165" y="724"/>
      <point x="90" y="675"/>
      <point x="18" y="613" type="curve"/>
      <point x="119" y="494" type="line"/>
      <point x="168" y="539"/>
      <point x="215" y="569"/>
      <point x="262" y="569" type="curve" smooth="yes"/>
      <point x="306" y="569"/>
      <point x="333" y="547"/>
      <point x="333" y="504" type="curve" smooth="yes"/>
      <point x="333" y="449"/>
      <point x="301" y="412"/>
      <point x="214" y="322" type="curve" smooth="yes"/>
      <point x="27" y="127" type="line"/>
    </contour>
  </outline>
</glyph>
<glyph name="three.mlym" format="2">
  <advance width="572"/>
  <unicode hex="0033"/>
  <outline>
    <contour>
      <point x="238" y="-11" type="curve" smooth="yes"/>
      <point x="438" y="-11"/>
      <point x="529" y="87"/>
      <point x="529" y="206" type="curve" smooth="yes"/>
      <point x="529" y="305"/>
      <point x="468" y="356"/>
      <point x="368" y="373" type="curve"/>
      <point x="368" y="376" type="line"/>
      <point x="449" y="399"/>
      <point x="514" y="451"/>
      <point x="514" y="543" type="curve" smooth="yes"/>
      <point x="514" y="656"/>
      <point x="420" y="724"/>
      <point x="272" y="724" type="curve" smooth="yes"/>
      <point x="170" y="724"/>
      <point x="97" y="694"/>
      <point x="29" y="652" type="curve"/>
      <point x="104" y="532" type="line"/>
      <point x="146" y="558"/>
      <point x="193" y="578"/>
      <point x="246" y="578" type="curve" smooth="yes"/>
      <point x="297" y="578"/>
      <point x="329" y="557"/>
      <point x="329" y="515" type="curve" smooth="yes"/>
      <point x="329" y="467"/>
      <point x="295" y="434"/>
      <point x="189" y="434" type="curve" smooth="yes"/>
      <point x="144" y="434" type="line"/>
      <point x="144" y="297" type="line"/>
      <point x="190" y="297" type="line" smooth="yes"/>
      <point x="305" y="297"/>
      <point x="337" y="266"/>
      <point x="337" y="215" type="curve" smooth="yes"/>
      <point x="337" y="164"/>
      <point x="300" y="135"/>
      <point x="218" y="135" type="curve" smooth="yes"/>
      <point x="154" y="135"/>
      <point x="89" y="149"/>
      <point x="33" y="178" type="curve"/>
      <point x="33" y="26" type="line"/>
      <point x="92" y="3"/>
      <point x="153" y="-11"/>
    </contour>
  </outline>
</glyph>
<glyph name="six.mlym" format="2">
  <advance width="572"/>
  <unicode hex="0036"/>
  <outline>
    <contour>
      <point x="297" y="-10" type="curve" smooth="yes"/>
      <point x="449" y="-10"/>
      <point x="545" y="84"/>
      <point x="545" y="244" type="curve" smooth="yes"/>
      <point x="545" y="392"/>
      <point x="474" y="476"/>
      <point x="350" y="476" type="curve" smooth="yes"/>
      <point x="278" y="476"/>
      <point x="235" y="440"/>
      <point x="210" y="393" type="curve"/>
      <point x="204" y="393" type="line"/>
      <point x="207" y="507"/>
      <point x="259" y="578"/>
      <point x="395" y="578" type="curve" smooth="yes"/>
      <point x="432" y="578"/>
      <point x="465" y="575"/>
      <point x="498" y="569" type="curve"/>
      <point x="498" y="716" type="line"/>
      <point x="463" y="722"/>
      <point x="432" y="724"/>
      <point x="395" y="724" type="curve" smooth="yes"/>
      <point x="87" y="724"/>
      <point x="29" y="507"/>
      <point x="29" y="311" type="curve" smooth="yes"/>
      <point x="29" y="88"/>
      <point x="143" y="-10"/>
    </contour>
    <contour>
      <point x="291" y="136" type="curve" smooth="yes"/>
      <point x="245" y="136"/>
      <point x="218" y="187"/>
      <point x="218" y="251" type="curve" smooth="yes"/>
      <point x="218" y="298"/>
      <point x="247" y="334"/>
      <point x="293" y="334" type="curve" smooth="yes"/>
      <point x="340" y="334"/>
      <point x="361" y="301"/>
      <point x="361" y="238" type="curve" smooth="yes"/>
      <point x="361" y="168"/>
      <point x="335" y="136"/>
    </contour>
  </outline>
</glyph>
<glyph name="seven.mlym" format="2">
  <advance width="572"/>
  <unicode hex="0037"/>
  <outline>
    <contour>
      <point x="89" y="0" type="line"/>
      <point x="291" y="0" type="line"/>
      <point x="541" y="602" type="line"/>
      <point x="541" y="714" type="line"/>
      <point x="27" y="714" type="line"/>
      <point x="27" y="561" type="line"/>
      <point x="337" y="561" type="line"/>
    </contour>
  </outline>
</glyph>
<glyph name="eight.mlym" format="2">
  <advance width="572"/>
  <unicode hex="0038"/>
  <outline>
    <contour>
      <point x="287" y="-12" type="curve" smooth="yes"/>
      <point x="465" y="-12"/>
      <point x="544" y="74"/>
      <point x="544" y="191" type="curve" smooth="yes"/>
      <point x="544" y="284"/>
      <point x="472" y="333"/>
      <point x="400" y="375" type="curve"/>
      <point x="467" y="411"/>
      <point x="525" y="458"/>
      <point x="525" y="550" type="curve" smooth="yes"/>
      <point x="525" y="662"/>
      <point x="427" y="724"/>
      <point x="289" y="724" type="curve" smooth="yes"/>
      <point x="146" y="724"/>
      <point x="47" y="663"/>
      <point x="47" y="550" type="curve" smooth="yes"/>
      <point x="47" y="466"/>
      <point x="99" y="413"/>
      <point x="159" y="372" type="curve"/>
      <point x="76" y="330"/>
      <point x="28" y="281"/>
      <point x="28" y="187" type="curve" smooth="yes"/>
      <point x="28" y="71"/>
      <point x="104" y="-12"/>
    </contour>
    <contour>
      <point x="284" y="125" type="curve" smooth="yes"/>
      <point x="234" y="125"/>
      <point x="212" y="154"/>
      <point x="212" y="194" type="curve" smooth="yes"/>
      <point x="212" y="235"/>
      <point x="237" y="265"/>
      <point x="283" y="293" type="curve"/>
      <point x="300" y="282" type="line" smooth="yes"/>
      <point x="342" y="253"/>
      <point x="360" y="227"/>
      <point x="360" y="189" type="curve" smooth="yes"/>
      <point x="360" y="156"/>
      <point x="339" y="125"/>
    </contour>
    <contour>
      <point x="288" y="453" type="curve"/>
      <point x="251" y="476"/>
      <point x="231" y="498"/>
      <point x="231" y="532" type="curve" smooth="yes"/>
      <point x="231" y="565"/>
      <point x="250" y="587"/>
      <point x="286" y="587" type="curve" smooth="yes"/>
      <point x="319" y="587"/>
      <point x="342" y="566"/>
      <point x="342" y="533" type="curve" smooth="yes"/>
      <point x="342" y="496"/>
      <point x="317" y="473"/>
    </contour>
  </outline>
</glyph>
<glyph name="colon.mlym" format="2">
  <advance width="310"/>
  <unicode hex="003A"/>
  <outline>
    <contour>
      <point x="157" y="-12" type="curve" smooth="yes"/>
      <point x="211" y="-12"/>
      <point x="257" y="15"/>
      <point x="257" y="81" type="curve" smooth="yes"/>
      <point x="257" y="150"/>
      <point x="211" y="175"/>
      <point x="157" y="175" type="curve" smooth="yes"/>
      <point x="100" y="175"/>
      <point x="53" y="150"/>
      <point x="53" y="81" type="curve" smooth="yes"/>
      <point x="53" y="15"/>
      <point x="100" y="-12"/>
    </contour>
    <contour>
      <point x="157" y="376" type="curve" smooth="yes"/>
      <point x="211" y="376"/>
      <point x="257" y="403"/>
      <point x="257" y="470" type="curve" smooth="yes"/>
      <point x="257" y="538"/>
      <point x="211" y="563"/>
      <point x="157" y="563" type="curve" smooth="yes"/>
      <point x="100" y="563"/>
      <point x="53" y="538"/>
      <point x="53" y="470" type="curve" smooth="yes"/>
      <point x="53" y="403"/>
      <point x="100" y="376"/>
    </contour>
  </outline>
</glyph>
<glyph name="less.mlym" format="2">
  <advance width="572"/>
  <unicode hex="003C"/>
  <outline>
    <contour>
      <point x="532" y="87" type="line"/>
      <point x="532" y="231" type="line"/>
      <point x="229" y="354" type="line"/>
      <point x="532" y="492" type="line"/>
      <point x="532" y="637" type="line"/>
      <point x="38" y="390" type="line"/>
      <point x="38" y="306" type="line"/>
    </contour>
  </outline>
</glyph>
<glyph name="greater.mlym" format="2">
  <advance width="572"/>
  <unicode hex="003E"/>
  <outline>
    <contour>
      <point x="40" y="87" type="line"/>
      <point x="534" y="306" type="line"/>
      <point x="534" y="390" type="line"/>
      <point x="40" y="637" type="line"/>
      <point x="40" y="492" type="line"/>
      <point x="343" y="354" type="line"/>
      <point x="40" y="231" type="line"/>
    </contour>
  </outline>
</glyph>
<glyph name="bracketleft.mlym" format="2">
  <advance width="369"/>
  <unicode hex="005B"/>
  <outline>
    <contour>
      <point x="72" y="-244" type="line"/>
      <point x="333" y="-244" type="line"/>
      <point x="333" y="-120" type="line"/>
      <point x="227" y="-120" type="line"/>
      <point x="227" y="676" type="line"/>
      <point x="333" y="676" type="line"/>
      <point x="333" y="800" type="line"/>
      <point x="72" y="800" type="line"/>
    </contour>
  </outline>
</glyph>
<glyph name="backslash.mlym" format="2">
  <advance width="457"/>
  <unicode hex="005C"/>
  <outline>
    <contour>
      <point x="283" y="-244" type="line"/>
      <point x="440" y="-244" type="line"/>
      <point x="174" y="800" type="line"/>
      <point x="17" y="800" type="line"/>
    </contour>
  </outline>
</glyph>
<glyph name="asciicircum.mlym" format="2">
  <advance width="572"/>
  <unicode hex="005E"/>
  <outline>
    <contour>
      <point x="13" y="242" type="line"/>
      <point x="153" y="242" type="line"/>
      <point x="274" y="524" type="line"/>
      <point x="415" y="242" type="line"/>
      <point x="559" y="242" type="line"/>
      <point x="311" y="714" type="line"/>
      <point x="228" y="714" type="line"/>
    </contour>
  </outline>
</glyph>
<glyph name="bar.mlym" format="2">
  <advance width="551"/>
  <unicode hex="007C"/>
  <outline>
    <contour>
      <point x="210" y="-244" type="line"/>
      <point x="341" y="-244" type="line"/>
      <point x="341" y="800" type="line"/>
      <point x="210" y="800" type="line"/>
    </contour>
  </outline>
</glyph>
<glyph name="braceright.mlym" format="2">
  <advance width="431"/>
  <unicode hex="007D"/>
  <outline>
    <contour>
      <point x="36" y="800" type="curve"/>
      <point x="36" y="664" type="line"/>
      <point x="107" y="664"/>
      <point x="129" y="650"/>
      <point x="129" y="604" type="curve" smooth="yes"/>
      <point x="129" y="405" type="line" smooth="yes"/>
      <point x="129" y="329"/>
      <point x="170" y="293"/>
      <point x="246" y="281" type="curve"/>
      <point x="246" y="275" type="line"/>
      <point x="170" y="263"/>
      <point x="129" y="227"/>
      <point x="129" y="151" type="curve" smooth="yes"/>
      <point x="129" y="-48" type="line" smooth="yes"/>
      <point x="129" y="-94"/>
      <point x="107" y="-108"/>
      <point x="36" y="-108" type="curve"/>
      <point x="36" y="-244" type="line"/>
      <point x="241" y="-244"/>
      <point x="287" y="-193"/>
      <point x="287" y="-76" type="curve" smooth="yes"/>
      <point x="287" y="121" type="line" smooth="yes"/>
      <point x="287" y="181"/>
      <point x="319" y="200"/>
      <point x="407" y="204" type="curve"/>
      <point x="407" y="352" type="line"/>
      <point x="319" y="356"/>
      <point x="287" y="375"/>
      <point x="287" y="435" type="curve" smooth="yes"/>
      <point x="287" y="632" type="line" smooth="yes"/>
      <point x="287" y="749"/>
      <point x="241" y="800"/>
    </contour>
  </outline>
</glyph>
<glyph name="uni0307" format="2">
  <unicode hex="0307"/>
  <outline>
    <contour>
      <point x="-379" y="700" type="curve" smooth="yes"/>
      <point x="-379" y="634"/>
      <point x="-334" y="616"/>
      <point x="-278" y="616" type="curve" smooth="yes"/>
      <point x="-223" y="616"/>
      <point x="-176" y="634"/>
      <point x="-176" y="700" type="curve" smooth="yes"/>
      <point x="-176" y="768"/>
      <point x="-223" y="785"/>
      <point x="-278" y="785" type="curve" smooth="yes"/>
      <point x="-334" y="785"/>
      <point x="-379" y="768"/>
    </contour>
  </outline>
</glyph>
<glyph name="uni0323" format="2">
  <unicode hex="0323"/>
  <outline>
    <contour>
      <point x="-380" y="-137" type="curve" smooth="yes"/>
      <point x="-380" y="-203"/>
      <point x="-335" y="-221"/>
      <point x="-279" y="-221" type="curve" smooth="yes"/>
      <point x="-224" y="-221"/>
      <point x="-177" y="-203"/>
      <point x="-177" y="-137" type="curve" smooth="yes"/>
      <point x="-177" y="-69"/>
      <point x="-224" y="-52"/>
      <point x="-279" y="-52" type="curve" smooth="yes"/>
      <point x="-335" y="-52"/>
      <point x="-380" y="-69"/>
    </contour>
  </outline>
</glyph>
<glyph name="uni0951" format="2">
  <unicode hex="0951"/>
  <outline>
    <contour>
      <point x="-337" y="864" type="line"/>
      <point x="-337" y="648" type="line"/>
      <point x="-219" y="648" type="line"/>
      <point x="-219" y="864" type="line"/>
    </contour>
  </outline>
</glyph>
<glyph name="uni0952" format="2">
  <unicode hex="0952"/>
  <outline>
    <contour>
      <point x="-26" y="-184" type="line"/>
      <point x="-26" y="-79" type="line"/>
      <point x="-532" y="-79" type="line"/>
      <point x="-532" y="-184" type="line"/>
    </contour>
  </outline>
</glyph>
<glyph name="danda.mlym" format="2">
  <advance width="396"/>
  <unicode hex="0964"/>
  <outline>
    <contour>
      <point x="138" y="-49" type="line"/>
      <point x="328" y="-49" type="line"/>
      <point x="328" y="610" type="line"/>
      <point x="138" y="610" type="line"/>
    </contour>
  </outline>
</glyph>
<glyph name="dbldanda.mlym" format="2">
  <advance width="706"/>
  <unicode hex="0965"/>
  <outline>
    <contour>
      <point x="448" y="-49" type="line"/>
      <point x="638" y="-49" type="line"/>
      <point x="638" y="610" type="line"/>
      <point x="448" y="610" type="line"/>
    </contour>
    <contour>
      <point x="136" y="-49" type="line"/>
      <point x="326" y="-49" type="line"/>
      <point x="326" y="610" type="line"/>
      <point x="136" y="610" type="line"/>
    </contour>
  </outline>
</glyph>
<glyph name="candrabindumlym" format="2">
  <unicode hex="0D01"/>
  <outline>
    <contour>
      <point x="-278" y="631" type="curve" smooth="yes"/>
      <point x="-126" y="631"/>
      <point x="-67" y="699"/>
      <point x="-67" y="800" type="curve" smooth="yes"/>
      <point x="-67" y="825"/>
      <point x="-71" y="847"/>
      <point x="-76" y="863" type="curve"/>
      <point x="-180" y="843" type="line"/>
      <point x="-176" y="829"/>
      <point x="-175" y="819"/>
      <point x="-175" y="809" type="curve" smooth="yes"/>
      <point x="-175" y="744"/>
      <point x="-224" y="727"/>
      <point x="-278" y="727" type="curve" smooth="yes"/>
      <point x="-341" y="727"/>
      <point x="-382" y="746"/>
      <point x="-382" y="807" type="curve" smooth="yes"/>
      <point x="-382" y="818"/>
      <point x="-381" y="829"/>
      <point x="-377" y="843" type="curve"/>
      <point x="-481" y="864" type="line"/>
      <point x="-486" y="848"/>
      <point x="-490" y="827"/>
      <point x="-490" y="799" type="curve" smooth="yes"/>
      <point x="-490" y="701"/>
      <point x="-430" y="631"/>
    </contour>
    <contour>
      <point x="-279" y="748" type="curve" smooth="yes"/>
      <point x="-227" y="748"/>
      <point x="-210" y="771"/>
      <point x="-210" y="804" type="curve" smooth="yes"/>
      <point x="-210" y="838"/>
      <point x="-226" y="863"/>
      <point x="-279" y="863" type="curve" smooth="yes"/>
      <point x="-331" y="863"/>
      <point x="-347" y="838"/>
      <point x="-347" y="807" type="curve" smooth="yes"/>
      <point x="-347" y="771"/>
      <point x="-329" y="748"/>
    </contour>
  </outline>
</glyph>
<glyph name="anusvaramlym" format="2">
  <advance width="533"/>
  <unicode hex="0D02"/>
  <outline>
    <contour>
      <point x="267" y="-12" type="curve" smooth="yes"/>
      <point x="421" y="-12"/>
      <point x="506" y="65"/>
      <point x="506" y="185" type="curve" smooth="yes"/>
      <point x="506" y="305"/>
      <point x="418" y="382"/>
      <point x="265" y="382" type="curve" smooth="yes"/>
      <point x="117" y="382"/>
      <point x="27" y="301"/>
      <point x="27" y="185" type="curve" smooth="yes"/>
      <point x="27" y="69"/>
      <point x="110" y="-12"/>
    </contour>
    <contour>
      <point x="265" y="258" type="curve" smooth="yes"/>
      <point x="306" y="258"/>
      <point x="336" y="233"/>
      <point x="336" y="185" type="curve" smooth="yes"/>
      <point x="336" y="135"/>
      <point x="305" y="112"/>
      <point x="267" y="112" type="curve" smooth="yes"/>
      <point x="226" y="112"/>
      <point x="197" y="139"/>
      <point x="197" y="184" type="curve" smooth="yes"/>
      <point x="197" y="233"/>
      <point x="227" y="258"/>
    </contour>
  </outline>
</glyph>
<glyph name="visargamlym" format="2">
  <advance width="385"/>
  <unicode hex="0D03"/>
  <outline>
    <contour>
      <point x="28" y="439" type="curve" smooth="yes"/>
      <point x="28" y="359"/>
      <point x="87" y="297"/>
      <point x="192" y="297" type="curve" smooth="yes"/>
      <point x="297" y="297"/>
      <point x="357" y="359"/>
      <point x="357" y="439" type="curve" smooth="yes"/>
      <point x="357" y="521"/>
      <point x="295" y="581"/>
      <point x="192" y="581" type="curve" smooth="yes"/>
      <point x="89" y="581"/>
      <point x="28" y="520"/>
    </contour>
    <contour>
      <point x="146" y="439" type="curve" smooth="yes"/>
      <point x="146" y="466"/>
      <point x="162" y="484"/>
      <point x="192" y="484" type="curve" smooth="yes"/>
      <point x="220" y="484"/>
      <point x="239" y="467"/>
      <point x="239" y="440" type="curve" smooth="yes"/>
      <point x="239" y="414"/>
      <point x="223" y="394"/>
      <point x="192" y="394" type="curve" smooth="yes"/>
      <point x="161" y="394"/>
      <point x="146" y="413"/>
    </contour>
    <contour>
      <point x="28" y="130" type="curve" smooth="yes"/>
      <point x="28" y="49"/>
      <point x="87" y="-12"/>
      <point x="192" y="-12" type="curve" smooth="yes"/>
      <point x="297" y="-12"/>
      <point x="357" y="50"/>
      <point x="357" y="130" type="curve" smooth="yes"/>
      <point x="357" y="210"/>
      <point x="295" y="272"/>
      <point x="192" y="272" type="curve" smooth="yes"/>
      <point x="89" y="272"/>
      <point x="28" y="210"/>
    </contour>
    <contour>
      <point x="146" y="131" type="curve" smooth="yes"/>
      <point x="146" y="156"/>
      <point x="162" y="175"/>
      <point x="192" y="175" type="curve" smooth="yes"/>
      <point x="220" y="175"/>
      <point x="239" y="156"/>
      <point x="239" y="131" type="curve" smooth="yes"/>
      <point x="239" y="103"/>
      <point x="223" y="85"/>
      <point x="192" y="85" type="curve" smooth="yes"/>
      <point x="161" y="85"/>
      <point x="146" y="103"/>
    </contour>
  </outline>
</glyph>
<glyph name="amlym" format="2">
  <advance width="1733"/>
  <unicode hex="0D05"/>
  <outline>
    <contour>
      <point x="428" y="581" type="curve" smooth="yes"/>
      <point x="122" y="581"/>
      <point x="35" y="417"/>
      <point x="35" y="284" type="curve" smooth="yes"/>
      <point x="35" y="154"/>
      <point x="94" y="65"/>
      <point x="181" y="-12" type="curve"/>
      <point x="317" y="68" type="line"/>
      <point x="256" y="141"/>
      <point x="224" y="201"/>
      <point x="224" y="281" type="curve" smooth="yes"/>
      <point x="224" y="384"/>
      <point x="279" y="458"/>
      <point x="433" y="458" type="curve" smooth="yes"/>
      <point x="481" y="458"/>
      <point x="516" y="452"/>
      <point x="560" y="441" type="curve"/>
      <point x="637" y="434"/>
      <point x="671" y="412"/>
      <point x="671" y="372" type="curve" smooth="yes"/>
      <point x="671" y="341"/>
      <point x="651" y="322"/>
      <point x="600" y="322" type="curve" smooth="yes"/>
      <point x="578" y="322" type="line"/>
      <point x="578" y="196" type="line"/>
      <point x="615" y="196" type="line" smooth="yes"/>
      <point x="662" y="196"/>
      <point x="682" y="179"/>
      <point x="682" y="154" type="curve" smooth="yes"/>
      <point x="682" y="124"/>
      <point x="658" y="113"/>
      <point x="615" y="113" type="curve" smooth="yes"/>
      <point x="552" y="113"/>
      <point x="507" y="151"/>
      <point x="507" y="244" type="curve" smooth="yes"/>
      <point x="507" y="359"/>
      <point x="585" y="431"/>
      <point x="679" y="449" type="curve"/>
      <point x="707" y="456"/>
      <point x="736" y="461"/>
      <point x="766" y="461" type="curve" smooth="yes"/>
      <point x="817" y="461"/>
      <point x="854" y="449"/>
      <point x="880" y="428" type="curve" smooth="yes"/>
      <point x="928" y="389"/>
      <point x="938" y="322"/>
      <point x="938" y="234" type="curve" smooth="yes"/>
      <point x="938" y="0" type="line"/>
      <point x="1125" y="0" type="line"/>
      <point x="1125" y="192" type="line"/>
      <point x="1040" y="480" type="line"/>
      <point x="971" y="543"/>
      <point x="902" y="581"/>
      <point x="763" y="581" type="curve" smooth="yes"/>
      <point x="690" y="581"/>
      <point x="617" y="570"/>
      <point x="553" y="544" type="curve" smooth="yes"/>
      <point x="535" y="537"/>
      <point x="519" y="518"/>
      <point x="503" y="509" type="curve" smooth="yes"/>
      <point x="403" y="453"/>
      <point x="334" y="368"/>
      <point x="334" y="241" type="curve" smooth="yes"/>
      <point x="334" y="99"/>
      <point x="415" y="-12"/>
      <point x="620" y="-12" type="curve" smooth="yes"/>
      <point x="806" y="-12"/>
      <point x="861" y="63"/>
      <point x="861" y="139" type="curve" smooth="yes"/>
      <point x="861" y="205"/>
      <point x="824" y="247"/>
      <point x="756" y="271" type="curve"/>
      <point x="757" y="256" type="line"/>
      <point x="825" y="284"/>
      <point x="850" y="322"/>
      <point x="850" y="374" type="curve" smooth="yes"/>
      <point x="850" y="448"/>
      <point x="770" y="495"/>
      <point x="684" y="519" type="curve" smooth="yes"/>
      <point x="664" y="525"/>
      <point x="658" y="548"/>
      <point x="636" y="553" type="curve"/>
      <point x="561" y="576"/>
      <point x="508" y="581"/>
    </contour>
    <contour>
      <point x="1440" y="-12" type="curve" smooth="yes"/>
      <point x="1610" y="-12"/>
      <point x="1702" y="77"/>
      <point x="1702" y="237" type="curve" smooth="yes"/>
      <point x="1702" y="418"/>
      <point x="1568" y="581"/>
      <point x="1306" y="581" type="curve" smooth="yes"/>
      <point x="1143" y="581"/>
      <point x="1055" y="517"/>
      <point x="992" y="450" type="curve"/>
      <point x="1125" y="154" type="line"/>
      <point x="1125" y="238" type="line" smooth="yes"/>
      <point x="1125" y="307"/>
      <point x="1133" y="378"/>
      <point x="1183" y="416" type="curve" smooth="yes"/>
      <point x="1209" y="436"/>
      <point x="1244" y="451"/>
      <point x="1308" y="451" type="curve" smooth="yes"/>
      <point x="1426" y="451"/>
      <point x="1504" y="396"/>
      <point x="1515" y="329" type="curve"/>
      <point x="1518" y="324"/>
      <point x="1512" y="310"/>
      <point x="1514" y="305" type="curve"/>
      <point x="1517" y="285"/>
      <point x="1519" y="262"/>
      <point x="1519" y="242" type="curve" smooth="yes"/>
      <point x="1519" y="153"/>
      <point x="1493" y="116"/>
      <point x="1443" y="116" type="curve" smooth="yes"/>
      <point x="1406" y="116"/>
      <point x="1380" y="143"/>
      <point x="1380" y="205" type="curve" smooth="yes"/>
      <point x="1380" y="265"/>
      <point x="1406" y="295"/>
      <point x="1454" y="295" type="curve" smooth="yes"/>
      <point x="1507" y="295"/>
      <point x="1540" y="251"/>
      <point x="1550" y="203" type="curve"/>
      <point x="1623" y="205" type="line"/>
      <point x="1615" y="305"/>
      <point x="1533" y="410"/>
      <point x="1408" y="410" type="curve" smooth="yes"/>
      <point x="1276" y="410"/>
      <point x="1200" y="331"/>
      <point x="1200" y="205" type="curve" smooth="yes"/>
      <point x="1200" y="89"/>
      <point x="1269" y="-12"/>
    </contour>
  </outline>
</glyph>
<glyph name="aamlym" format="2">
  <advance width="1919"/>
  <unicode hex="0D06"/>
  <outline>
    <contour>
      <point x="428" y="581" type="curve" smooth="yes"/>
      <point x="122" y="581"/>
      <point x="35" y="417"/>
      <point x="35" y="284" type="curve" smooth="yes"/>
      <point x="35" y="154"/>
      <point x="94" y="65"/>
      <point x="181" y="-12" type="curve"/>
      <point x="317" y="68" type="line"/>
      <point x="256" y="141"/>
      <point x="224" y="201"/>
      <point x="224" y="281" type="curve" smooth="yes"/>
      <point x="224" y="384"/>
      <point x="279" y="458"/>
      <point x="433" y="458" type="curve" smooth="yes"/>
      <point x="481" y="458"/>
      <point x="516" y="452"/>
      <point x="560" y="441" type="curve"/>
      <point x="637" y="434"/>
      <point x="671" y="412"/>
      <point x="671" y="372" type="curve" smooth="yes"/>
      <point x="671" y="341"/>
      <point x="651" y="322"/>
      <point x="600" y="322" type="curve" smooth="yes"/>
      <point x="578" y="322" type="line"/>
      <point x="578" y="196" type="line"/>
      <point x="615" y="196" type="line" smooth="yes"/>
      <point x="662" y="196"/>
      <point x="682" y="179"/>
      <point x="682" y="154" type="curve" smooth="yes"/>
      <point x="682" y="124"/>
      <point x="658" y="113"/>
      <point x="615" y="113" type="curve" smooth="yes"/>
      <point x="552" y="113"/>
      <point x="507" y="151"/>
      <point x="507" y="244" type="curve" smooth="yes"/>
      <point x="507" y="359"/>
      <point x="585" y="431"/>
      <point x="679" y="449" type="curve"/>
      <point x="707" y="456"/>
      <point x="736" y="461"/>
      <point x="766" y="461" type="curve" smooth="yes"/>
      <point x="817" y="461"/>
      <point x="854" y="449"/>
      <point x="880" y="428" type="curve" smooth="yes"/>
      <point x="928" y="389"/>
      <point x="938" y="322"/>
      <point x="938" y="234" type="curve" smooth="yes"/>
      <point x="938" y="0" type="line"/>
      <point x="1125" y="0" type="line"/>
      <point x="1125" y="225" type="line"/>
      <point x="1040" y="480" type="line"/>
      <point x="971" y="543"/>
      <point x="902" y="581"/>
      <point x="763" y="581" type="curve" smooth="yes"/>
      <point x="690" y="581"/>
      <point x="617" y="570"/>
      <point x="553" y="544" type="curve" smooth="yes"/>
      <point x="535" y="537"/>
      <point x="519" y="518"/>
      <point x="503" y="509" type="curve" smooth="yes"/>
      <point x="403" y="453"/>
      <point x="334" y="368"/>
      <point x="334" y="241" type="curve" smooth="yes"/>
      <point x="334" y="99"/>
      <point x="415" y="-12"/>
      <point x="620" y="-12" type="curve" smooth="yes"/>
      <point x="806" y="-12"/>
      <point x="861" y="63"/>
      <point x="861" y="139" type="curve" smooth="yes"/>
      <point x="861" y="205"/>
      <point x="824" y="247"/>
      <point x="756" y="271" type="curve"/>
      <point x="757" y="256" type="line"/>
      <point x="825" y="284"/>
      <point x="850" y="322"/>
      <point x="850" y="374" type="curve" smooth="yes"/>
      <point x="850" y="448"/>
      <point x="770" y="495"/>
      <point x="684" y="519" type="curve" smooth="yes"/>
      <point x="664" y="525"/>
      <point x="658" y="548"/>
      <point x="636" y="553" type="curve"/>
      <point x="561" y="576"/>
      <point x="508" y="581"/>
    </contour>
    <contour>
      <point x="1302" y="581" type="curve" smooth="yes"/>
      <point x="1141" y="581"/>
      <point x="1055" y="517"/>
      <point x="992" y="450" type="curve"/>
      <point x="1125" y="212" type="line"/>
      <point x="1125" y="238" type="line" smooth="yes"/>
      <point x="1125" y="312"/>
      <point x="1133" y="377"/>
      <point x="1182" y="416" type="curve" smooth="yes"/>
      <point x="1208" y="436"/>
      <point x="1242" y="451"/>
      <point x="1298" y="451" type="curve" smooth="yes"/>
      <point x="1389" y="451"/>
      <point x="1440" y="420"/>
      <point x="1476" y="372" type="curve"/>
      <point x="1493" y="321" type="line" smooth="yes"/>
      <point x="1501" y="294"/>
      <point x="1505" y="265"/>
      <point x="1505" y="233" type="curve" smooth="yes"/>
      <point x="1505" y="141"/>
      <point x="1477" y="112"/>
      <point x="1430" y="112" type="curve" smooth="yes"/>
      <point x="1391" y="112"/>
      <point x="1369" y="137"/>
      <point x="1369" y="184" type="curve" smooth="yes"/>
      <point x="1369" y="243"/>
      <point x="1406" y="292"/>
      <point x="1507" y="292" type="curve" smooth="yes"/>
      <point x="1533" y="292"/>
      <point x="1556" y="290"/>
      <point x="1578" y="286" type="curve" smooth="yes"/>
      <point x="1614" y="280" type="line"/>
      <point x="1680" y="255"/>
      <point x="1716" y="200"/>
      <point x="1716" y="106" type="curve" smooth="yes"/>
      <point x="1716" y="34"/>
      <point x="1686" y="-70"/>
      <point x="1525" y="-70" type="curve" smooth="yes"/>
      <point x="1479" y="-70"/>
      <point x="1442" y="-66"/>
      <point x="1395" y="-52" type="curve"/>
      <point x="1346" y="-173" type="line"/>
      <point x="1402" y="-192"/>
      <point x="1468" y="-201"/>
      <point x="1531" y="-201" type="curve" smooth="yes"/>
      <point x="1811" y="-201"/>
      <point x="1894" y="-52"/>
      <point x="1894" y="104" type="curve" smooth="yes"/>
      <point x="1894" y="263"/>
      <point x="1790" y="374"/>
      <point x="1614" y="404" type="curve"/>
      <point x="1569" y="407" type="line"/>
      <point x="1545" y="410"/>
      <point x="1521" y="411"/>
      <point x="1496" y="411" type="curve" smooth="yes"/>
      <point x="1303" y="411"/>
      <point x="1189" y="332"/>
      <point x="1189" y="189" type="curve" smooth="yes"/>
      <point x="1189" y="67"/>
      <point x="1280" y="-12"/>
      <point x="1426" y="-12" type="curve" smooth="yes"/>
      <point x="1596" y="-12"/>
      <point x="1677" y="63"/>
      <point x="1677" y="232" type="curve" smooth="yes"/>
      <point x="1677" y="266"/>
      <point x="1673" y="297"/>
      <point x="1666" y="326" type="curve" smooth="yes"/>
      <point x="1624" y="501"/>
      <point x="1482" y="581"/>
    </contour>
  </outline>
</glyph>
<glyph name="imlym" format="2">
  <advance width="1111"/>
  <unicode hex="0D07"/>
  <outline>
    <contour>
      <point x="371" y="581" type="curve" smooth="yes"/>
      <point x="140" y="581"/>
      <point x="32" y="460"/>
      <point x="32" y="334" type="curve" smooth="yes"/>
      <point x="32" y="205"/>
      <point x="120" y="138"/>
      <point x="239" y="138" type="curve" smooth="yes"/>
      <point x="402" y="138"/>
      <point x="452" y="207"/>
      <point x="452" y="292" type="curve" smooth="yes"/>
      <point x="452" y="372"/>
      <point x="393" y="433"/>
      <point x="270" y="433" type="curve" smooth="yes"/>
      <point x="199" y="433"/>
      <point x="120" y="385"/>
      <point x="86" y="354" type="curve"/>
      <point x="142" y="310" type="line"/>
      <point x="177" y="329"/>
      <point x="203" y="340"/>
      <point x="234" y="340" type="curve" smooth="yes"/>
      <point x="266" y="340"/>
      <point x="285" y="326"/>
      <point x="285" y="294" type="curve" smooth="yes"/>
      <point x="285" y="268"/>
      <point x="271" y="248"/>
      <point x="236" y="248" type="curve" smooth="yes"/>
      <point x="204" y="248"/>
      <point x="182" y="271"/>
      <point x="182" y="318" type="curve" smooth="yes"/>
      <point x="182" y="333"/>
      <point x="183" y="349"/>
      <point x="184" y="358" type="curve" smooth="yes"/>
      <point x="186" y="373"/>
      <point x="185" y="386"/>
      <point x="193" y="399" type="curve" smooth="yes"/>
      <point x="222" y="443"/>
      <point x="295" y="457"/>
      <point x="364" y="457" type="curve" smooth="yes"/>
      <point x="419" y="457"/>
      <point x="452" y="444"/>
      <point x="475" y="427" type="curve" smooth="yes"/>
      <point x="508" y="402"/>
      <point x="521" y="358"/>
      <point x="521" y="272" type="curve" smooth="yes"/>
      <point x="521" y="161" type="line"/>
      <point x="705" y="161" type="line"/>
      <point x="705" y="328" type="line" smooth="yes"/>
      <point x="705" y="383"/>
      <point x="714" y="410"/>
      <point x="729" y="428" type="curve" smooth="yes"/>
      <point x="744" y="445"/>
      <point x="764" y="452"/>
      <point x="788" y="452" type="curve" smooth="yes"/>
      <point x="853" y="452"/>
      <point x="886" y="391"/>
      <point x="886" y="303" type="curve" smooth="yes"/>
      <point x="886" y="248"/>
      <point x="873" y="202"/>
      <point x="839" y="172" type="curve" smooth="yes"/>
      <point x="803" y="140"/>
      <point x="755" y="127"/>
      <point x="643" y="127" type="curve" smooth="yes"/>
      <point x="306" y="127" type="line" smooth="yes"/>
      <point x="204" y="127"/>
      <point x="146" y="116"/>
      <point x="98" y="83" type="curve" smooth="yes"/>
      <point x="60" y="57"/>
      <point x="37" y="16"/>
      <point x="37" y="-42" type="curve" smooth="yes"/>
      <point x="37" y="-108"/>
      <point x="68" y="-151"/>
      <point x="115" y="-175" type="curve" smooth="yes"/>
      <point x="164" y="-200"/>
      <point x="218" y="-206"/>
      <point x="308" y="-206" type="curve" smooth="yes"/>
      <point x="1052" y="-206" type="line"/>
      <point x="1052" y="-77" type="line"/>
      <point x="321" y="-77" type="line" smooth="yes"/>
      <point x="270" y="-77"/>
      <point x="252" y="-73"/>
      <point x="239" y="-64" type="curve" smooth="yes"/>
      <point x="230" y="-58"/>
      <point x="225" y="-49"/>
      <point x="225" y="-36" type="curve" smooth="yes"/>
      <point x="225" y="-23"/>
      <point x="231" y="-14"/>
      <point x="244" y="-8" type="curve" smooth="yes"/>
      <point x="257" y="-2"/>
      <point x="271" y="0"/>
      <point x="318" y="0" type="curve" smooth="yes"/>
      <point x="668" y="0" type="line" smooth="yes"/>
      <point x="838" y="0"/>
      <point x="919" y="19"/>
      <point x="982" y="71" type="curve" smooth="yes"/>
      <point x="1041" y="120"/>
      <point x="1076" y="198"/>
      <point x="1076" y="312" type="curve" smooth="yes"/>
      <point x="1076" y="461"/>
      <point x="990" y="581"/>
      <point x="807" y="581" type="curve" smooth="yes"/>
      <point x="712" y="581"/>
      <point x="637" y="551"/>
      <point x="587" y="494" type="curve"/>
      <point x="644" y="488" type="line"/>
      <point x="588" y="538"/>
      <point x="523" y="581"/>
    </contour>
  </outline>
</glyph>
<glyph name="umlym" format="2">
  <advance width="793"/>
  <unicode hex="0D09"/>
  <outline>
    <contour>
      <point x="389" y="581" type="curve" smooth="yes"/>
      <point x="139" y="581"/>
      <point x="32" y="456"/>
      <point x="32" y="333" type="curve" smooth="yes"/>
      <point x="32" y="205"/>
      <point x="120" y="138"/>
      <point x="239" y="138" type="curve" smooth="yes"/>
      <point x="402" y="138"/>
      <point x="452" y="207"/>
      <point x="452" y="292" type="curve" smooth="yes"/>
      <point x="452" y="372"/>
      <point x="393" y="433"/>
      <point x="270" y="433" type="curve" smooth="yes"/>
      <point x="199" y="433"/>
      <point x="120" y="385"/>
      <point x="86" y="354" type="curve"/>
      <point x="142" y="310" type="line"/>
      <point x="177" y="329"/>
      <point x="203" y="340"/>
      <point x="234" y="340" type="curve" smooth="yes"/>
      <point x="266" y="340"/>
      <point x="285" y="326"/>
      <point x="285" y="294" type="curve" smooth="yes"/>
      <point x="285" y="268"/>
      <point x="271" y="248"/>
      <point x="236" y="248" type="curve" smooth="yes"/>
      <point x="204" y="248"/>
      <point x="182" y="271"/>
      <point x="182" y="318" type="curve" smooth="yes"/>
      <point x="182" y="333"/>
      <point x="183" y="349"/>
      <point x="184" y="358" type="curve" smooth="yes"/>
      <point x="186" y="373"/>
      <point x="178" y="385"/>
      <point x="188" y="398" type="curve"/>
      <point x="221" y="441"/>
      <point x="282" y="457"/>
      <point x="380" y="457" type="curve" smooth="yes"/>
      <point x="498" y="457"/>
      <point x="569" y="396"/>
      <point x="569" y="296" type="curve" smooth="yes"/>
      <point x="569" y="245"/>
      <point x="556" y="202"/>
      <point x="523" y="172" type="curve" smooth="yes"/>
      <point x="487" y="140"/>
      <point x="442" y="127"/>
      <point x="316" y="127" type="curve" smooth="yes"/>
      <point x="298" y="127" type="line" smooth="yes"/>
      <point x="204" y="127"/>
      <point x="146" y="116"/>
      <point x="98" y="83" type="curve" smooth="yes"/>
      <point x="60" y="57"/>
      <point x="37" y="16"/>
      <point x="37" y="-42" type="curve" smooth="yes"/>
      <point x="37" y="-108"/>
      <point x="68" y="-151"/>
      <point x="115" y="-175" type="curve" smooth="yes"/>
      <point x="164" y="-200"/>
      <point x="218" y="-206"/>
      <point x="308" y="-206" type="curve" smooth="yes"/>
      <point x="740" y="-206" type="line"/>
      <point x="740" y="-77" type="line"/>
      <point x="321" y="-77" type="line" smooth="yes"/>
      <point x="270" y="-77"/>
      <point x="252" y="-73"/>
      <point x="239" y="-64" type="curve" smooth="yes"/>
      <point x="230" y="-58"/>
      <point x="225" y="-49"/>
      <point x="225" y="-36" type="curve" smooth="yes"/>
      <point x="225" y="-23"/>
      <point x="231" y="-14"/>
      <point x="244" y="-8" type="curve" smooth="yes"/>
      <point x="257" y="-2"/>
      <point x="271" y="0"/>
      <point x="318" y="0" type="curve" smooth="yes"/>
      <point x="340" y="0" type="line" smooth="yes"/>
      <point x="515" y="0"/>
      <point x="603" y="22"/>
      <point x="667" y="74" type="curve" smooth="yes"/>
      <point x="720" y="117"/>
      <point x="759" y="192"/>
      <point x="759" y="294" type="curve" smooth="yes"/>
      <point x="759" y="449"/>
      <point x="651" y="581"/>
    </contour>
  </outline>
</glyph>
<glyph name="rvocalicmlym" format="2">
  <advance width="1061"/>
  <unicode hex="0D0B"/>
  <outline>
    <contour>
      <point x="779" y="581" type="curve" smooth="yes"/>
      <point x="626" y="581"/>
      <point x="550" y="496"/>
      <point x="550" y="395" type="curve" smooth="yes"/>
      <point x="550" y="271"/>
      <point x="630" y="221"/>
      <point x="767" y="221" type="curve" smooth="yes"/>
      <point x="856" y="221"/>
      <point x="928" y="279"/>
      <point x="975" y="332" type="curve"/>
      <point x="931" y="426" type="line"/>
      <point x="888" y="373"/>
      <point x="852" y="334"/>
      <point x="795" y="334" type="curve" smooth="yes"/>
      <point x="760" y="334"/>
      <point x="730" y="349"/>
      <point x="730" y="399" type="curve" smooth="yes"/>
      <point x="730" y="439"/>
      <point x="751" y="461"/>
      <point x="788" y="461" type="curve" smooth="yes"/>
      <point x="830" y="461"/>
      <point x="862" y="420"/>
      <point x="862" y="345" type="curve" smooth="yes"/>
      <point x="862" y="328"/>
      <point x="861" y="313"/>
      <point x="858" y="297" type="curve"/>
      <point x="858" y="274" type="line"/>
      <point x="822" y="182"/>
      <point x="689" y="173"/>
      <point x="539" y="173" type="curve" smooth="yes"/>
      <point x="520" y="173" type="line" smooth="yes"/>
      <point x="369" y="173"/>
      <point x="239" y="182"/>
      <point x="203" y="274" type="curve"/>
      <point x="203" y="299" type="line"/>
      <point x="200" y="313"/>
      <point x="199" y="328"/>
      <point x="199" y="345" type="curve" smooth="yes"/>
      <point x="199" y="420"/>
      <point x="231" y="461"/>
      <point x="274" y="461" type="curve" smooth="yes"/>
      <point x="310" y="461"/>
      <point x="331" y="439"/>
      <point x="331" y="399" type="curve" smooth="yes"/>
      <point x="331" y="349"/>
      <point x="301" y="334"/>
      <point x="266" y="334" type="curve" smooth="yes"/>
      <point x="209" y="334"/>
      <point x="173" y="373"/>
      <point x="130" y="426" type="curve"/>
      <point x="86" y="332" type="line"/>
      <point x="133" y="279"/>
      <point x="205" y="221"/>
      <point x="290" y="221" type="curve" smooth="yes"/>
      <point x="430" y="221"/>
      <point x="511" y="271"/>
      <point x="511" y="395" type="curve" smooth="yes"/>
      <point x="511" y="496"/>
      <point x="435" y="581"/>
      <point x="287" y="581" type="curve" smooth="yes"/>
      <point x="122" y="581"/>
      <point x="30" y="485"/>
      <point x="30" y="339" type="curve" smooth="yes"/>
      <point x="30" y="245"/>
      <point x="67" y="174"/>
      <point x="132" y="127" type="curve" smooth="yes"/>
      <point x="201" y="77"/>
      <point x="298" y="61"/>
      <point x="411" y="61" type="curve" smooth="yes"/>
      <point x="650" y="61" type="line" smooth="yes"/>
      <point x="763" y="61"/>
      <point x="860" y="77"/>
      <point x="929" y="127" type="curve" smooth="yes"/>
      <point x="994" y="174"/>
      <point x="1031" y="245"/>
      <point x="1031" y="339" type="curve" smooth="yes"/>
      <point x="1031" y="485"/>
      <point x="938" y="581"/>
    </contour>
    <contour>
      <point x="541" y="-261" type="curve" smooth="yes"/>
      <point x="819" y="-261"/>
      <point x="958" y="-205"/>
      <point x="958" y="-59" type="curve" smooth="yes"/>
      <point x="958" y="89"/>
      <point x="773" y="129"/>
      <point x="615" y="129" type="curve" smooth="yes"/>
      <point x="446" y="129" type="line" smooth="yes"/>
      <point x="288" y="129"/>
      <point x="103" y="89"/>
      <point x="103" y="-59" type="curve" smooth="yes"/>
      <point x="103" y="-205"/>
      <point x="243" y="-261"/>
    </contour>
    <contour>
      <point x="532" y="-128" type="curve" smooth="yes"/>
      <point x="366" y="-128"/>
      <point x="294" y="-105"/>
      <point x="294" y="-39" type="curve" smooth="yes"/>
      <point x="294" y="29"/>
      <point x="384" y="45"/>
      <point x="516" y="45" type="curve" smooth="yes"/>
      <point x="545" y="45" type="line" smooth="yes"/>
      <point x="677" y="45"/>
      <point x="767" y="29"/>
      <point x="767" y="-39" type="curve" smooth="yes"/>
      <point x="767" y="-105"/>
      <point x="695" y="-128"/>
    </contour>
  </outline>
</glyph>
<glyph name="lvocalicmlym" format="2">
  <advance width="1369"/>
  <unicode hex="0D0C"/>
  <outline>
    <contour>
      <point x="422" y="581" type="curve" smooth="yes"/>
      <point x="202" y="581"/>
      <point x="33" y="460"/>
      <point x="33" y="244" type="curve" smooth="yes"/>
      <point x="33" y="63"/>
      <point x="139" y="-12"/>
      <point x="278" y="-12" type="curve" smooth="yes"/>
      <point x="432" y="-12"/>
      <point x="506" y="61"/>
      <point x="506" y="180" type="curve" smooth="yes"/>
      <point x="506" y="285"/>
      <point x="444" y="359"/>
      <point x="316" y="359" type="curve" smooth="yes"/>
      <point x="230" y="359"/>
      <point x="171" y="321"/>
      <point x="118" y="276" type="curve"/>
      <point x="139" y="156" type="line"/>
      <point x="193" y="215"/>
      <point x="222" y="240"/>
      <point x="267" y="240" type="curve" smooth="yes"/>
      <point x="303" y="240"/>
      <point x="325" y="216"/>
      <point x="325" y="173" type="curve" smooth="yes"/>
      <point x="325" y="127"/>
      <point x="306" y="108"/>
      <point x="273" y="108" type="curve" smooth="yes"/>
      <point x="235" y="108"/>
      <point x="202" y="135"/>
      <point x="202" y="240" type="curve" smooth="yes"/>
      <point x="202" y="244" type="line" smooth="yes"/>
      <point x="202" y="380"/>
      <point x="301" y="453"/>
      <point x="418" y="453" type="curve" smooth="yes"/>
      <point x="469" y="453"/>
      <point x="505" y="443"/>
      <point x="529" y="424" type="curve" smooth="yes"/>
      <point x="562" y="397"/>
      <point x="574" y="359"/>
      <point x="574" y="273" type="curve" smooth="yes"/>
      <point x="574" y="0" type="line"/>
      <point x="761" y="0" type="line"/>
      <point x="761" y="317" type="line"/>
      <point x="737" y="404" type="line"/>
      <point x="704" y="480" type="line"/>
      <point x="629" y="553"/>
      <point x="547" y="581"/>
    </contour>
    <contour>
      <point x="1076" y="-12" type="curve" smooth="yes"/>
      <point x="1246" y="-12"/>
      <point x="1338" y="77"/>
      <point x="1338" y="237" type="curve" smooth="yes"/>
      <point x="1338" y="418"/>
      <point x="1204" y="581"/>
      <point x="940" y="581" type="curve" smooth="yes"/>
      <point x="779" y="581"/>
      <point x="691" y="517"/>
      <point x="628" y="450" type="curve"/>
      <point x="761" y="154" type="line"/>
      <point x="761" y="238" type="line" smooth="yes"/>
      <point x="761" y="307"/>
      <point x="769" y="378"/>
      <point x="819" y="416" type="curve" smooth="yes"/>
      <point x="845" y="436"/>
      <point x="880" y="451"/>
      <point x="944" y="451" type="curve" smooth="yes"/>
      <point x="1062" y="451"/>
      <point x="1140" y="396"/>
      <point x="1151" y="329" type="curve"/>
      <point x="1154" y="324"/>
      <point x="1148" y="310"/>
      <point x="1150" y="305" type="curve"/>
      <point x="1153" y="285"/>
      <point x="1155" y="262"/>
      <point x="1155" y="242" type="curve" smooth="yes"/>
      <point x="1155" y="153"/>
      <point x="1129" y="116"/>
      <point x="1079" y="116" type="curve" smooth="yes"/>
      <point x="1042" y="116"/>
      <point x="1016" y="143"/>
      <point x="1016" y="205" type="curve" smooth="yes"/>
      <point x="1016" y="265"/>
      <point x="1042" y="295"/>
      <point x="1090" y="295" type="curve" smooth="yes"/>
      <point x="1143" y="295"/>
      <point x="1176" y="251"/>
      <point x="1186" y="203" type="curve"/>
      <point x="1259" y="205" type="line"/>
      <point x="1251" y="305"/>
      <point x="1169" y="410"/>
      <point x="1044" y="410" type="curve" smooth="yes"/>
      <point x="912" y="410"/>
      <point x="836" y="331"/>
      <point x="836" y="205" type="curve" smooth="yes"/>
      <point x="836" y="89"/>
      <point x="905" y="-12"/>
    </contour>
  </outline>
</glyph>
<glyph name="emlym" format="2">
  <advance width="1455"/>
  <unicode hex="0D0E"/>
  <outline>
    <contour>
      <point x="285" y="372" type="curve" smooth="yes"/>
      <point x="133" y="372"/>
      <point x="27" y="296"/>
      <point x="27" y="170" type="curve" smooth="yes"/>
      <point x="27" y="97"/>
      <point x="60" y="37"/>
      <point x="108" y="-13" type="curve"/>
      <point x="252" y="45" type="line"/>
      <point x="228" y="83"/>
      <point x="212" y="119"/>
      <point x="212" y="160" type="curve" smooth="yes"/>
      <point x="212" y="210"/>
      <point x="236" y="245"/>
      <point x="287" y="245" type="curve" smooth="yes"/>
      <point x="339" y="245"/>
      <point x="360" y="205"/>
      <point x="360" y="163" type="curve" smooth="yes"/>
      <point x="360" y="123"/>
      <point x="343" y="92"/>
      <point x="329" y="70" type="curve"/>
      <point x="392" y="0" type="line"/>
      <point x="974" y="0" type="line"/>
      <point x="972" y="128" type="line"/>
      <point x="521" y="128" type="line"/>
      <point x="518" y="76" type="line"/>
      <point x="531" y="105"/>
      <point x="538" y="143"/>
      <point x="538" y="173" type="curve" smooth="yes"/>
      <point x="538" y="268"/>
      <point x="464" y="372"/>
    </contour>
    <contour>
      <point x="1023" y="581" type="curve" smooth="yes"/>
      <point x="746" y="581"/>
      <point x="619" y="389"/>
      <point x="619" y="148" type="curve" smooth="yes"/>
      <point x="619" y="-108"/>
      <point x="716" y="-228"/>
      <point x="891" y="-228" type="curve" smooth="yes"/>
      <point x="965" y="-228"/>
      <point x="1009" y="-215"/>
      <point x="1045" y="-185" type="curve" smooth="yes"/>
      <point x="1080" y="-156"/>
      <point x="1105" y="-112"/>
      <point x="1105" y="-12" type="curve" smooth="yes"/>
      <point x="1105" y="378" type="line"/>
      <point x="918" y="378" type="line"/>
      <point x="918" y="-56" type="line" smooth="yes"/>
      <point x="918" y="-81"/>
      <point x="915" y="-89"/>
      <point x="908" y="-95" type="curve" smooth="yes"/>
      <point x="903" y="-100"/>
      <point x="895" y="-102"/>
      <point x="886" y="-102" type="curve" smooth="yes"/>
      <point x="833" y="-102"/>
      <point x="810" y="-31"/>
      <point x="807" y="53" type="curve" smooth="yes"/>
      <point x="807" y="60"/>
      <point x="807" y="68"/>
      <point x="807" y="75" type="curve" smooth="yes"/>
      <point x="805" y="99"/>
      <point x="805" y="123"/>
      <point x="805" y="140" type="curve" smooth="yes"/>
      <point x="805" y="325"/>
      <point x="873" y="453"/>
      <point x="1024" y="453" type="curve" smooth="yes"/>
      <point x="1168" y="453"/>
      <point x="1225" y="332"/>
      <point x="1225" y="172" type="curve" smooth="yes"/>
      <point x="1225" y="46"/>
      <point x="1191" y="-51"/>
      <point x="1125" y="-154" type="curve"/>
      <point x="1278" y="-229" type="line"/>
      <point x="1359" y="-117"/>
      <point x="1415" y="1"/>
      <point x="1415" y="171" type="curve" smooth="yes"/>
      <point x="1415" y="415"/>
      <point x="1293" y="581"/>
    </contour>
  </outline>
</glyph>
<glyph name="eemlym" format="2">
  <advance width="1476"/>
  <unicode hex="0D0F"/>
  <outline>
    <contour>
      <point x="287" y="372" type="curve" smooth="yes"/>
      <point x="135" y="372"/>
      <point x="29" y="296"/>
      <point x="29" y="170" type="curve" smooth="yes"/>
      <point x="29" y="97"/>
      <point x="62" y="37"/>
      <point x="110" y="-13" type="curve"/>
      <point x="254" y="45" type="line"/>
      <point x="230" y="83"/>
      <point x="214" y="119"/>
      <point x="214" y="160" type="curve" smooth="yes"/>
      <point x="214" y="210"/>
      <point x="238" y="245"/>
      <point x="289" y="245" type="curve" smooth="yes"/>
      <point x="341" y="245"/>
      <point x="362" y="205"/>
      <point x="362" y="163" type="curve" smooth="yes"/>
      <point x="362" y="123"/>
      <point x="345" y="92"/>
      <point x="331" y="70" type="curve"/>
      <point x="394" y="0" type="line"/>
      <point x="976" y="0" type="line"/>
      <point x="974" y="128" type="line"/>
      <point x="523" y="128" type="line"/>
      <point x="520" y="76" type="line"/>
      <point x="533" y="105"/>
      <point x="540" y="143"/>
      <point x="540" y="173" type="curve" smooth="yes"/>
      <point x="540" y="268"/>
      <point x="466" y="372"/>
    </contour>
    <contour>
      <point x="1075" y="581" type="curve" smooth="yes"/>
      <point x="772" y="581"/>
      <point x="621" y="399"/>
      <point x="621" y="148" type="curve" smooth="yes"/>
      <point x="621" y="-108"/>
      <point x="718" y="-228"/>
      <point x="893" y="-228" type="curve" smooth="yes"/>
      <point x="967" y="-228"/>
      <point x="1011" y="-215"/>
      <point x="1047" y="-185" type="curve" smooth="yes"/>
      <point x="1082" y="-156"/>
      <point x="1107" y="-112"/>
      <point x="1107" y="-12" type="curve" smooth="yes"/>
      <point x="1107" y="378" type="line"/>
      <point x="920" y="378" type="line"/>
      <point x="920" y="-56" type="line" smooth="yes"/>
      <point x="920" y="-81"/>
      <point x="917" y="-89"/>
      <point x="910" y="-95" type="curve" smooth="yes"/>
      <point x="905" y="-100"/>
      <point x="898" y="-102"/>
      <point x="888" y="-102" type="curve" smooth="yes"/>
      <point x="835" y="-102"/>
      <point x="812" y="-31"/>
      <point x="809" y="53" type="curve" smooth="yes"/>
      <point x="809" y="60"/>
      <point x="809" y="68"/>
      <point x="809" y="75" type="curve" smooth="yes"/>
      <point x="807" y="99"/>
      <point x="807" y="123"/>
      <point x="807" y="140" type="curve" smooth="yes"/>
      <point x="807" y="315"/>
      <point x="880" y="453"/>
      <point x="1070" y="453" type="curve" smooth="yes"/>
      <point x="1192" y="453"/>
      <point x="1248" y="399"/>
      <point x="1248" y="321" type="curve" smooth="yes"/>
      <point x="1248" y="249"/>
      <point x="1208" y="219"/>
      <point x="1150" y="202" type="curve"/>
      <point x="1150" y="76" type="line"/>
      <point x="1220" y="76"/>
      <point x="1258" y="37"/>
      <point x="1258" y="-17" type="curve" smooth="yes"/>
      <point x="1258" y="-69"/>
      <point x="1235" y="-100"/>
      <point x="1175" y="-100" type="curve" smooth="yes"/>
      <point x="1164" y="-100"/>
      <point x="1147" y="-99"/>
      <point x="1133" y="-95" type="curve"/>
      <point x="1115" y="-220" type="line"/>
      <point x="1137" y="-225"/>
      <point x="1180" y="-228"/>
      <point x="1205" y="-228" type="curve" smooth="yes"/>
      <point x="1352" y="-228"/>
      <point x="1446" y="-169"/>
      <point x="1446" y="-23" type="curve" smooth="yes"/>
      <point x="1446" y="64"/>
      <point x="1404" y="122"/>
      <point x="1329" y="154" type="curve"/>
      <point x="1326" y="139" type="line"/>
      <point x="1390" y="182"/>
      <point x="1436" y="236"/>
      <point x="1436" y="337" type="curve" smooth="yes"/>
      <point x="1436" y="462"/>
      <point x="1341" y="581"/>
    </contour>
  </outline>
</glyph>
<glyph name="omlym" format="2">
  <advance width="878"/>
  <unicode hex="0D12"/>
  <outline>
    <contour>
      <point x="515" y="581" type="curve" smooth="yes"/>
      <point x="243" y="581"/>
      <point x="33" y="469"/>
      <point x="33" y="242" type="curve" smooth="yes"/>
      <point x="33" y="63"/>
      <point x="139" y="-12"/>
      <point x="278" y="-12" type="curve" smooth="yes"/>
      <point x="432" y="-12"/>
      <point x="506" y="61"/>
      <point x="506" y="180" type="curve" smooth="yes"/>
      <point x="506" y="285"/>
      <point x="444" y="359"/>
      <point x="316" y="359" type="curve" smooth="yes"/>
      <point x="230" y="359"/>
      <point x="171" y="321"/>
      <point x="118" y="276" type="curve"/>
      <point x="139" y="156" type="line"/>
      <point x="193" y="215"/>
      <point x="222" y="240"/>
      <point x="267" y="240" type="curve" smooth="yes"/>
      <point x="303" y="240"/>
      <point x="325" y="216"/>
      <point x="325" y="173" type="curve" smooth="yes"/>
      <point x="325" y="128"/>
      <point x="306" y="108"/>
      <point x="273" y="108" type="curve" smooth="yes"/>
      <point x="235" y="108"/>
      <point x="202" y="137"/>
      <point x="202" y="238" type="curve" smooth="yes"/>
      <point x="202" y="254" type="line" smooth="yes"/>
      <point x="202" y="405"/>
      <point x="381" y="453"/>
      <point x="500" y="453" type="curve" smooth="yes"/>
      <point x="596" y="453"/>
      <point x="650" y="439"/>
      <point x="650" y="393" type="curve" smooth="yes"/>
      <point x="650" y="378"/>
      <point x="645" y="367"/>
      <point x="635" y="359" type="curve" smooth="yes"/>
      <point x="618" y="346"/>
      <point x="598" y="343"/>
      <point x="550" y="343" type="curve" smooth="yes"/>
      <point x="543" y="343" type="line"/>
      <point x="543" y="217" type="line"/>
      <point x="552" y="217" type="line" smooth="yes"/>
      <point x="599" y="217"/>
      <point x="620" y="214"/>
      <point x="638" y="204" type="curve"/>
      <point x="653" y="195"/>
      <point x="661" y="182"/>
      <point x="661" y="164" type="curve" smooth="yes"/>
      <point x="661" y="129"/>
      <point x="638" y="116"/>
      <point x="591" y="116" type="curve" smooth="yes"/>
      <point x="574" y="116"/>
      <point x="549" y="119"/>
      <point x="533" y="123" type="curve"/>
      <point x="508" y="0" type="line"/>
      <point x="540" y="-7"/>
      <point x="577" y="-12"/>
      <point x="622" y="-12" type="curve" smooth="yes"/>
      <point x="769" y="-12"/>
      <point x="847" y="45"/>
      <point x="847" y="148" type="curve" smooth="yes"/>
      <point x="847" y="211"/>
      <point x="817" y="262"/>
      <point x="747" y="287" type="curve"/>
      <point x="746" y="281" type="line"/>
      <point x="816" y="314"/>
      <point x="836" y="358"/>
      <point x="836" y="413" type="curve" smooth="yes"/>
      <point x="836" y="502"/>
      <point x="760" y="581"/>
    </contour>
  </outline>
</glyph>
<glyph name="kamlym" format="2">
  <advance width="1209"/>
  <unicode hex="0D15"/>
  <outline>
    <contour>
      <point x="250" y="-12" type="curve" smooth="yes"/>
      <point x="337" y="-12"/>
      <point x="388" y="3"/>
      <point x="456" y="46" type="curve"/>
      <point x="384" y="157" type="line"/>
      <point x="347" y="127"/>
      <point x="313" y="115"/>
      <point x="274" y="115" type="curve" smooth="yes"/>
      <point x="226" y="115"/>
      <point x="203" y="132"/>
      <point x="203" y="168" type="curve" smooth="yes"/>
      <point x="203" y="187"/>
      <point x="211" y="201"/>
      <point x="225" y="211" type="curve" smooth="yes"/>
      <point x="244" y="225"/>
      <point x="271" y="231"/>
      <point x="330" y="231" type="curve" smooth="yes"/>
      <point x="851" y="231" type="line" smooth="yes"/>
      <point x="916" y="231"/>
      <point x="951" y="228"/>
      <point x="974" y="215" type="curve" smooth="yes"/>
      <point x="990" y="205"/>
      <point x="1001" y="191"/>
      <point x="1001" y="167" type="curve" smooth="yes"/>
      <point x="1001" y="136"/>
      <point x="982" y="116"/>
      <point x="944" y="116" type="curve" smooth="yes"/>
      <point x="930" y="116"/>
      <point x="915" y="117"/>
      <point x="900" y="121" type="curve"/>
      <point x="871" y="-2" type="line"/>
      <point x="900" y="-9"/>
      <point x="935" y="-12"/>
      <point x="966" y="-12" type="curve" smooth="yes"/>
      <point x="1096" y="-12"/>
      <point x="1182" y="47"/>
      <point x="1182" y="167" type="curve" smooth="yes"/>
      <point x="1182" y="243"/>
      <point x="1151" y="289"/>
      <point x="1102" y="317" type="curve" smooth="yes"/>
      <point x="1042" y="352"/>
      <point x="973" y="359"/>
      <point x="854" y="359" type="curve" smooth="yes"/>
      <point x="383" y="359" type="line" smooth="yes"/>
      <point x="245" y="359"/>
      <point x="168" y="349"/>
      <point x="107" y="312" type="curve" smooth="yes"/>
      <point x="60" y="283"/>
      <point x="27" y="238"/>
      <point x="27" y="167" type="curve" smooth="yes"/>
      <point x="27" y="53"/>
      <point x="109" y="-12"/>
    </contour>
    <contour>
      <point x="607" y="581" type="curve" smooth="yes"/>
      <point x="410" y="581"/>
      <point x="311" y="473"/>
      <point x="311" y="287" type="curve" smooth="yes"/>
      <point x="311" y="202"/>
      <point x="334" y="131"/>
      <point x="376" y="80" type="curve"/>
      <point x="425" y="16"/>
      <point x="501" y="-12"/>
      <point x="608" y="-12" type="curve" smooth="yes"/>
      <point x="803" y="-12"/>
      <point x="902" y="94"/>
      <point x="902" y="287" type="curve" smooth="yes"/>
      <point x="902" y="463"/>
      <point x="821" y="581"/>
    </contour>
    <contour>
      <point x="607" y="453" type="curve" smooth="yes"/>
      <point x="684" y="453"/>
      <point x="719" y="391"/>
      <point x="719" y="286" type="curve" smooth="yes"/>
      <point x="719" y="177"/>
      <point x="683" y="116"/>
      <point x="607" y="116" type="curve" smooth="yes"/>
      <point x="528" y="116"/>
      <point x="494" y="182"/>
      <point x="494" y="283" type="curve" smooth="yes"/>
      <point x="494" y="391"/>
      <point x="528" y="453"/>
    </contour>
  </outline>
</glyph>
<glyph name="khamlym" format="2">
  <advance width="1161"/>
  <unicode hex="0D16"/>
  <outline>
    <contour>
      <point x="441" y="581" type="curve" smooth="yes"/>
      <point x="185" y="581"/>
      <point x="32" y="444"/>
      <point x="32" y="237" type="curve" smooth="yes"/>
      <point x="32" y="63"/>
      <point x="138" y="-12"/>
      <point x="277" y="-12" type="curve" smooth="yes"/>
      <point x="431" y="-12"/>
      <point x="505" y="61"/>
      <point x="505" y="180" type="curve" smooth="yes"/>
      <point x="505" y="285"/>
      <point x="443" y="359"/>
      <point x="315" y="359" type="curve" smooth="yes"/>
      <point x="229" y="359"/>
      <point x="170" y="321"/>
      <point x="117" y="276" type="curve"/>
      <point x="138" y="156" type="line"/>
      <point x="192" y="215"/>
      <point x="221" y="240"/>
      <point x="267" y="240" type="curve" smooth="yes"/>
      <point x="302" y="240"/>
      <point x="324" y="216"/>
      <point x="324" y="173" type="curve" smooth="yes"/>
      <point x="324" y="127"/>
      <point x="305" y="108"/>
      <point x="272" y="108" type="curve" smooth="yes"/>
      <point x="234" y="108"/>
      <point x="201" y="135"/>
      <point x="201" y="236" type="curve" smooth="yes"/>
      <point x="201" y="243" type="line" smooth="yes"/>
      <point x="201" y="380"/>
      <point x="314" y="452"/>
      <point x="429" y="452" type="curve" smooth="yes"/>
      <point x="552" y="452"/>
      <point x="615" y="386"/>
      <point x="615" y="281" type="curve" smooth="yes"/>
      <point x="615" y="201"/>
      <point x="581" y="139"/>
      <point x="538" y="79" type="curve"/>
      <point x="564" y="0" type="line"/>
      <point x="619" y="0" type="line"/>
      <point x="676" y="35" type="line"/>
      <point x="758" y="117"/>
      <point x="805" y="169"/>
      <point x="805" y="284" type="curve" smooth="yes"/>
      <point x="805" y="426"/>
      <point x="714" y="581"/>
    </contour>
    <contour>
      <point x="1105" y="569" type="line"/>
      <point x="918" y="569" type="line"/>
      <point x="918" y="128" type="line"/>
      <point x="695" y="128" type="line"/>
      <point x="609" y="0" type="line"/>
      <point x="1105" y="0" type="line"/>
    </contour>
  </outline>
</glyph>
<glyph name="gamlym" format="2">
  <advance width="1025"/>
  <unicode hex="0D17"/>
  <outline>
    <contour>
      <point x="700" y="581" type="curve" smooth="yes"/>
      <point x="604" y="581"/>
      <point x="545" y="561"/>
      <point x="499" y="524" type="curve" smooth="yes"/>
      <point x="442" y="478"/>
      <point x="417" y="406"/>
      <point x="417" y="303" type="curve" smooth="yes"/>
      <point x="417" y="264" type="line" smooth="yes"/>
      <point x="417" y="204"/>
      <point x="412" y="161"/>
      <point x="387" y="137" type="curve" smooth="yes"/>
      <point x="374" y="124"/>
      <point x="355" y="117"/>
      <point x="329" y="117" type="curve" smooth="yes"/>
      <point x="274" y="117"/>
      <point x="225" y="154"/>
      <point x="225" y="273" type="curve" smooth="yes"/>
      <point x="225" y="353"/>
      <point x="251" y="414"/>
      <point x="313" y="500" type="curve"/>
      <point x="174" y="581" type="line"/>
      <point x="85" y="479"/>
      <point x="35" y="395"/>
      <point x="35" y="269" type="curve" smooth="yes"/>
      <point x="35" y="103"/>
      <point x="142" y="-12"/>
      <point x="325" y="-12" type="curve" smooth="yes"/>
      <point x="419" y="-12"/>
      <point x="482" y="7"/>
      <point x="528" y="44" type="curve" smooth="yes"/>
      <point x="584" y="89"/>
      <point x="608" y="165"/>
      <point x="608" y="275" type="curve" smooth="yes"/>
      <point x="608" y="305" type="line" smooth="yes"/>
      <point x="608" y="365"/>
      <point x="613" y="408"/>
      <point x="638" y="432" type="curve" smooth="yes"/>
      <point x="651" y="445"/>
      <point x="670" y="452"/>
      <point x="696" y="452" type="curve" smooth="yes"/>
      <point x="751" y="452"/>
      <point x="800" y="415"/>
      <point x="800" y="296" type="curve" smooth="yes"/>
      <point x="800" y="216"/>
      <point x="774" y="155"/>
      <point x="712" y="69" type="curve"/>
      <point x="851" y="-12" type="line"/>
      <point x="940" y="90"/>
      <point x="990" y="174"/>
      <point x="990" y="300" type="curve" smooth="yes"/>
      <point x="990" y="466"/>
      <point x="882" y="581"/>
    </contour>
  </outline>
</glyph>
<glyph name="ghamlym" format="2">
  <advance width="1533"/>
  <unicode hex="0D18"/>
  <outline>
    <contour>
      <point x="285" y="581" type="curve" smooth="yes"/>
      <point x="133" y="581"/>
      <point x="27" y="505"/>
      <point x="27" y="379" type="curve" smooth="yes"/>
      <point x="27" y="306"/>
      <point x="60" y="246"/>
      <point x="108" y="196" type="curve"/>
      <point x="252" y="254" type="line"/>
      <point x="228" y="292"/>
      <point x="212" y="328"/>
      <point x="212" y="369" type="curve" smooth="yes"/>
      <point x="212" y="419"/>
      <point x="236" y="454"/>
      <point x="287" y="454" type="curve" smooth="yes"/>
      <point x="339" y="454"/>
      <point x="360" y="414"/>
      <point x="360" y="372" type="curve" smooth="yes"/>
      <point x="360" y="332"/>
      <point x="343" y="301"/>
      <point x="329" y="279" type="curve"/>
      <point x="392" y="209" type="line"/>
      <point x="742" y="209" type="line"/>
      <point x="732" y="335" type="line"/>
      <point x="521" y="335" type="line"/>
      <point x="518" y="285" type="line"/>
      <point x="531" y="314"/>
      <point x="538" y="352"/>
      <point x="538" y="382" type="curve" smooth="yes"/>
      <point x="538" y="477"/>
      <point x="464" y="581"/>
    </contour>
    <contour>
      <point x="1478" y="569" type="line"/>
      <point x="1291" y="569" type="line"/>
      <point x="1291" y="128" type="line"/>
      <point x="794" y="128" type="line"/>
      <point x="794" y="209" type="line"/>
      <point x="1193" y="209" type="line"/>
      <point x="1193" y="296" type="line" smooth="yes"/>
      <point x="1193" y="405"/>
      <point x="1165" y="469"/>
      <point x="1112" y="516" type="curve" smooth="yes"/>
      <point x="1063" y="559"/>
      <point x="996" y="581"/>
      <point x="902" y="581" type="curve" smooth="yes"/>
      <point x="814" y="581"/>
      <point x="745" y="560"/>
      <point x="694" y="517" type="curve" smooth="yes"/>
      <point x="641" y="472"/>
      <point x="608" y="408"/>
      <point x="608" y="297" type="curve" smooth="yes"/>
      <point x="608" y="0" type="line"/>
      <point x="1478" y="0" type="line"/>
    </contour>
    <contour>
      <point x="901" y="453" type="curve" smooth="yes"/>
      <point x="969" y="453"/>
      <point x="1007" y="408"/>
      <point x="1007" y="339" type="curve" smooth="yes"/>
      <point x="1007" y="335" type="line"/>
      <point x="794" y="335" type="line"/>
      <point x="794" y="339" type="line" smooth="yes"/>
      <point x="794" y="405"/>
      <point x="827" y="453"/>
    </contour>
  </outline>
</glyph>
<glyph name="ngamlym" format="2">
  <advance width="1248"/>
  <unicode hex="0D19"/>
  <outline>
    <contour>
      <point x="422" y="581" type="curve" smooth="yes"/>
      <point x="202" y="581"/>
      <point x="33" y="460"/>
      <point x="33" y="244" type="curve" smooth="yes"/>
      <point x="33" y="63"/>
      <point x="139" y="-12"/>
      <point x="278" y="-12" type="curve" smooth="yes"/>
      <point x="432" y="-12"/>
      <point x="506" y="61"/>
      <point x="506" y="180" type="curve" smooth="yes"/>
      <point x="506" y="285"/>
      <point x="444" y="359"/>
      <point x="316" y="359" type="curve" smooth="yes"/>
      <point x="230" y="359"/>
      <point x="171" y="321"/>
      <point x="118" y="276" type="curve"/>
      <point x="139" y="156" type="line"/>
      <point x="193" y="215"/>
      <point x="222" y="240"/>
      <point x="267" y="240" type="curve" smooth="yes"/>
      <point x="303" y="240"/>
      <point x="325" y="216"/>
      <point x="325" y="173" type="curve" smooth="yes"/>
      <point x="325" y="127"/>
      <point x="306" y="108"/>
      <point x="273" y="108" type="curve" smooth="yes"/>
      <point x="235" y="108"/>
      <point x="202" y="135"/>
      <point x="202" y="240" type="curve" smooth="yes"/>
      <point x="202" y="244" type="line" smooth="yes"/>
      <point x="202" y="380"/>
      <point x="301" y="453"/>
      <point x="418" y="453" type="curve" smooth="yes"/>
      <point x="469" y="453"/>
      <point x="505" y="443"/>
      <point x="529" y="424" type="curve" smooth="yes"/>
      <point x="562" y="397"/>
      <point x="574" y="359"/>
      <point x="574" y="273" type="curve" smooth="yes"/>
      <point x="574" y="0" type="line"/>
      <point x="761" y="0" type="line"/>
      <point x="761" y="239" type="line"/>
      <point x="730" y="390" type="line"/>
      <point x="704" y="480" type="line"/>
      <point x="629" y="553"/>
      <point x="547" y="581"/>
    </contour>
    <contour>
      <point x="953" y="581" type="curve" smooth="yes"/>
      <point x="759" y="581"/>
      <point x="633" y="488"/>
      <point x="590" y="326" type="curve"/>
      <point x="585" y="241" type="line"/>
      <point x="585" y="70" type="line"/>
      <point x="761" y="70" type="line"/>
      <point x="761" y="187" type="line" smooth="yes"/>
      <point x="761" y="277"/>
      <point x="766" y="344"/>
      <point x="804" y="392" type="curve" smooth="yes"/>
      <point x="834" y="430"/>
      <point x="875" y="453"/>
      <point x="935" y="453" type="curve" smooth="yes"/>
      <point x="992" y="453"/>
      <point x="1020" y="430"/>
      <point x="1020" y="397" type="curve" smooth="yes"/>
      <point x="1020" y="381"/>
      <point x="1014" y="369"/>
      <point x="1004" y="361" type="curve" smooth="yes"/>
      <point x="988" y="348"/>
      <point x="965" y="343"/>
      <point x="922" y="343" type="curve" smooth="yes"/>
      <point x="888" y="343" type="line"/>
      <point x="888" y="217" type="line"/>
      <point x="926" y="217" type="line" smooth="yes"/>
      <point x="969" y="217"/>
      <point x="990" y="214"/>
      <point x="1008" y="204" type="curve" smooth="yes"/>
      <point x="1023" y="195"/>
      <point x="1031" y="182"/>
      <point x="1031" y="164" type="curve" smooth="yes"/>
      <point x="1031" y="129"/>
      <point x="1008" y="116"/>
      <point x="961" y="116" type="curve" smooth="yes"/>
      <point x="936" y="116"/>
      <point x="913" y="120"/>
      <point x="891" y="126" type="curve"/>
      <point x="868" y="2" type="line"/>
      <point x="900" y="-5"/>
      <point x="944" y="-12"/>
      <point x="992" y="-12" type="curve" smooth="yes"/>
      <point x="1139" y="-12"/>
      <point x="1217" y="49"/>
      <point x="1217" y="148" type="curve" smooth="yes"/>
      <point x="1217" y="211"/>
      <point x="1186" y="262"/>
      <point x="1113" y="287" type="curve"/>
      <point x="1114" y="282" type="line"/>
      <point x="1183" y="314"/>
      <point x="1206" y="358"/>
      <point x="1206" y="419" type="curve" smooth="yes"/>
      <point x="1206" y="508"/>
      <point x="1129" y="581"/>
    </contour>
  </outline>
</glyph>
<glyph name="camlym" format="2">
  <advance width="1053"/>
  <unicode hex="0D1A"/>
  <outline>
    <contour>
      <point x="998" y="569" type="line"/>
      <point x="811" y="569" type="line"/>
      <point x="811" y="128" type="line"/>
      <point x="564" y="128" type="line"/>
      <point x="590" y="102" type="line"/>
      <point x="622" y="138"/>
      <point x="640" y="179"/>
      <point x="640" y="226" type="curve" smooth="yes"/>
      <point x="640" y="297"/>
      <point x="591" y="400"/>
      <point x="400" y="400" type="curve" smooth="yes"/>
      <point x="235" y="400"/>
      <point x="154" y="331"/>
      <point x="154" y="212" type="curve" smooth="yes"/>
      <point x="154" y="201"/>
      <point x="155" y="175"/>
      <point x="158" y="158" type="curve"/>
      <point x="341" y="173" type="line"/>
      <point x="340" y="182"/>
      <point x="339" y="189"/>
      <point x="339" y="199" type="curve" smooth="yes"/>
      <point x="339" y="246"/>
      <point x="360" y="273"/>
      <point x="399" y="273" type="curve" smooth="yes"/>
      <point x="445" y="273"/>
      <point x="462" y="242"/>
      <point x="462" y="203" type="curve" smooth="yes"/>
      <point x="462" y="161"/>
      <point x="442" y="128"/>
      <point x="404" y="100" type="curve"/>
      <point x="491" y="128" type="line"/>
      <point x="20" y="128" type="line"/>
      <point x="20" y="0" type="line"/>
      <point x="998" y="0" type="line"/>
    </contour>
  </outline>
</glyph>
<glyph name="chamlym" format="2">
  <advance width="1532"/>
  <unicode hex="0D1B"/>
  <outline>
    <contour>
      <point x="400" y="400" type="curve" smooth="yes"/>
      <point x="235" y="400"/>
      <point x="154" y="331"/>
      <point x="154" y="212" type="curve" smooth="yes"/>
      <point x="154" y="201"/>
      <point x="155" y="175"/>
      <point x="158" y="158" type="curve"/>
      <point x="341" y="173" type="line"/>
      <point x="340" y="182"/>
      <point x="339" y="189"/>
      <point x="339" y="199" type="curve" smooth="yes"/>
      <point x="339" y="246"/>
      <point x="360" y="273"/>
      <point x="399" y="273" type="curve" smooth="yes"/>
      <point x="445" y="273"/>
      <point x="462" y="242"/>
      <point x="462" y="203" type="curve" smooth="yes"/>
      <point x="462" y="161"/>
      <point x="442" y="128"/>
      <point x="404" y="100" type="curve"/>
      <point x="491" y="128" type="line"/>
      <point x="20" y="128" type="line"/>
      <point x="20" y="0" type="line"/>
      <point x="915" y="0" type="line"/>
      <point x="811" y="128" type="line"/>
      <point x="564" y="128" type="line"/>
      <point x="590" y="102" type="line"/>
      <point x="622" y="138"/>
      <point x="640" y="179"/>
      <point x="640" y="226" type="curve" smooth="yes"/>
      <point x="640" y="297"/>
      <point x="591" y="400"/>
    </contour>
    <contour>
      <point x="1089" y="581" type="curve" smooth="yes"/>
      <point x="806" y="581"/>
      <point x="709" y="426"/>
      <point x="709" y="284" type="curve" smooth="yes"/>
      <point x="709" y="197"/>
      <point x="740" y="134"/>
      <point x="808" y="65" type="curve"/>
      <point x="845" y="0" type="line"/>
      <point x="920" y="0" type="line"/>
      <point x="979" y="84" type="line"/>
      <point x="930" y="146"/>
      <point x="899" y="203"/>
      <point x="899" y="281" type="curve" smooth="yes"/>
      <point x="899" y="388"/>
      <point x="969" y="451"/>
      <point x="1103" y="451" type="curve" smooth="yes"/>
      <point x="1229" y="451"/>
      <point x="1303" y="396"/>
      <point x="1314" y="329" type="curve"/>
      <point x="1317" y="324"/>
      <point x="1311" y="310"/>
      <point x="1313" y="305" type="curve"/>
      <point x="1316" y="285"/>
      <point x="1318" y="262"/>
      <point x="1318" y="242" type="curve" smooth="yes"/>
      <point x="1318" y="153"/>
      <point x="1292" y="116"/>
      <point x="1242" y="116" type="curve" smooth="yes"/>
      <point x="1205" y="116"/>
      <point x="1179" y="143"/>
      <point x="1179" y="205" type="curve" smooth="yes"/>
      <point x="1179" y="265"/>
      <point x="1205" y="295"/>
      <point x="1253" y="295" type="curve" smooth="yes"/>
      <point x="1306" y="295"/>
      <point x="1339" y="251"/>
      <point x="1349" y="203" type="curve"/>
      <point x="1422" y="205" type="line"/>
      <point x="1414" y="305"/>
      <point x="1332" y="410"/>
      <point x="1207" y="410" type="curve" smooth="yes"/>
      <point x="1075" y="410"/>
      <point x="999" y="331"/>
      <point x="999" y="205" type="curve" smooth="yes"/>
      <point x="999" y="89"/>
      <point x="1068" y="-12"/>
      <point x="1239" y="-12" type="curve" smooth="yes"/>
      <point x="1409" y="-12"/>
      <point x="1501" y="77"/>
      <point x="1501" y="237" type="curve" smooth="yes"/>
      <point x="1501" y="418"/>
      <point x="1372" y="581"/>
    </contour>
  </outline>
</glyph>
<glyph name="jamlym" format="2">
  <advance width="1064"/>
  <unicode hex="0D1C"/>
  <outline>
    <contour>
      <point x="325" y="581" type="curve" smooth="yes"/>
      <point x="137" y="581"/>
      <point x="33" y="511"/>
      <point x="33" y="396" type="curve" smooth="yes"/>
      <point x="33" y="293"/>
      <point x="108" y="247"/>
      <point x="217" y="247" type="curve" smooth="yes"/>
      <point x="356" y="247"/>
      <point x="396" y="307"/>
      <point x="396" y="369" type="curve" smooth="yes"/>
      <point x="396" y="447"/>
      <point x="334" y="480"/>
      <point x="246" y="480" type="curve" smooth="yes"/>
      <point x="189" y="480"/>
      <point x="141" y="467"/>
      <point x="93" y="439" type="curve"/>
      <point x="143" y="407" type="line"/>
      <point x="166" y="417"/>
      <point x="188" y="420"/>
      <point x="209" y="420" type="curve" smooth="yes"/>
      <point x="237" y="420"/>
      <point x="254" y="405"/>
      <point x="254" y="380" type="curve" smooth="yes"/>
      <point x="254" y="361"/>
      <point x="243" y="344"/>
      <point x="214" y="344" type="curve" smooth="yes"/>
      <point x="191" y="344"/>
      <point x="172" y="356"/>
      <point x="172" y="393" type="curve" smooth="yes"/>
      <point x="172" y="408"/>
      <point x="175" y="422"/>
      <point x="183" y="433" type="curve" smooth="yes"/>
      <point x="185" y="437"/>
      <point x="187" y="445"/>
      <point x="191" y="448" type="curve" smooth="yes"/>
      <point x="216" y="463"/>
      <point x="266" y="472"/>
      <point x="326" y="472" type="curve" smooth="yes"/>
      <point x="379" y="472"/>
      <point x="413" y="459"/>
      <point x="437" y="439" type="curve" smooth="yes"/>
      <point x="473" y="409"/>
      <point x="480" y="364"/>
      <point x="480" y="296" type="curve" smooth="yes"/>
      <point x="480" y="269" type="line"/>
      <point x="646" y="269" type="line"/>
      <point x="646" y="333" type="line" smooth="yes"/>
      <point x="646" y="387"/>
      <point x="656" y="415"/>
      <point x="671" y="432" type="curve" smooth="yes"/>
      <point x="686" y="448"/>
      <point x="707" y="455"/>
      <point x="741" y="455" type="curve" smooth="yes"/>
      <point x="810" y="455"/>
      <point x="848" y="415"/>
      <point x="848" y="357" type="curve" smooth="yes"/>
      <point x="848" y="309"/>
      <point x="830" y="281"/>
      <point x="788" y="264" type="curve" smooth="yes"/>
      <point x="746" y="247"/>
      <point x="708" y="244"/>
      <point x="610" y="244" type="curve" smooth="yes"/>
      <point x="267" y="244" type="line" smooth="yes"/>
      <point x="178" y="244"/>
      <point x="121" y="240"/>
      <point x="77" y="212" type="curve" smooth="yes"/>
      <point x="47" y="193"/>
      <point x="27" y="164"/>
      <point x="27" y="118" type="curve" smooth="yes"/>
      <point x="27" y="20"/>
      <point x="110" y="-12"/>
      <point x="218" y="-12" type="curve" smooth="yes"/>
      <point x="317" y="-12"/>
      <point x="421" y="2"/>
      <point x="553" y="44" type="curve" smooth="yes"/>
      <point x="645" y="73"/>
      <point x="694" y="105"/>
      <point x="725" y="128" type="curve"/>
      <point x="724" y="105" type="line"/>
      <point x="758" y="134"/>
      <point x="783" y="149"/>
      <point x="813" y="149" type="curve" smooth="yes"/>
      <point x="849" y="149"/>
      <point x="857" y="133"/>
      <point x="857" y="118" type="curve" smooth="yes"/>
      <point x="857" y="100"/>
      <point x="843" y="89"/>
      <point x="813" y="89" type="curve" smooth="yes"/>
      <point x="779" y="89"/>
      <point x="766" y="108"/>
      <point x="766" y="134" type="curve" smooth="yes"/>
      <point x="766" y="174"/>
      <point x="806" y="207"/>
      <point x="838" y="222" type="curve"/>
      <point x="694" y="231" type="line"/>
      <point x="658" y="212"/>
      <point x="626" y="176"/>
      <point x="626" y="122" type="curve" smooth="yes"/>
      <point x="626" y="53"/>
      <point x="670" y="-12"/>
      <point x="820" y="-12" type="curve" smooth="yes"/>
      <point x="939" y="-12"/>
      <point x="1002" y="31"/>
      <point x="1002" y="113" type="curve" smooth="yes"/>
      <point x="1002" y="212"/>
      <point x="913" y="237"/>
      <point x="832" y="237" type="curve" smooth="yes"/>
      <point x="783" y="237"/>
      <point x="671" y="177"/>
      <point x="626" y="158" type="curve"/>
      <point x="560" y="152"/>
      <point x="485" y="138"/>
      <point x="410" y="121" type="curve" smooth="yes"/>
      <point x="329" y="103"/>
      <point x="272" y="97"/>
      <point x="232" y="97" type="curve" smooth="yes"/>
      <point x="200" y="97"/>
      <point x="186" y="104"/>
      <point x="186" y="118" type="curve" smooth="yes"/>
      <point x="186" y="124"/>
      <point x="189" y="129"/>
      <point x="194" y="132" type="curve" smooth="yes"/>
      <point x="200" y="136"/>
      <point x="210" y="137"/>
      <point x="228" y="137" type="curve" smooth="yes"/>
      <point x="394" y="137" type="line" smooth="yes"/>
      <point x="432" y="137"/>
      <point x="477" y="138"/>
      <point x="529" y="142" type="curve"/>
      <point x="691" y="153" type="line"/>
      <point x="918" y="181" type="line"/>
      <point x="992" y="218"/>
      <point x="1028" y="278"/>
      <point x="1028" y="370" type="curve" smooth="yes"/>
      <point x="1028" y="474"/>
      <point x="952" y="581"/>
      <point x="762" y="581" type="curve" smooth="yes"/>
      <point x="673" y="581"/>
      <point x="602" y="560"/>
      <point x="545" y="507" type="curve"/>
      <point x="572" y="515" type="line"/>
      <point x="521" y="549"/>
      <point x="460" y="581"/>
    </contour>
  </outline>
</glyph>
<glyph name="jhamlym" format="2">
  <advance width="1902"/>
  <unicode hex="0D1D"/>
  <outline>
    <contour>
      <point x="783" y="581" type="curve" smooth="yes"/>
      <point x="683" y="581"/>
      <point x="615" y="564"/>
      <point x="540" y="528" type="curve"/>
      <point x="507" y="497" type="line"/>
      <point x="400" y="439"/>
      <point x="333" y="354"/>
      <point x="333" y="229" type="curve" smooth="yes"/>
      <point x="333" y="73"/>
      <point x="425" y="-12"/>
      <point x="590" y="-12" type="curve" smooth="yes"/>
      <point x="756" y="-12"/>
      <point x="846" y="63"/>
      <point x="846" y="226" type="curve" smooth="yes"/>
      <point x="846" y="364"/>
      <point x="783" y="442"/>
      <point x="680" y="498" type="curve"/>
      <point x="646" y="532" type="line"/>
      <point x="575" y="566"/>
      <point x="503" y="581"/>
      <point x="412" y="581" type="curve" smooth="yes"/>
      <point x="122" y="581"/>
      <point x="35" y="417"/>
      <point x="35" y="284" type="curve" smooth="yes"/>
      <point x="35" y="154"/>
      <point x="94" y="65"/>
      <point x="181" y="-12" type="curve"/>
      <point x="317" y="68" type="line"/>
      <point x="256" y="141"/>
      <point x="224" y="201"/>
      <point x="224" y="281" type="curve" smooth="yes"/>
      <point x="224" y="384"/>
      <point x="279" y="457"/>
      <point x="427" y="457" type="curve" smooth="yes"/>
      <point x="455" y="457"/>
      <point x="482" y="453"/>
      <point x="507" y="445" type="curve"/>
      <point x="537" y="435" type="line"/>
      <point x="608" y="402"/>
      <point x="659" y="325"/>
      <point x="659" y="230" type="curve" smooth="yes"/>
      <point x="659" y="141"/>
      <point x="626" y="116"/>
      <point x="589" y="116" type="curve" smooth="yes"/>
      <point x="553" y="116"/>
      <point x="520" y="144"/>
      <point x="520" y="230" type="curve" smooth="yes"/>
      <point x="520" y="322"/>
      <point x="572" y="399"/>
      <point x="648" y="434" type="curve"/>
      <point x="680" y="444" type="line"/>
      <point x="708" y="453"/>
      <point x="739" y="457"/>
      <point x="772" y="457" type="curve" smooth="yes"/>
      <point x="817" y="457"/>
      <point x="853" y="445"/>
      <point x="877" y="424" type="curve" smooth="yes"/>
      <point x="914" y="393"/>
      <point x="930" y="336"/>
      <point x="930" y="260" type="curve" smooth="yes"/>
      <point x="930" y="256" type="line" smooth="yes"/>
      <point x="930" y="162"/>
      <point x="952" y="89"/>
      <point x="1008" y="43" type="curve" smooth="yes"/>
      <point x="1054" y="6"/>
      <point x="1113" y="-12"/>
      <point x="1183" y="-12" type="curve" smooth="yes"/>
      <point x="1275" y="-12"/>
      <point x="1336" y="12"/>
      <point x="1391" y="68" type="curve"/>
      <point x="1375" y="63" type="line"/>
      <point x="1435" y="11"/>
      <point x="1491" y="-12"/>
      <point x="1580" y="-12" type="curve" smooth="yes"/>
      <point x="1761" y="-12"/>
      <point x="1867" y="108"/>
      <point x="1867" y="270" type="curve" smooth="yes"/>
      <point x="1867" y="395"/>
      <point x="1817" y="479"/>
      <point x="1728" y="581" type="curve"/>
      <point x="1589" y="500" type="line"/>
      <point x="1651" y="414"/>
      <point x="1677" y="353"/>
      <point x="1677" y="274" type="curve" smooth="yes"/>
      <point x="1677" y="158"/>
      <point x="1617" y="117"/>
      <point x="1559" y="117" type="curve" smooth="yes"/>
      <point x="1532" y="117"/>
      <point x="1514" y="127"/>
      <point x="1502" y="141" type="curve" smooth="yes"/>
      <point x="1484" y="161"/>
      <point x="1477" y="189"/>
      <point x="1477" y="241" type="curve" smooth="yes"/>
      <point x="1477" y="569" type="line"/>
      <point x="1290" y="569" type="line"/>
      <point x="1290" y="256" type="line" smooth="yes"/>
      <point x="1290" y="194"/>
      <point x="1286" y="161"/>
      <point x="1266" y="140" type="curve" smooth="yes"/>
      <point x="1250" y="124"/>
      <point x="1233" y="117"/>
      <point x="1205" y="117" type="curve" smooth="yes"/>
      <point x="1178" y="117"/>
      <point x="1162" y="126"/>
      <point x="1149" y="138" type="curve" smooth="yes"/>
      <point x="1125" y="162"/>
      <point x="1120" y="201"/>
      <point x="1120" y="270" type="curve" smooth="yes"/>
      <point x="1120" y="286" type="line" smooth="yes"/>
      <point x="1120" y="401"/>
      <point x="1083" y="476"/>
      <point x="1008" y="525" type="curve" smooth="yes"/>
      <point x="951" y="562"/>
      <point x="880" y="581"/>
    </contour>
  </outline>
</glyph>
<glyph name="nyamlym" format="2">
  <advance width="1701"/>
  <unicode hex="0D1E"/>
  <outline>
    <contour>
      <point x="422" y="581" type="curve" smooth="yes"/>
      <point x="202" y="581"/>
      <point x="33" y="460"/>
      <point x="33" y="244" type="curve" smooth="yes"/>
      <point x="33" y="63"/>
      <point x="139" y="-12"/>
      <point x="278" y="-12" type="curve" smooth="yes"/>
      <point x="432" y="-12"/>
      <point x="506" y="61"/>
      <point x="506" y="180" type="curve" smooth="yes"/>
      <point x="506" y="285"/>
      <point x="444" y="359"/>
      <point x="316" y="359" type="curve" smooth="yes"/>
      <point x="230" y="359"/>
      <point x="171" y="321"/>
      <point x="118" y="276" type="curve"/>
      <point x="139" y="156" type="line"/>
      <point x="193" y="215"/>
      <point x="222" y="240"/>
      <point x="267" y="240" type="curve" smooth="yes"/>
      <point x="303" y="240"/>
      <point x="325" y="216"/>
      <point x="325" y="173" type="curve" smooth="yes"/>
      <point x="325" y="127"/>
      <point x="306" y="108"/>
      <point x="273" y="108" type="curve" smooth="yes"/>
      <point x="235" y="108"/>
      <point x="202" y="135"/>
      <point x="202" y="240" type="curve" smooth="yes"/>
      <point x="202" y="244" type="line" smooth="yes"/>
      <point x="202" y="380"/>
      <point x="301" y="453"/>
      <point x="418" y="453" type="curve" smooth="yes"/>
      <point x="469" y="453"/>
      <point x="505" y="443"/>
      <point x="529" y="424" type="curve" smooth="yes"/>
      <point x="562" y="397"/>
      <point x="574" y="359"/>
      <point x="574" y="273" type="curve" smooth="yes"/>
      <point x="574" y="0" type="line"/>
      <point x="761" y="0" type="line"/>
      <point x="761" y="239" type="line"/>
      <point x="731" y="397" type="line"/>
      <point x="704" y="480" type="line"/>
      <point x="629" y="553"/>
      <point x="547" y="581"/>
    </contour>
    <contour>
      <point x="933" y="581" type="curve" smooth="yes"/>
      <point x="767" y="581"/>
      <point x="692" y="528"/>
      <point x="632" y="466" type="curve"/>
      <point x="594" y="232" type="line"/>
      <point x="594" y="20" type="line"/>
      <point x="761" y="20" type="line"/>
      <point x="761" y="254" type="line" smooth="yes"/>
      <point x="761" y="348"/>
      <point x="775" y="395"/>
      <point x="811" y="425" type="curve" smooth="yes"/>
      <point x="835" y="445"/>
      <point x="869" y="457"/>
      <point x="926" y="457" type="curve" smooth="yes"/>
      <point x="943" y="457"/>
      <point x="994" y="454"/>
      <point x="1021" y="445" type="curve" smooth="yes"/>
      <point x="1051" y="435" type="line"/>
      <point x="1122" y="402"/>
      <point x="1173" y="325"/>
      <point x="1173" y="230" type="curve" smooth="yes"/>
      <point x="1173" y="141"/>
      <point x="1140" y="116"/>
      <point x="1103" y="116" type="curve" smooth="yes"/>
      <point x="1067" y="116"/>
      <point x="1034" y="144"/>
      <point x="1034" y="230" type="curve" smooth="yes"/>
      <point x="1034" y="322"/>
      <point x="1088" y="399"/>
      <point x="1164" y="434" type="curve"/>
      <point x="1196" y="444" type="line" smooth="yes"/>
      <point x="1224" y="453"/>
      <point x="1255" y="457"/>
      <point x="1292" y="457" type="curve" smooth="yes"/>
      <point x="1419" y="457"/>
      <point x="1477" y="391"/>
      <point x="1477" y="281" type="curve" smooth="yes"/>
      <point x="1477" y="201"/>
      <point x="1443" y="138"/>
      <point x="1384" y="68" type="curve"/>
      <point x="1519" y="-12" type="line"/>
      <point x="1607" y="65"/>
      <point x="1666" y="154"/>
      <point x="1666" y="284" type="curve" smooth="yes"/>
      <point x="1666" y="426"/>
      <point x="1583" y="581"/>
      <point x="1303" y="581" type="curve" smooth="yes"/>
      <point x="1211" y="581"/>
      <point x="1131" y="564"/>
      <point x="1056" y="528" type="curve"/>
      <point x="1023" y="498" type="line"/>
      <point x="916" y="440"/>
      <point x="847" y="354"/>
      <point x="847" y="229" type="curve" smooth="yes"/>
      <point x="847" y="73"/>
      <point x="939" y="-12"/>
      <point x="1104" y="-12" type="curve" smooth="yes"/>
      <point x="1271" y="-12"/>
      <point x="1360" y="63"/>
      <point x="1360" y="226" type="curve" smooth="yes"/>
      <point x="1360" y="364"/>
      <point x="1297" y="442"/>
      <point x="1194" y="498" type="curve"/>
      <point x="1163" y="532" type="line"/>
      <point x="1092" y="566"/>
      <point x="1023" y="581"/>
    </contour>
  </outline>
</glyph>
<glyph name="ttamlym" format="2">
  <advance width="651"/>
  <unicode hex="0D1F"/>
  <outline>
    <contour>
      <point x="314" y="581" type="curve" smooth="yes"/>
      <point x="119" y="581"/>
      <point x="28" y="503"/>
      <point x="28" y="398" type="curve" smooth="yes"/>
      <point x="28" y="341"/>
      <point x="47" y="302"/>
      <point x="80" y="275" type="curve" smooth="yes"/>
      <point x="130" y="234"/>
      <point x="201" y="223"/>
      <point x="304" y="223" type="curve" smooth="yes"/>
      <point x="327" y="223" type="line" smooth="yes"/>
      <point x="379" y="223"/>
      <point x="402" y="220"/>
      <point x="418" y="205" type="curve" smooth="yes"/>
      <point x="425" y="198"/>
      <point x="430" y="188"/>
      <point x="430" y="175" type="curve" smooth="yes"/>
      <point x="430" y="140"/>
      <point x="401" y="117"/>
      <point x="314" y="117" type="curve" smooth="yes"/>
      <point x="234" y="117"/>
      <point x="175" y="131"/>
      <point x="85" y="177" type="curve"/>
      <point x="14" y="59" type="line"/>
      <point x="100" y="15"/>
      <point x="203" y="-12"/>
      <point x="331" y="-12" type="curve" smooth="yes"/>
      <point x="534" y="-12"/>
      <point x="622" y="64"/>
      <point x="622" y="172" type="curve" smooth="yes"/>
      <point x="622" y="230"/>
      <point x="602" y="272"/>
      <point x="566" y="301" type="curve" smooth="yes"/>
      <point x="521" y="337"/>
      <point x="463" y="353"/>
      <point x="348" y="353" type="curve" smooth="yes"/>
      <point x="329" y="353" type="line" smooth="yes"/>
      <point x="281" y="353"/>
      <point x="252" y="356"/>
      <point x="237" y="366" type="curve" smooth="yes"/>
      <point x="227" y="373"/>
      <point x="220" y="384"/>
      <point x="220" y="399" type="curve" smooth="yes"/>
      <point x="220" y="430"/>
      <point x="247" y="452"/>
      <point x="325" y="452" type="curve" smooth="yes"/>
      <point x="415" y="452"/>
      <point x="480" y="430"/>
      <point x="557" y="396" type="curve"/>
      <point x="630" y="509" type="line"/>
      <point x="562" y="545"/>
      <point x="454" y="581"/>
    </contour>
  </outline>
</glyph>
<glyph name="tthamlym" format="2">
  <advance width="750"/>
  <unicode hex="0D20"/>
  <outline>
    <contour>
      <point x="373" y="581" type="curve" smooth="yes"/>
      <point x="159" y="581"/>
      <point x="35" y="464"/>
      <point x="35" y="287" type="curve" smooth="yes"/>
      <point x="35" y="122"/>
      <point x="141" y="-12"/>
      <point x="375" y="-12" type="curve" smooth="yes"/>
      <point x="592" y="-12"/>
      <point x="715" y="106"/>
      <point x="715" y="284" type="curve" smooth="yes"/>
      <point x="715" y="462"/>
      <point x="593" y="581"/>
    </contour>
    <contour>
      <point x="375" y="118" type="curve" smooth="yes"/>
      <point x="277" y="118"/>
      <point x="224" y="183"/>
      <point x="224" y="286" type="curve" smooth="yes"/>
      <point x="224" y="391"/>
      <point x="279" y="451"/>
      <point x="375" y="451" type="curve" smooth="yes"/>
      <point x="476" y="451"/>
      <point x="526" y="385"/>
      <point x="526" y="286" type="curve" smooth="yes"/>
      <point x="526" y="186"/>
      <point x="477" y="118"/>
    </contour>
  </outline>
</glyph>
<glyph name="ddamlym" format="2">
  <advance width="1395"/>
  <unicode hex="0D21"/>
  <outline>
    <contour>
      <point x="674" y="-12" type="curve"/>
      <point x="767" y="-12"/>
      <point x="828" y="12"/>
      <point x="884" y="68" type="curve"/>
      <point x="868" y="63" type="line"/>
      <point x="928" y="11"/>
      <point x="984" y="-12"/>
      <point x="1073" y="-12" type="curve" smooth="yes"/>
      <point x="1254" y="-12"/>
      <point x="1360" y="108"/>
      <point x="1360" y="270" type="curve" smooth="yes"/>
      <point x="1360" y="395"/>
      <point x="1310" y="479"/>
      <point x="1221" y="581" type="curve"/>
      <point x="1082" y="500" type="line"/>
      <point x="1144" y="414"/>
      <point x="1170" y="353"/>
      <point x="1170" y="274" type="curve" smooth="yes"/>
      <point x="1170" y="158"/>
      <point x="1110" y="117"/>
      <point x="1052" y="117" type="curve" smooth="yes"/>
      <point x="1025" y="117"/>
      <point x="1007" y="127"/>
      <point x="995" y="141" type="curve" smooth="yes"/>
      <point x="977" y="161"/>
      <point x="970" y="189"/>
      <point x="970" y="241" type="curve" smooth="yes"/>
      <point x="970" y="569" type="line"/>
      <point x="783" y="569" type="line"/>
      <point x="783" y="256" type="line" smooth="yes"/>
      <point x="783" y="194"/>
      <point x="779" y="161"/>
      <point x="758" y="140" type="curve" smooth="yes"/>
      <point x="742" y="124"/>
      <point x="724" y="117"/>
      <point x="696" y="117" type="curve" smooth="yes"/>
      <point x="668" y="117"/>
      <point x="651" y="126"/>
      <point x="638" y="138" type="curve" smooth="yes"/>
      <point x="613" y="162"/>
      <point x="608" y="201"/>
      <point x="608" y="276" type="curve" smooth="yes"/>
      <point x="608" y="291" type="line" smooth="yes"/>
      <point x="608" y="409"/>
      <point x="583" y="480"/>
      <point x="527" y="525" type="curve" smooth="yes"/>
      <point x="481" y="562"/>
      <point x="420" y="581"/>
      <point x="325" y="581" type="curve" smooth="yes"/>
      <point x="142" y="581"/>
      <point x="35" y="466"/>
      <point x="35" y="300" type="curve" smooth="yes"/>
      <point x="35" y="174"/>
      <point x="85" y="90"/>
      <point x="174" y="-12" type="curve"/>
      <point x="313" y="69" type="line"/>
      <point x="251" y="155"/>
      <point x="225" y="216"/>
      <point x="225" y="296" type="curve" smooth="yes"/>
      <point x="225" y="415"/>
      <point x="274" y="452"/>
      <point x="329" y="452" type="curve" smooth="yes"/>
      <point x="355" y="452"/>
      <point x="374" y="445"/>
      <point x="387" y="432" type="curve" smooth="yes"/>
      <point x="412" y="408"/>
      <point x="417" y="365"/>
      <point x="417" y="305" type="curve" smooth="yes"/>
      <point x="417" y="266" type="line" smooth="yes"/>
      <point x="417" y="158"/>
      <point x="440" y="89"/>
      <point x="497" y="43" type="curve" smooth="yes"/>
      <point x="543" y="6"/>
      <point x="603" y="-12"/>
    </contour>
  </outline>
</glyph>
<glyph name="ddhamlym" format="2">
  <advance width="1544"/>
  <unicode hex="0D22"/>
  <outline>
    <contour>
      <point x="674" y="-12" type="curve" smooth="yes"/>
      <point x="767" y="-12"/>
      <point x="828" y="12"/>
      <point x="884" y="68" type="curve"/>
      <point x="970" y="241" type="line"/>
      <point x="970" y="569" type="line"/>
      <point x="783" y="569" type="line"/>
      <point x="783" y="256" type="line" smooth="yes"/>
      <point x="783" y="194"/>
      <point x="779" y="161"/>
      <point x="758" y="140" type="curve" smooth="yes"/>
      <point x="742" y="124"/>
      <point x="724" y="117"/>
      <point x="696" y="117" type="curve" smooth="yes"/>
      <point x="668" y="117"/>
      <point x="651" y="126"/>
      <point x="638" y="138" type="curve" smooth="yes"/>
      <point x="613" y="162"/>
      <point x="608" y="201"/>
      <point x="608" y="276" type="curve" smooth="yes"/>
      <point x="608" y="291" type="line" smooth="yes"/>
      <point x="608" y="409"/>
      <point x="583" y="480"/>
      <point x="527" y="525" type="curve" smooth="yes"/>
      <point x="481" y="562"/>
      <point x="420" y="581"/>
      <point x="325" y="581" type="curve" smooth="yes"/>
      <point x="142" y="581"/>
      <point x="35" y="466"/>
      <point x="35" y="300" type="curve" smooth="yes"/>
      <point x="35" y="174"/>
      <point x="85" y="90"/>
      <point x="174" y="-12" type="curve"/>
      <point x="313" y="69" type="line"/>
      <point x="251" y="155"/>
      <point x="225" y="216"/>
      <point x="225" y="296" type="curve" smooth="yes"/>
      <point x="225" y="415"/>
      <point x="274" y="452"/>
      <point x="329" y="452" type="curve" smooth="yes"/>
      <point x="355" y="452"/>
      <point x="374" y="445"/>
      <point x="387" y="432" type="curve" smooth="yes"/>
      <point x="412" y="408"/>
      <point x="417" y="365"/>
      <point x="417" y="305" type="curve" smooth="yes"/>
      <point x="417" y="266" type="line" smooth="yes"/>
      <point x="417" y="158"/>
      <point x="440" y="89"/>
      <point x="497" y="43" type="curve" smooth="yes"/>
      <point x="543" y="6"/>
      <point x="603" y="-12"/>
    </contour>
    <contour>
      <point x="1266" y="581" type="curve" smooth="yes"/>
      <point x="1112" y="581"/>
      <point x="1038" y="508"/>
      <point x="1038" y="389" type="curve" smooth="yes"/>
      <point x="1038" y="284"/>
      <point x="1100" y="210"/>
      <point x="1228" y="210" type="curve" smooth="yes"/>
      <point x="1314" y="210"/>
      <point x="1373" y="248"/>
      <point x="1426" y="293" type="curve"/>
      <point x="1405" y="413" type="line"/>
      <point x="1351" y="354"/>
      <point x="1322" y="329"/>
      <point x="1277" y="329" type="curve" smooth="yes"/>
      <point x="1241" y="329"/>
      <point x="1219" y="353"/>
      <point x="1219" y="396" type="curve" smooth="yes"/>
      <point x="1219" y="442"/>
      <point x="1238" y="461"/>
      <point x="1271" y="461" type="curve" smooth="yes"/>
      <point x="1309" y="461"/>
      <point x="1342" y="434"/>
      <point x="1342" y="329" type="curve" smooth="yes"/>
      <point x="1342" y="325" type="line" smooth="yes"/>
      <point x="1342" y="189"/>
      <point x="1243" y="116"/>
      <point x="1126" y="116" type="curve" smooth="yes"/>
      <point x="1075" y="116"/>
      <point x="1039" y="126"/>
      <point x="1015" y="145" type="curve" smooth="yes"/>
      <point x="982" y="172"/>
      <point x="970" y="210"/>
      <point x="970" y="296" type="curve" smooth="yes"/>
      <point x="970" y="549" type="line"/>
      <point x="793" y="549" type="line"/>
      <point x="793" y="330" type="line"/>
      <point x="840" y="89" type="line"/>
      <point x="915" y="16"/>
      <point x="997" y="-12"/>
      <point x="1122" y="-12" type="curve"/>
      <point x="1342" y="-12"/>
      <point x="1511" y="109"/>
      <point x="1511" y="325" type="curve" smooth="yes"/>
      <point x="1511" y="506"/>
      <point x="1405" y="581"/>
    </contour>
  </outline>
</glyph>
<glyph name="nnamlym" format="2">
  <advance width="1556"/>
  <unicode hex="0D23"/>
  <outline>
    <contour>
      <point x="422" y="581" type="curve" smooth="yes"/>
      <point x="202" y="581"/>
      <point x="33" y="460"/>
      <point x="33" y="245" type="curve" smooth="yes"/>
      <point x="33" y="63"/>
      <point x="139" y="-12"/>
      <point x="278" y="-12" type="curve" smooth="yes"/>
      <point x="432" y="-12"/>
      <point x="506" y="61"/>
      <point x="506" y="179" type="curve" smooth="yes"/>
      <point x="506" y="285"/>
      <point x="444" y="359"/>
      <point x="316" y="359" type="curve" smooth="yes"/>
      <point x="230" y="359"/>
      <point x="171" y="321"/>
      <point x="118" y="276" type="curve"/>
      <point x="139" y="156" type="line"/>
      <point x="193" y="215"/>
      <point x="222" y="240"/>
      <point x="267" y="240" type="curve" smooth="yes"/>
      <point x="303" y="240"/>
      <point x="325" y="216"/>
      <point x="325" y="173" type="curve" smooth="yes"/>
      <point x="325" y="127"/>
      <point x="306" y="108"/>
      <point x="273" y="108" type="curve" smooth="yes"/>
      <point x="235" y="108"/>
      <point x="202" y="135"/>
      <point x="202" y="240" type="curve" smooth="yes"/>
      <point x="202" y="244" type="line" smooth="yes"/>
      <point x="202" y="380"/>
      <point x="301" y="453"/>
      <point x="418" y="453" type="curve" smooth="yes"/>
      <point x="469" y="453"/>
      <point x="505" y="443"/>
      <point x="529" y="424" type="curve" smooth="yes"/>
      <point x="562" y="397"/>
      <point x="574" y="359"/>
      <point x="574" y="273" type="curve" smooth="yes"/>
      <point x="574" y="0" type="line"/>
      <point x="761" y="0" type="line"/>
      <point x="761" y="305" type="line" smooth="yes"/>
      <point x="761" y="369"/>
      <point x="769" y="405"/>
      <point x="789" y="427" type="curve" smooth="yes"/>
      <point x="804" y="443"/>
      <point x="824" y="452"/>
      <point x="852" y="452" type="curve" smooth="yes"/>
      <point x="881" y="452"/>
      <point x="902" y="444"/>
      <point x="916" y="429" type="curve" smooth="yes"/>
      <point x="936" y="408"/>
      <point x="944" y="373"/>
      <point x="944" y="313" type="curve" smooth="yes"/>
      <point x="944" y="0" type="line"/>
      <point x="1131" y="0" type="line"/>
      <point x="1131" y="328" type="line" smooth="yes"/>
      <point x="1131" y="380"/>
      <point x="1138" y="408"/>
      <point x="1156" y="428" type="curve" smooth="yes"/>
      <point x="1168" y="442"/>
      <point x="1186" y="452"/>
      <point x="1213" y="452" type="curve" smooth="yes"/>
      <point x="1271" y="452"/>
      <point x="1331" y="411"/>
      <point x="1331" y="295" type="curve" smooth="yes"/>
      <point x="1331" y="216"/>
      <point x="1305" y="155"/>
      <point x="1243" y="69" type="curve"/>
      <point x="1382" y="-12" type="line"/>
      <point x="1471" y="90"/>
      <point x="1521" y="174"/>
      <point x="1521" y="299" type="curve" smooth="yes"/>
      <point x="1521" y="461"/>
      <point x="1415" y="581"/>
      <point x="1234" y="581" type="curve" smooth="yes"/>
      <point x="1145" y="581"/>
      <point x="1089" y="558"/>
      <point x="1029" y="506" type="curve"/>
      <point x="1045" y="499" type="line"/>
      <point x="986" y="561"/>
      <point x="930" y="581"/>
      <point x="852" y="581" type="curve" smooth="yes"/>
      <point x="760" y="581"/>
      <point x="703" y="553"/>
      <point x="655" y="502" type="curve"/>
      <point x="704" y="480" type="line"/>
      <point x="629" y="553"/>
      <point x="547" y="581"/>
    </contour>
  </outline>
</glyph>
<glyph name="tamlym" format="2">
  <advance width="1187"/>
  <unicode hex="0D24"/>
  <outline>
    <contour>
      <point x="590" y="-12" type="curve" smooth="yes"/>
      <point x="757" y="-12"/>
      <point x="846" y="63"/>
      <point x="846" y="226" type="curve" smooth="yes"/>
      <point x="846" y="364"/>
      <point x="783" y="442"/>
      <point x="680" y="498" type="curve"/>
      <point x="646" y="532" type="line"/>
      <point x="575" y="566"/>
      <point x="503" y="581"/>
      <point x="412" y="581" type="curve" smooth="yes"/>
      <point x="122" y="581"/>
      <point x="35" y="417"/>
      <point x="35" y="284" type="curve" smooth="yes"/>
      <point x="35" y="154"/>
      <point x="94" y="65"/>
      <point x="181" y="-12" type="curve"/>
      <point x="317" y="68" type="line"/>
      <point x="256" y="141"/>
      <point x="224" y="201"/>
      <point x="224" y="281" type="curve" smooth="yes"/>
      <point x="224" y="384"/>
      <point x="279" y="457"/>
      <point x="427" y="457" type="curve" smooth="yes"/>
      <point x="455" y="457"/>
      <point x="482" y="453"/>
      <point x="507" y="445" type="curve" smooth="yes"/>
      <point x="537" y="435" type="line"/>
      <point x="608" y="402"/>
      <point x="659" y="325"/>
      <point x="659" y="230" type="curve" smooth="yes"/>
      <point x="659" y="141"/>
      <point x="626" y="116"/>
      <point x="589" y="116" type="curve" smooth="yes"/>
      <point x="553" y="116"/>
      <point x="520" y="144"/>
      <point x="520" y="230" type="curve" smooth="yes"/>
      <point x="520" y="322"/>
      <point x="574" y="399"/>
      <point x="650" y="434" type="curve"/>
      <point x="682" y="444" type="line" smooth="yes"/>
      <point x="710" y="453"/>
      <point x="741" y="457"/>
      <point x="778" y="457" type="curve" smooth="yes"/>
      <point x="905" y="457"/>
      <point x="963" y="391"/>
      <point x="963" y="281" type="curve" smooth="yes"/>
      <point x="963" y="201"/>
      <point x="929" y="138"/>
      <point x="870" y="68" type="curve"/>
      <point x="1005" y="-12" type="line"/>
      <point x="1093" y="65"/>
      <point x="1152" y="154"/>
      <point x="1152" y="284" type="curve" smooth="yes"/>
      <point x="1152" y="426"/>
      <point x="1069" y="581"/>
      <point x="789" y="581" type="curve" smooth="yes"/>
      <point x="697" y="581"/>
      <point x="617" y="564"/>
      <point x="542" y="528" type="curve"/>
      <point x="509" y="498" type="line"/>
      <point x="402" y="440"/>
      <point x="333" y="354"/>
      <point x="333" y="229" type="curve" smooth="yes"/>
      <point x="333" y="73"/>
      <point x="425" y="-12"/>
    </contour>
  </outline>
</glyph>
<glyph name="thamlym" format="2">
  <advance width="1011"/>
  <unicode hex="0D25"/>
  <outline>
    <contour>
      <point x="241" y="569" type="line"/>
      <point x="55" y="569" type="line"/>
      <point x="55" y="0" type="line"/>
      <point x="422" y="0" type="line"/>
      <point x="422" y="128" type="line"/>
      <point x="241" y="128" type="line"/>
    </contour>
    <component base="thapart"/>
  </outline>
</glyph>
<glyph name="damlym" format="2">
  <advance width="751"/>
  <unicode hex="0D26"/>
  <outline>
    <contour>
      <point x="442" y="581" type="curve" smooth="yes"/>
      <point x="171" y="581"/>
      <point x="39" y="442"/>
      <point x="39" y="224" type="curve" smooth="yes"/>
      <point x="39" y="152"/>
      <point x="55" y="63"/>
      <point x="80" y="-4" type="curve"/>
      <point x="256" y="29" type="line"/>
      <point x="238" y="85"/>
      <point x="229" y="151"/>
      <point x="229" y="212" type="curve" smooth="yes"/>
      <point x="229" y="359"/>
      <point x="303" y="453"/>
      <point x="436" y="453" type="curve" smooth="yes"/>
      <point x="495" y="453"/>
      <point x="523" y="431"/>
      <point x="523" y="396" type="curve" smooth="yes"/>
      <point x="523" y="380"/>
      <point x="517" y="369"/>
      <point x="507" y="361" type="curve" smooth="yes"/>
      <point x="491" y="348"/>
      <point x="468" y="343"/>
      <point x="426" y="343" type="curve" smooth="yes"/>
      <point x="378" y="343" type="line"/>
      <point x="378" y="217" type="line"/>
      <point x="429" y="217" type="line" smooth="yes"/>
      <point x="472" y="217"/>
      <point x="493" y="215"/>
      <point x="511" y="204" type="curve" smooth="yes"/>
      <point x="526" y="195"/>
      <point x="534" y="182"/>
      <point x="534" y="164" type="curve" smooth="yes"/>
      <point x="534" y="129"/>
      <point x="512" y="116"/>
      <point x="461" y="116" type="curve" smooth="yes"/>
      <point x="432" y="116"/>
      <point x="408" y="119"/>
      <point x="376" y="126" type="curve"/>
      <point x="353" y="2" type="line"/>
      <point x="392" y="-5"/>
      <point x="439" y="-12"/>
      <point x="491" y="-12" type="curve" smooth="yes"/>
      <point x="642" y="-12"/>
      <point x="720" y="44"/>
      <point x="720" y="148" type="curve" smooth="yes"/>
      <point x="720" y="208"/>
      <point x="690" y="262"/>
      <point x="620" y="287" type="curve"/>
      <point x="621" y="282" type="line"/>
      <point x="687" y="315"/>
      <point x="709" y="358"/>
      <point x="709" y="420" type="curve" smooth="yes"/>
      <point x="709" y="508"/>
      <point x="636" y="581"/>
    </contour>
  </outline>
</glyph>
<glyph name="dhamlym" format="2">
  <advance width="1044"/>
  <unicode hex="0D27"/>
  <outline>
    <contour>
      <point x="715" y="-12" type="curve"/>
      <point x="907" y="-12"/>
      <point x="1009" y="113"/>
      <point x="1009" y="272" type="curve" smooth="yes"/>
      <point x="1009" y="395"/>
      <point x="965" y="479"/>
      <point x="871" y="581" type="curve"/>
      <point x="730" y="500" type="line"/>
      <point x="794" y="411"/>
      <point x="819" y="351"/>
      <point x="819" y="271" type="curve" smooth="yes"/>
      <point x="819" y="160"/>
      <point x="757" y="117"/>
      <point x="700" y="117" type="curve" smooth="yes"/>
      <point x="669" y="117"/>
      <point x="651" y="129"/>
      <point x="639" y="142" type="curve" smooth="yes"/>
      <point x="620" y="163"/>
      <point x="616" y="199"/>
      <point x="616" y="249" type="curve" smooth="yes"/>
      <point x="616" y="569" type="line"/>
      <point x="429" y="569" type="line"/>
      <point x="429" y="242" type="line" smooth="yes"/>
      <point x="429" y="189"/>
      <point x="422" y="161"/>
      <point x="404" y="141" type="curve" smooth="yes"/>
      <point x="392" y="127"/>
      <point x="373" y="117"/>
      <point x="345" y="117" type="curve" smooth="yes"/>
      <point x="286" y="117"/>
      <point x="225" y="158"/>
      <point x="225" y="274" type="curve" smooth="yes"/>
      <point x="225" y="353"/>
      <point x="251" y="414"/>
      <point x="313" y="500" type="curve"/>
      <point x="174" y="581" type="line"/>
      <point x="85" y="479"/>
      <point x="35" y="395"/>
      <point x="35" y="270" type="curve" smooth="yes"/>
      <point x="35" y="108"/>
      <point x="141" y="-12"/>
      <point x="324" y="-12" type="curve" smooth="yes"/>
      <point x="415" y="-12"/>
      <point x="471" y="11"/>
      <point x="531" y="63" type="curve"/>
      <point x="515" y="59" type="line"/>
      <point x="575" y="9"/>
      <point x="629" y="-12"/>
    </contour>
  </outline>
</glyph>
<glyph name="namlym" format="2">
  <advance width="1044"/>
  <unicode hex="0D28"/>
  <outline>
    <contour>
      <point x="329" y="581" type="curve" smooth="yes"/>
      <point x="137" y="581"/>
      <point x="35" y="456"/>
      <point x="35" y="297" type="curve" smooth="yes"/>
      <point x="35" y="174"/>
      <point x="79" y="90"/>
      <point x="173" y="-12" type="curve"/>
      <point x="314" y="69" type="line"/>
      <point x="250" y="158"/>
      <point x="225" y="218"/>
      <point x="225" y="298" type="curve" smooth="yes"/>
      <point x="225" y="409"/>
      <point x="287" y="452"/>
      <point x="344" y="452" type="curve" smooth="yes"/>
      <point x="375" y="452"/>
      <point x="393" y="440"/>
      <point x="405" y="427" type="curve" smooth="yes"/>
      <point x="424" y="406"/>
      <point x="428" y="370"/>
      <point x="428" y="320" type="curve" smooth="yes"/>
      <point x="428" y="0" type="line"/>
      <point x="615" y="0" type="line"/>
      <point x="615" y="327" type="line" smooth="yes"/>
      <point x="615" y="380"/>
      <point x="622" y="408"/>
      <point x="640" y="428" type="curve" smooth="yes"/>
      <point x="652" y="442"/>
      <point x="671" y="452"/>
      <point x="699" y="452" type="curve" smooth="yes"/>
      <point x="758" y="452"/>
      <point x="819" y="411"/>
      <point x="819" y="295" type="curve" smooth="yes"/>
      <point x="819" y="216"/>
      <point x="793" y="155"/>
      <point x="731" y="69" type="curve"/>
      <point x="870" y="-12" type="line"/>
      <point x="959" y="90"/>
      <point x="1009" y="174"/>
      <point x="1009" y="299" type="curve" smooth="yes"/>
      <point x="1009" y="461"/>
      <point x="903" y="581"/>
      <point x="720" y="581" type="curve" smooth="yes"/>
      <point x="629" y="581"/>
      <point x="573" y="558"/>
      <point x="513" y="506" type="curve"/>
      <point x="529" y="510" type="line"/>
      <point x="469" y="560"/>
      <point x="415" y="581"/>
    </contour>
  </outline>
</glyph>
<glyph name="nnnamlym" format="2">
  <advance width="1190"/>
  <unicode hex="0D29"/>
  <outline>
    <contour>
      <point x="422" y="581" type="curve" smooth="yes"/>
      <point x="202" y="581"/>
      <point x="33" y="460"/>
      <point x="33" y="244" type="curve" smooth="yes"/>
      <point x="33" y="63"/>
      <point x="139" y="-12"/>
      <point x="278" y="-12" type="curve" smooth="yes"/>
      <point x="432" y="-12"/>
      <point x="506" y="61"/>
      <point x="506" y="180" type="curve" smooth="yes"/>
      <point x="506" y="285"/>
      <point x="444" y="359"/>
      <point x="316" y="359" type="curve" smooth="yes"/>
      <point x="230" y="359"/>
      <point x="171" y="321"/>
      <point x="118" y="276" type="curve"/>
      <point x="139" y="156" type="line"/>
      <point x="193" y="215"/>
      <point x="222" y="240"/>
      <point x="267" y="240" type="curve" smooth="yes"/>
      <point x="303" y="240"/>
      <point x="325" y="216"/>
      <point x="325" y="173" type="curve" smooth="yes"/>
      <point x="325" y="127"/>
      <point x="306" y="108"/>
      <point x="273" y="108" type="curve" smooth="yes"/>
      <point x="235" y="108"/>
      <point x="202" y="135"/>
      <point x="202" y="240" type="curve" smooth="yes"/>
      <point x="202" y="244" type="line" smooth="yes"/>
      <point x="202" y="380"/>
      <point x="301" y="453"/>
      <point x="418" y="453" type="curve" smooth="yes"/>
      <point x="469" y="453"/>
      <point x="505" y="443"/>
      <point x="529" y="424" type="curve" smooth="yes"/>
      <point x="562" y="397"/>
      <point x="574" y="359"/>
      <point x="574" y="273" type="curve" smooth="yes"/>
      <point x="574" y="0" type="line"/>
      <point x="761" y="0" type="line"/>
      <point x="761" y="327" type="line" smooth="yes"/>
      <point x="761" y="380"/>
      <point x="768" y="408"/>
      <point x="786" y="428" type="curve" smooth="yes"/>
      <point x="798" y="442"/>
      <point x="817" y="452"/>
      <point x="845" y="452" type="curve" smooth="yes"/>
      <point x="904" y="452"/>
      <point x="965" y="411"/>
      <point x="965" y="295" type="curve" smooth="yes"/>
      <point x="965" y="216"/>
      <point x="939" y="155"/>
      <point x="877" y="69" type="curve"/>
      <point x="1016" y="-12" type="line"/>
      <point x="1105" y="90"/>
      <point x="1155" y="174"/>
      <point x="1155" y="299" type="curve" smooth="yes"/>
      <point x="1155" y="461"/>
      <point x="1049" y="581"/>
      <point x="866" y="581" type="curve" smooth="yes"/>
      <point x="775" y="581"/>
      <point x="715" y="559"/>
      <point x="654" y="505" type="curve"/>
      <point x="704" y="480" type="line"/>
      <point x="629" y="553"/>
      <point x="547" y="581"/>
    </contour>
  </outline>
</glyph>
<glyph name="bhamlym" format="2">
  <advance width="785"/>
  <unicode hex="0D2D"/>
  <outline>
    <contour>
      <point x="469" y="581" type="curve" smooth="yes"/>
      <point x="168" y="581"/>
      <point x="39" y="445"/>
      <point x="39" y="224" type="curve" smooth="yes"/>
      <point x="39" y="152"/>
      <point x="55" y="63"/>
      <point x="80" y="-4" type="curve"/>
      <point x="256" y="29" type="line"/>
      <point x="238" y="85"/>
      <point x="229" y="151"/>
      <point x="229" y="212" type="curve" smooth="yes"/>
      <point x="229" y="367"/>
      <point x="305" y="455"/>
      <point x="472" y="455" type="curve" smooth="yes"/>
      <point x="540" y="455"/>
      <point x="583" y="446"/>
      <point x="583" y="424" type="curve" smooth="yes"/>
      <point x="583" y="415"/>
      <point x="578" y="404"/>
      <point x="546" y="404" type="curve" smooth="yes"/>
      <point x="521" y="404" type="line" smooth="yes"/>
      <point x="447" y="404"/>
      <point x="393" y="396"/>
      <point x="353" y="365" type="curve" smooth="yes"/>
      <point x="327" y="345"/>
      <point x="310" y="316"/>
      <point x="310" y="275" type="curve" smooth="yes"/>
      <point x="310" y="239"/>
      <point x="321" y="213"/>
      <point x="341" y="193" type="curve" smooth="yes"/>
      <point x="375" y="160"/>
      <point x="424" y="149"/>
      <point x="527" y="149" type="curve" smooth="yes"/>
      <point x="551" y="149" type="line" smooth="yes"/>
      <point x="574" y="149"/>
      <point x="585" y="144"/>
      <point x="585" y="131" type="curve" smooth="yes"/>
      <point x="585" y="115"/>
      <point x="567" y="110"/>
      <point x="510" y="110" type="curve" smooth="yes"/>
      <point x="451" y="110"/>
      <point x="410" y="116"/>
      <point x="354" y="135" type="curve"/>
      <point x="300" y="22" type="line"/>
      <point x="371" y="-3"/>
      <point x="425" y="-12"/>
      <point x="528" y="-12" type="curve" smooth="yes"/>
      <point x="692" y="-12"/>
      <point x="755" y="50"/>
      <point x="755" y="129" type="curve" smooth="yes"/>
      <point x="755" y="175"/>
      <point x="736" y="206"/>
      <point x="708" y="225" type="curve" smooth="yes"/>
      <point x="672" y="250"/>
      <point x="628" y="256"/>
      <point x="563" y="256" type="curve" smooth="yes"/>
      <point x="532" y="256" type="line" smooth="yes"/>
      <point x="501" y="256"/>
      <point x="480" y="259"/>
      <point x="480" y="276" type="curve" smooth="yes"/>
      <point x="480" y="284"/>
      <point x="484" y="288"/>
      <point x="489" y="291" type="curve" smooth="yes"/>
      <point x="496" y="295"/>
      <point x="506" y="297"/>
      <point x="531" y="297" type="curve" smooth="yes"/>
      <point x="573" y="297" type="line" smooth="yes"/>
      <point x="642" y="297"/>
      <point x="684" y="301"/>
      <point x="718" y="327" type="curve" smooth="yes"/>
      <point x="742" y="346"/>
      <point x="756" y="376"/>
      <point x="756" y="420" type="curve" smooth="yes"/>
      <point x="756" y="527"/>
      <point x="651" y="581"/>
    </contour>
  </outline>
</glyph>
<glyph name="mamlym" format="2">
  <advance width="855"/>
  <unicode hex="0D2E"/>
  <outline>
    <contour>
      <point x="415" y="581" type="curve" smooth="yes"/>
      <point x="308" y="581"/>
      <point x="220" y="558"/>
      <point x="158" y="510" type="curve" smooth="yes"/>
      <point x="89" y="457"/>
      <point x="51" y="384"/>
      <point x="51" y="242" type="curve" smooth="yes"/>
      <point x="51" y="0" type="line"/>
      <point x="804" y="0" type="line"/>
      <point x="804" y="245" type="line" smooth="yes"/>
      <point x="804" y="390"/>
      <point x="768" y="454"/>
      <point x="700" y="507" type="curve" smooth="yes"/>
      <point x="634" y="558"/>
      <point x="538" y="581"/>
    </contour>
    <contour>
      <point x="333" y="448" type="curve" smooth="yes"/>
      <point x="367" y="448"/>
      <point x="379" y="421"/>
      <point x="379" y="387" type="curve" smooth="yes"/>
      <point x="379" y="269"/>
      <point x="288" y="166"/>
      <point x="179" y="68" type="curve"/>
      <point x="237" y="68" type="line"/>
      <point x="237" y="246" type="line" smooth="yes"/>
      <point x="237" y="337"/>
      <point x="247" y="379"/>
      <point x="267" y="410" type="curve" smooth="yes"/>
      <point x="283" y="434"/>
      <point x="303" y="448"/>
    </contour>
    <contour>
      <point x="563" y="363" type="curve" smooth="yes"/>
      <point x="563" y="412"/>
      <point x="547" y="443"/>
      <point x="519" y="470" type="curve"/>
      <point x="518" y="459" type="line"/>
      <point x="590" y="427"/>
      <point x="618" y="371"/>
      <point x="618" y="240" type="curve" smooth="yes"/>
      <point x="618" y="127" type="line"/>
      <point x="514" y="127" type="line" smooth="yes"/>
      <point x="480" y="127"/>
      <point x="450" y="127"/>
      <point x="421" y="122" type="curve"/>
      <point x="438" y="120" type="line"/>
      <point x="512" y="194"/>
      <point x="563" y="271"/>
    </contour>
  </outline>
</glyph>
<glyph name="yamlym" format="2">
  <advance width="1193"/>
  <unicode hex="0D2F"/>
  <outline>
    <contour>
      <point x="758" y="-12" type="curve" smooth="yes"/>
      <point x="1072" y="-12"/>
      <point x="1156" y="160"/>
      <point x="1156" y="317" type="curve" smooth="yes"/>
      <point x="1156" y="408"/>
      <point x="1125" y="492"/>
      <point x="1055" y="579" type="curve"/>
      <point x="908" y="499" type="line"/>
      <point x="955" y="430"/>
      <point x="965" y="372"/>
      <point x="965" y="322" type="curve" smooth="yes"/>
      <point x="965" y="185"/>
      <point x="882" y="111"/>
      <point x="758" y="111" type="curve" smooth="yes"/>
      <point x="731" y="111"/>
      <point x="706" y="116"/>
      <point x="683" y="121" type="curve" smooth="yes"/>
      <point x="666" y="125"/>
      <point x="650" y="124"/>
      <point x="636" y="131" type="curve" smooth="yes"/>
      <point x="568" y="168"/>
      <point x="523" y="248"/>
      <point x="523" y="336" type="curve" smooth="yes"/>
      <point x="523" y="422"/>
      <point x="557" y="453"/>
      <point x="600" y="453" type="curve" smooth="yes"/>
      <point x="640" y="453"/>
      <point x="676" y="420"/>
      <point x="676" y="338" type="curve" smooth="yes"/>
      <point x="676" y="244"/>
      <point x="629" y="167"/>
      <point x="562" y="133" type="curve" smooth="yes"/>
      <point x="551" y="128"/>
      <point x="535" y="127"/>
      <point x="523" y="123" type="curve" smooth="yes"/>
      <point x="497" y="115"/>
      <point x="468" y="111"/>
      <point x="438" y="111" type="curve" smooth="yes"/>
      <point x="296" y="111"/>
      <point x="217" y="209"/>
      <point x="217" y="335" type="curve" smooth="yes"/>
      <point x="217" y="410"/>
      <point x="253" y="453"/>
      <point x="304" y="453" type="curve" smooth="yes"/>
      <point x="338" y="453"/>
      <point x="363" y="439"/>
      <point x="391" y="396" type="curve"/>
      <point x="531" y="459" type="line"/>
      <point x="480" y="548"/>
      <point x="400" y="581"/>
      <point x="304" y="581" type="curve" smooth="yes"/>
      <point x="123" y="581"/>
      <point x="30" y="473"/>
      <point x="30" y="334" type="curve" smooth="yes"/>
      <point x="30" y="128"/>
      <point x="162" y="-12"/>
      <point x="432" y="-12" type="curve" smooth="yes"/>
      <point x="508" y="-12"/>
      <point x="586" y="4"/>
      <point x="655" y="35" type="curve" smooth="yes"/>
      <point x="668" y="41"/>
      <point x="680" y="51"/>
      <point x="692" y="58" type="curve" smooth="yes"/>
      <point x="792" y="114"/>
      <point x="863" y="204"/>
      <point x="863" y="334" type="curve" smooth="yes"/>
      <point x="863" y="494"/>
      <point x="764" y="581"/>
      <point x="599" y="581" type="curve" smooth="yes"/>
      <point x="510" y="581"/>
      <point x="438" y="554"/>
      <point x="397" y="499" type="curve"/>
      <point x="379" y="477" type="line"/>
      <point x="353" y="439"/>
      <point x="336" y="392"/>
      <point x="336" y="338" type="curve" smooth="yes"/>
      <point x="336" y="202"/>
      <point x="410" y="109"/>
      <point x="513" y="52" type="curve" smooth="yes"/>
      <point x="527" y="45"/>
      <point x="541" y="34"/>
      <point x="555" y="28" type="curve" smooth="yes"/>
      <point x="618" y="1"/>
      <point x="689" y="-12"/>
    </contour>
  </outline>
</glyph>
<glyph name="ramlym" format="2">
  <advance width="860"/>
  <unicode hex="0D30"/>
  <outline>
    <contour>
      <point x="417" y="581" type="curve" smooth="yes"/>
      <point x="134" y="581"/>
      <point x="35" y="426"/>
      <point x="35" y="284" type="curve" smooth="yes"/>
      <point x="35" y="154"/>
      <point x="94" y="65"/>
      <point x="181" y="-12" type="curve"/>
      <point x="320" y="69" type="line"/>
      <point x="260" y="139"/>
      <point x="227" y="201"/>
      <point x="227" y="281" type="curve" smooth="yes"/>
      <point x="227" y="388"/>
      <point x="297" y="451"/>
      <point x="431" y="451" type="curve" smooth="yes"/>
      <point x="557" y="451"/>
      <point x="631" y="396"/>
      <point x="642" y="329" type="curve"/>
      <point x="645" y="324"/>
      <point x="639" y="310"/>
      <point x="641" y="305" type="curve"/>
      <point x="644" y="285"/>
      <point x="646" y="262"/>
      <point x="646" y="242" type="curve" smooth="yes"/>
      <point x="646" y="153"/>
      <point x="620" y="116"/>
      <point x="570" y="116" type="curve" smooth="yes"/>
      <point x="533" y="116"/>
      <point x="507" y="143"/>
      <point x="507" y="205" type="curve" smooth="yes"/>
      <point x="507" y="265"/>
      <point x="533" y="295"/>
      <point x="581" y="295" type="curve" smooth="yes"/>
      <point x="634" y="295"/>
      <point x="667" y="251"/>
      <point x="677" y="203" type="curve"/>
      <point x="750" y="205" type="line"/>
      <point x="742" y="305"/>
      <point x="660" y="410"/>
      <point x="535" y="410" type="curve" smooth="yes"/>
      <point x="403" y="410"/>
      <point x="327" y="331"/>
      <point x="327" y="205" type="curve" smooth="yes"/>
      <point x="327" y="89"/>
      <point x="396" y="-12"/>
      <point x="567" y="-12" type="curve" smooth="yes"/>
      <point x="737" y="-12"/>
      <point x="829" y="77"/>
      <point x="829" y="237" type="curve" smooth="yes"/>
      <point x="829" y="418"/>
      <point x="700" y="581"/>
    </contour>
  </outline>
</glyph>
<glyph name="rramlym" format="2">
  <advance width="779"/>
  <unicode hex="0D31"/>
  <outline>
    <contour>
      <point x="389" y="581" type="curve" smooth="yes"/>
      <point x="124" y="581"/>
      <point x="35" y="417"/>
      <point x="35" y="284" type="curve" smooth="yes"/>
      <point x="35" y="154"/>
      <point x="94" y="65"/>
      <point x="181" y="-12" type="curve"/>
      <point x="320" y="69" type="line"/>
      <point x="260" y="139"/>
      <point x="227" y="201"/>
      <point x="227" y="281" type="curve" smooth="yes"/>
      <point x="227" y="392"/>
      <point x="296" y="451"/>
      <point x="390" y="451" type="curve" smooth="yes"/>
      <point x="491" y="451"/>
      <point x="552" y="386"/>
      <point x="552" y="281" type="curve" smooth="yes"/>
      <point x="552" y="201"/>
      <point x="518" y="139"/>
      <point x="459" y="69" type="curve"/>
      <point x="597" y="-12" type="line"/>
      <point x="685" y="65"/>
      <point x="744" y="154"/>
      <point x="744" y="284" type="curve" smooth="yes"/>
      <point x="744" y="426"/>
      <point x="654" y="581"/>
    </contour>
  </outline>
</glyph>
<glyph name="lamlym" format="2">
  <advance width="976"/>
  <unicode hex="0D32"/>
  <outline>
    <contour>
      <point x="921" y="569" type="line"/>
      <point x="734" y="569" type="line"/>
      <point x="734" y="128" type="line"/>
      <point x="237" y="128" type="line"/>
      <point x="237" y="209" type="line"/>
      <point x="636" y="209" type="line"/>
      <point x="636" y="296" type="line" smooth="yes"/>
      <point x="636" y="405"/>
      <point x="608" y="469"/>
      <point x="555" y="516" type="curve" smooth="yes"/>
      <point x="506" y="559"/>
      <point x="439" y="581"/>
      <point x="345" y="581" type="curve" smooth="yes"/>
      <point x="257" y="581"/>
      <point x="188" y="560"/>
      <point x="137" y="517" type="curve" smooth="yes"/>
      <point x="84" y="472"/>
      <point x="51" y="408"/>
      <point x="51" y="297" type="curve" smooth="yes"/>
      <point x="51" y="0" type="line"/>
      <point x="921" y="0" type="line"/>
    </contour>
    <contour>
      <point x="344" y="453" type="curve" smooth="yes"/>
      <point x="412" y="453"/>
      <point x="450" y="408"/>
      <point x="450" y="339" type="curve" smooth="yes"/>
      <point x="450" y="335" type="line"/>
      <point x="237" y="335" type="line"/>
      <point x="237" y="339" type="line" smooth="yes"/>
      <point x="237" y="405"/>
      <point x="270" y="453"/>
    </contour>
  </outline>
</glyph>
<glyph name="llamlym" format="2">
  <advance width="817"/>
  <unicode hex="0D33"/>
  <outline>
    <contour>
      <point x="422" y="457" type="curve" smooth="yes"/>
      <point x="546" y="457"/>
      <point x="589" y="431"/>
      <point x="589" y="393" type="curve" smooth="yes"/>
      <point x="589" y="377"/>
      <point x="584" y="368"/>
      <point x="574" y="360" type="curve" smooth="yes"/>
      <point x="562" y="351"/>
      <point x="540" y="348"/>
      <point x="511" y="348" type="curve" smooth="yes"/>
      <point x="501" y="348" type="line"/>
      <point x="501" y="326" type="line"/>
      <point x="539" y="250" type="line"/>
      <point x="690" y="266"/>
      <point x="775" y="318"/>
      <point x="775" y="411" type="curve" smooth="yes"/>
      <point x="775" y="518"/>
      <point x="671" y="581"/>
      <point x="436" y="581" type="curve" smooth="yes"/>
      <point x="144" y="581"/>
      <point x="32" y="458"/>
      <point x="32" y="331" type="curve" smooth="yes"/>
      <point x="32" y="205"/>
      <point x="120" y="138"/>
      <point x="239" y="138" type="curve" smooth="yes"/>
      <point x="402" y="138"/>
      <point x="452" y="205"/>
      <point x="452" y="292" type="curve" smooth="yes"/>
      <point x="452" y="372"/>
      <point x="392" y="432"/>
      <point x="279" y="432" type="curve" smooth="yes"/>
      <point x="198" y="432"/>
      <point x="120" y="385"/>
      <point x="86" y="354" type="curve"/>
      <point x="142" y="310" type="line"/>
      <point x="177" y="329"/>
      <point x="203" y="340"/>
      <point x="234" y="340" type="curve" smooth="yes"/>
      <point x="266" y="340"/>
      <point x="285" y="326"/>
      <point x="285" y="294" type="curve" smooth="yes"/>
      <point x="285" y="268"/>
      <point x="271" y="248"/>
      <point x="236" y="248" type="curve" smooth="yes"/>
      <point x="204" y="248"/>
      <point x="182" y="271"/>
      <point x="182" y="318" type="curve" smooth="yes"/>
      <point x="182" y="333"/>
      <point x="183" y="349"/>
      <point x="184" y="358" type="curve" smooth="yes"/>
      <point x="186" y="373"/>
      <point x="184" y="383"/>
      <point x="195" y="395" type="curve" smooth="yes"/>
      <point x="230" y="436"/>
      <point x="296" y="457"/>
    </contour>
    <contour>
      <point x="786" y="163" type="curve" smooth="yes"/>
      <point x="786" y="232"/>
      <point x="743" y="291"/>
      <point x="623" y="315" type="curve" smooth="yes"/>
      <point x="501" y="340" type="line"/>
      <point x="501" y="224" type="line"/>
      <point x="516" y="224" type="line" smooth="yes"/>
      <point x="546" y="224"/>
      <point x="565" y="222"/>
      <point x="579" y="214" type="curve" smooth="yes"/>
      <point x="592" y="206"/>
      <point x="600" y="194"/>
      <point x="600" y="176" type="curve" smooth="yes"/>
      <point x="600" y="160"/>
      <point x="594" y="148"/>
      <point x="584" y="141" type="curve" smooth="yes"/>
      <point x="569" y="130"/>
      <point x="546" y="127"/>
      <point x="499" y="127" type="curve" smooth="yes"/>
      <point x="306" y="127" type="line" smooth="yes"/>
      <point x="204" y="127"/>
      <point x="146" y="116"/>
      <point x="98" y="83" type="curve" smooth="yes"/>
      <point x="60" y="57"/>
      <point x="37" y="16"/>
      <point x="37" y="-42" type="curve" smooth="yes"/>
      <point x="37" y="-108"/>
      <point x="68" y="-151"/>
      <point x="115" y="-175" type="curve" smooth="yes"/>
      <point x="164" y="-200"/>
      <point x="218" y="-206"/>
      <point x="308" y="-206" type="curve" smooth="yes"/>
      <point x="773" y="-206" type="line"/>
      <point x="773" y="-77" type="line"/>
      <point x="321" y="-77" type="line" smooth="yes"/>
      <point x="270" y="-77"/>
      <point x="252" y="-73"/>
      <point x="239" y="-64" type="curve" smooth="yes"/>
      <point x="230" y="-58"/>
      <point x="225" y="-49"/>
      <point x="225" y="-36" type="curve" smooth="yes"/>
      <point x="225" y="-23"/>
      <point x="231" y="-14"/>
      <point x="244" y="-8" type="curve" smooth="yes"/>
      <point x="257" y="-2"/>
      <point x="271" y="0"/>
      <point x="318" y="0" type="curve" smooth="yes"/>
      <point x="517" y="0" type="line" smooth="yes"/>
      <point x="628" y="0"/>
      <point x="690" y="8"/>
      <point x="734" y="45" type="curve" smooth="yes"/>
      <point x="765" y="71"/>
      <point x="786" y="110"/>
    </contour>
  </outline>
</glyph>
<glyph name="lllamlym" format="2">
  <advance width="773"/>
  <unicode hex="0D34"/>
  <outline>
    <contour>
      <point x="279" y="413" type="curve" smooth="yes"/>
      <point x="279" y="302"/>
      <point x="368" y="227"/>
      <point x="368" y="158" type="curve" smooth="yes"/>
      <point x="368" y="137"/>
      <point x="352" y="117"/>
      <point x="309" y="117" type="curve" smooth="yes"/>
      <point x="267" y="117"/>
      <point x="235" y="121"/>
      <point x="193" y="140" type="curve"/>
      <point x="140" y="22" type="line"/>
      <point x="208" y="-3"/>
      <point x="268" y="-12"/>
      <point x="343" y="-12" type="curve" smooth="yes"/>
      <point x="502" y="-12"/>
      <point x="546" y="62"/>
      <point x="546" y="142" type="curve" smooth="yes"/>
      <point x="546" y="255"/>
      <point x="459" y="322"/>
      <point x="459" y="410" type="curve" smooth="yes"/>
      <point x="459" y="437"/>
      <point x="475" y="462"/>
      <point x="508" y="462" type="curve" smooth="yes"/>
      <point x="542" y="462"/>
      <point x="559" y="436"/>
      <point x="559" y="400" type="curve" smooth="yes"/>
      <point x="559" y="317"/>
      <point x="509" y="270"/>
      <point x="408" y="270" type="curve" smooth="yes"/>
      <point x="381" y="270" type="line" smooth="yes"/>
      <point x="281" y="270"/>
      <point x="218" y="321"/>
      <point x="218" y="412" type="curve" smooth="yes"/>
      <point x="218" y="446"/>
      <point x="226" y="476"/>
      <point x="244" y="509" type="curve"/>
      <point x="95" y="581" type="line"/>
      <point x="52" y="523"/>
      <point x="30" y="462"/>
      <point x="30" y="404" type="curve" smooth="yes"/>
      <point x="30" y="250"/>
      <point x="156" y="157"/>
      <point x="362" y="157" type="curve" smooth="yes"/>
      <point x="433" y="157" type="line" smooth="yes"/>
      <point x="642" y="157"/>
      <point x="743" y="251"/>
      <point x="743" y="387" type="curve" smooth="yes"/>
      <point x="743" y="486"/>
      <point x="680" y="581"/>
      <point x="498" y="581" type="curve" smooth="yes"/>
      <point x="351" y="581"/>
      <point x="279" y="510"/>
    </contour>
  </outline>
</glyph>
<glyph name="vamlym" format="2">
  <advance width="1097"/>
  <unicode hex="0D35"/>
  <outline>
    <contour>
      <point x="389" y="581" type="curve" smooth="yes"/>
      <point x="124" y="581"/>
      <point x="35" y="417"/>
      <point x="35" y="284" type="curve" smooth="yes"/>
      <point x="35" y="154"/>
      <point x="94" y="65"/>
      <point x="181" y="-12" type="curve"/>
      <point x="320" y="69" type="line"/>
      <point x="260" y="139"/>
      <point x="227" y="200"/>
      <point x="227" y="281" type="curve" smooth="yes"/>
      <point x="227" y="390"/>
      <point x="296" y="452"/>
      <point x="390" y="452" type="curve" smooth="yes"/>
      <point x="491" y="452"/>
      <point x="552" y="386"/>
      <point x="552" y="281" type="curve" smooth="yes"/>
      <point x="552" y="201"/>
      <point x="518" y="139"/>
      <point x="471" y="84" type="curve"/>
      <point x="531" y="0" type="line"/>
      <point x="1042" y="0" type="line"/>
      <point x="1042" y="569" type="line"/>
      <point x="855" y="569" type="line"/>
      <point x="855" y="128" type="line"/>
      <point x="658" y="128" type="line"/>
      <point x="611" y="35" type="line"/>
      <point x="693" y="117"/>
      <point x="742" y="169"/>
      <point x="742" y="284" type="curve" smooth="yes"/>
      <point x="742" y="426"/>
      <point x="649" y="581"/>
    </contour>
  </outline>
</glyph>
<glyph name="shamlym" format="2">
  <advance width="1204"/>
  <unicode hex="0D36"/>
  <outline>
    <contour>
      <point x="772" y="581" type="curve" smooth="yes"/>
      <point x="661" y="581"/>
      <point x="576" y="559"/>
      <point x="508" y="507" type="curve" smooth="yes"/>
      <point x="445" y="459"/>
      <point x="409" y="384"/>
      <point x="409" y="265" type="curve" smooth="yes"/>
      <point x="409" y="249" type="line" smooth="yes"/>
      <point x="409" y="183"/>
      <point x="401" y="154"/>
      <point x="383" y="136" type="curve" smooth="yes"/>
      <point x="370" y="123"/>
      <point x="352" y="117"/>
      <point x="328" y="117" type="curve" smooth="yes"/>
      <point x="272" y="117"/>
      <point x="225" y="155"/>
      <point x="225" y="273" type="curve" smooth="yes"/>
      <point x="225" y="353"/>
      <point x="251" y="414"/>
      <point x="313" y="500" type="curve"/>
      <point x="174" y="581" type="line"/>
      <point x="85" y="479"/>
      <point x="35" y="395"/>
      <point x="35" y="269" type="curve" smooth="yes"/>
      <point x="35" y="103"/>
      <point x="142" y="-12"/>
      <point x="321" y="-12" type="curve" smooth="yes"/>
      <point x="409" y="-12"/>
      <point x="477" y="6"/>
      <point x="522" y="43" type="curve" smooth="yes"/>
      <point x="574" y="86"/>
      <point x="600" y="152"/>
      <point x="600" y="250" type="curve" smooth="yes"/>
      <point x="600" y="256" type="line" smooth="yes"/>
      <point x="600" y="330"/>
      <point x="612" y="385"/>
      <point x="655" y="418" type="curve" smooth="yes"/>
      <point x="682" y="439"/>
      <point x="719" y="451"/>
      <point x="781" y="451" type="curve" smooth="yes"/>
      <point x="901" y="451"/>
      <point x="975" y="396"/>
      <point x="986" y="329" type="curve"/>
      <point x="989" y="324"/>
      <point x="983" y="310"/>
      <point x="985" y="305" type="curve"/>
      <point x="988" y="285"/>
      <point x="990" y="262"/>
      <point x="990" y="242" type="curve" smooth="yes"/>
      <point x="990" y="153"/>
      <point x="964" y="116"/>
      <point x="914" y="116" type="curve" smooth="yes"/>
      <point x="877" y="116"/>
      <point x="851" y="143"/>
      <point x="851" y="205" type="curve" smooth="yes"/>
      <point x="851" y="265"/>
      <point x="877" y="295"/>
      <point x="925" y="295" type="curve" smooth="yes"/>
      <point x="978" y="295"/>
      <point x="1011" y="251"/>
      <point x="1021" y="203" type="curve"/>
      <point x="1094" y="205" type="line"/>
      <point x="1086" y="305"/>
      <point x="1004" y="410"/>
      <point x="879" y="410" type="curve" smooth="yes"/>
      <point x="747" y="410"/>
      <point x="671" y="331"/>
      <point x="671" y="205" type="curve" smooth="yes"/>
      <point x="671" y="89"/>
      <point x="740" y="-12"/>
      <point x="911" y="-12" type="curve" smooth="yes"/>
      <point x="1081" y="-12"/>
      <point x="1173" y="77"/>
      <point x="1173" y="237" type="curve" smooth="yes"/>
      <point x="1173" y="418"/>
      <point x="1044" y="581"/>
    </contour>
  </outline>
</glyph>
<glyph name="ssamlym" format="2">
  <advance width="1350"/>
  <unicode hex="0D37"/>
  <outline>
    <contour>
      <point x="285" y="372" type="curve" smooth="yes"/>
      <point x="133" y="372"/>
      <point x="27" y="296"/>
      <point x="27" y="170" type="curve" smooth="yes"/>
      <point x="27" y="97"/>
      <point x="60" y="37"/>
      <point x="108" y="-13" type="curve"/>
      <point x="252" y="45" type="line"/>
      <point x="228" y="83"/>
      <point x="212" y="119"/>
      <point x="212" y="160" type="curve" smooth="yes"/>
      <point x="212" y="210"/>
      <point x="236" y="245"/>
      <point x="287" y="245" type="curve" smooth="yes"/>
      <point x="339" y="245"/>
      <point x="360" y="205"/>
      <point x="360" y="163" type="curve" smooth="yes"/>
      <point x="360" y="123"/>
      <point x="343" y="92"/>
      <point x="329" y="70" type="curve"/>
      <point x="392" y="0" type="line"/>
      <point x="792" y="0" type="line"/>
      <point x="790" y="128" type="line"/>
      <point x="521" y="128" type="line"/>
      <point x="518" y="76" type="line"/>
      <point x="531" y="105"/>
      <point x="538" y="143"/>
      <point x="538" y="173" type="curve" smooth="yes"/>
      <point x="538" y="268"/>
      <point x="464" y="372"/>
    </contour>
    <contour>
      <point x="754" y="0" type="line"/>
      <point x="1295" y="0" type="line"/>
      <point x="1295" y="569" type="line"/>
      <point x="1112" y="569" type="line"/>
      <point x="1064" y="477"/>
      <point x="989" y="344"/>
      <point x="843" y="344" type="curve" smooth="yes"/>
      <point x="768" y="344" type="line" smooth="yes"/>
      <point x="693" y="344"/>
      <point x="678" y="376"/>
      <point x="678" y="408" type="curve" smooth="yes"/>
      <point x="678" y="438"/>
      <point x="694" y="454"/>
      <point x="717" y="454" type="curve" smooth="yes"/>
      <point x="731" y="454"/>
      <point x="739" y="449"/>
      <point x="745" y="440" type="curve" smooth="yes"/>
      <point x="752" y="430"/>
      <point x="754" y="413"/>
      <point x="754" y="387" type="curve" smooth="yes"/>
    </contour>
    <contour>
      <point x="719" y="581" type="curve" smooth="yes"/>
      <point x="580" y="581"/>
      <point x="507" y="499"/>
      <point x="507" y="410" type="curve" smooth="yes"/>
      <point x="507" y="312"/>
      <point x="570" y="221"/>
      <point x="784" y="221" type="curve" smooth="yes"/>
      <point x="870" y="221" type="line" smooth="yes"/>
      <point x="953" y="221"/>
      <point x="1064" y="261"/>
      <point x="1123" y="364" type="curve"/>
      <point x="1122" y="379" type="line"/>
      <point x="1118" y="363"/>
      <point x="1112" y="303"/>
      <point x="1112" y="252" type="curve" smooth="yes"/>
      <point x="1112" y="128" type="line"/>
      <point x="937" y="128" type="line"/>
      <point x="937" y="369" type="line" smooth="yes"/>
      <point x="937" y="450"/>
      <point x="916" y="504"/>
      <point x="873" y="537" type="curve" smooth="yes"/>
      <point x="837" y="566"/>
      <point x="787" y="581"/>
    </contour>
  </outline>
</glyph>
<glyph name="samlym" format="2">
  <advance width="1395"/>
  <unicode hex="0D38"/>
  <outline>
    <contour>
      <point x="721" y="581" type="curve" smooth="yes"/>
      <point x="628" y="581"/>
      <point x="567" y="557"/>
      <point x="511" y="501" type="curve"/>
      <point x="527" y="506" type="line"/>
      <point x="467" y="558"/>
      <point x="411" y="581"/>
      <point x="322" y="581" type="curve" smooth="yes"/>
      <point x="141" y="581"/>
      <point x="35" y="461"/>
      <point x="35" y="299" type="curve" smooth="yes"/>
      <point x="35" y="174"/>
      <point x="85" y="90"/>
      <point x="174" y="-12" type="curve"/>
      <point x="313" y="69" type="line"/>
      <point x="251" y="155"/>
      <point x="225" y="216"/>
      <point x="225" y="295" type="curve" smooth="yes"/>
      <point x="225" y="411"/>
      <point x="285" y="452"/>
      <point x="343" y="452" type="curve" smooth="yes"/>
      <point x="370" y="452"/>
      <point x="388" y="442"/>
      <point x="400" y="428" type="curve" smooth="yes"/>
      <point x="418" y="408"/>
      <point x="425" y="380"/>
      <point x="425" y="328" type="curve" smooth="yes"/>
      <point x="425" y="0" type="line"/>
      <point x="612" y="0" type="line"/>
      <point x="612" y="313" type="line" smooth="yes"/>
      <point x="612" y="375"/>
      <point x="616" y="408"/>
      <point x="637" y="429" type="curve" smooth="yes"/>
      <point x="653" y="445"/>
      <point x="671" y="452"/>
      <point x="699" y="452" type="curve" smooth="yes"/>
      <point x="727" y="452"/>
      <point x="744" y="443"/>
      <point x="757" y="431" type="curve" smooth="yes"/>
      <point x="782" y="407"/>
      <point x="787" y="368"/>
      <point x="787" y="293" type="curve" smooth="yes"/>
      <point x="787" y="278" type="line" smooth="yes"/>
      <point x="787" y="160"/>
      <point x="812" y="89"/>
      <point x="868" y="44" type="curve" smooth="yes"/>
      <point x="914" y="7"/>
      <point x="975" y="-12"/>
      <point x="1070" y="-12" type="curve" smooth="yes"/>
      <point x="1253" y="-12"/>
      <point x="1360" y="103"/>
      <point x="1360" y="269" type="curve" smooth="yes"/>
      <point x="1360" y="395"/>
      <point x="1310" y="479"/>
      <point x="1221" y="581" type="curve"/>
      <point x="1082" y="500" type="line"/>
      <point x="1144" y="414"/>
      <point x="1170" y="353"/>
      <point x="1170" y="273" type="curve" smooth="yes"/>
      <point x="1170" y="154"/>
      <point x="1121" y="117"/>
      <point x="1066" y="117" type="curve" smooth="yes"/>
      <point x="1040" y="117"/>
      <point x="1021" y="124"/>
      <point x="1008" y="137" type="curve" smooth="yes"/>
      <point x="983" y="161"/>
      <point x="978" y="204"/>
      <point x="978" y="264" type="curve" smooth="yes"/>
      <point x="978" y="303" type="line" smooth="yes"/>
      <point x="978" y="411"/>
      <point x="955" y="480"/>
      <point x="898" y="526" type="curve" smooth="yes"/>
      <point x="852" y="563"/>
      <point x="792" y="581"/>
    </contour>
  </outline>
</glyph>
<glyph name="hamlym" format="2">
  <advance width="1368"/>
  <unicode hex="0D39"/>
  <outline>
    <contour>
      <point x="285" y="372" type="curve" smooth="yes"/>
      <point x="133" y="372"/>
      <point x="27" y="296"/>
      <point x="27" y="170" type="curve" smooth="yes"/>
      <point x="27" y="97"/>
      <point x="60" y="37"/>
      <point x="108" y="-13" type="curve"/>
      <point x="252" y="45" type="line"/>
      <point x="228" y="83"/>
      <point x="212" y="119"/>
      <point x="212" y="160" type="curve" smooth="yes"/>
      <point x="212" y="210"/>
      <point x="236" y="245"/>
      <point x="287" y="245" type="curve" smooth="yes"/>
      <point x="339" y="245"/>
      <point x="360" y="205"/>
      <point x="360" y="163" type="curve" smooth="yes"/>
      <point x="360" y="123"/>
      <point x="343" y="92"/>
      <point x="329" y="70" type="curve"/>
      <point x="392" y="0" type="line"/>
      <point x="792" y="0" type="line"/>
      <point x="790" y="128" type="line"/>
      <point x="521" y="128" type="line"/>
      <point x="518" y="76" type="line"/>
      <point x="531" y="105"/>
      <point x="538" y="143"/>
      <point x="538" y="173" type="curve" smooth="yes"/>
      <point x="538" y="268"/>
      <point x="464" y="372"/>
    </contour>
    <contour>
      <point x="978" y="581" type="curve" smooth="yes"/>
      <point x="713" y="581"/>
      <point x="626" y="417"/>
      <point x="626" y="284" type="curve" smooth="yes"/>
      <point x="626" y="196"/>
      <point x="657" y="134"/>
      <point x="725" y="65" type="curve"/>
      <point x="759" y="0" type="line"/>
      <point x="837" y="0" type="line"/>
      <point x="896" y="84" type="line"/>
      <point x="847" y="146"/>
      <point x="816" y="203"/>
      <point x="816" y="281" type="curve" smooth="yes"/>
      <point x="816" y="392"/>
      <point x="885" y="451"/>
      <point x="979" y="451" type="curve" smooth="yes"/>
      <point x="1080" y="451"/>
      <point x="1141" y="386"/>
      <point x="1141" y="281" type="curve" smooth="yes"/>
      <point x="1141" y="201"/>
      <point x="1107" y="139"/>
      <point x="1048" y="69" type="curve"/>
      <point x="1186" y="-12" type="line"/>
      <point x="1279" y="72"/>
      <point x="1333" y="157"/>
      <point x="1333" y="284" type="curve" smooth="yes"/>
      <point x="1333" y="426"/>
      <point x="1243" y="581"/>
    </contour>
  </outline>
</glyph>
<glyph name="tttamlym" format="2">
  <advance width="796"/>
  <unicode hex="0D3A"/>
  <outline>
    <contour>
      <point x="776" y="128" type="line"/>
      <point x="223" y="128" type="line"/>
      <point x="374" y="514" type="line"/>
      <point x="194" y="574" type="line"/>
      <point x="14" y="105" type="line"/>
      <point x="99" y="0" type="line"/>
      <point x="346" y="0" type="line"/>
      <point x="346" y="-202" type="line"/>
      <point x="533" y="-202" type="line"/>
      <point x="533" y="0" type="line"/>
      <point x="776" y="0" type="line"/>
    </contour>
  </outline>
</glyph>
<glyph name="avagrahamlym" format="2">
  <advance width="549"/>
  <unicode hex="0D3D"/>
  <outline>
    <contour>
      <point x="418" y="805" type="curve" smooth="yes"/>
      <point x="337" y="805"/>
      <point x="280" y="782"/>
      <point x="242" y="740" type="curve" smooth="yes"/>
      <point x="193" y="685"/>
      <point x="180" y="612"/>
      <point x="180" y="487" type="curve" smooth="yes"/>
      <point x="180" y="5" type="line" smooth="yes"/>
      <point x="180" y="-63"/>
      <point x="178" y="-88"/>
      <point x="162" y="-104" type="curve" smooth="yes"/>
      <point x="154" y="-112"/>
      <point x="143" y="-116"/>
      <point x="131" y="-116" type="curve" smooth="yes"/>
      <point x="102" y="-116"/>
      <point x="89" y="-99"/>
      <point x="76" y="-49" type="curve"/>
      <point x="-84" y="-82" type="line"/>
      <point x="-54" y="-166"/>
      <point x="-8" y="-244"/>
      <point x="131" y="-244" type="curve" smooth="yes"/>
      <point x="212" y="-244"/>
      <point x="269" y="-221"/>
      <point x="307" y="-179" type="curve"/>
      <point x="356" y="-124"/>
      <point x="369" y="-51"/>
      <point x="369" y="74" type="curve" smooth="yes"/>
      <point x="369" y="556" type="line" smooth="yes"/>
      <point x="369" y="624"/>
      <point x="371" y="649"/>
      <point x="387" y="665" type="curve" smooth="yes"/>
      <point x="395" y="673"/>
      <point x="406" y="677"/>
      <point x="418" y="677" type="curve" smooth="yes"/>
      <point x="447" y="677"/>
      <point x="460" y="660"/>
      <point x="473" y="610" type="curve"/>
      <point x="633" y="643" type="line"/>
      <point x="603" y="727"/>
      <point x="557" y="805"/>
    </contour>
  </outline>
</glyph>
<glyph name="aavowelsignmlym" format="2">
  <advance width="611"/>
  <unicode hex="0D3E"/>
  <outline>
    <contour>
      <point x="576" y="287" type="curve" smooth="yes"/>
      <point x="576" y="437"/>
      <point x="516" y="581"/>
      <point x="300" y="581" type="curve" smooth="yes"/>
      <point x="110" y="581"/>
      <point x="49" y="480"/>
      <point x="17" y="384" type="curve"/>
      <point x="210" y="351" type="line"/>
      <point x="223" y="409"/>
      <point x="245" y="453"/>
      <point x="296" y="453" type="curve" smooth="yes"/>
      <point x="358" y="453"/>
      <point x="384" y="387"/>
      <point x="384" y="284" type="curve" smooth="yes"/>
      <point x="384" y="180"/>
      <point x="358" y="116"/>
      <point x="294" y="116" type="curve" smooth="yes"/>
      <point x="240" y="116"/>
      <point x="222" y="158"/>
      <point x="207" y="218" type="curve"/>
      <point x="15" y="186" type="line"/>
      <point x="38" y="93"/>
      <point x="87" y="-12"/>
      <point x="290" y="-12" type="curve" smooth="yes"/>
      <point x="517" y="-12"/>
      <point x="576" y="129"/>
    </contour>
  </outline>
</glyph>
<glyph name="ivowelsignmlym" format="2">
  <advance width="297"/>
  <unicode hex="0D3F"/>
  <outline>
    <contour>
      <point x="-21" y="853" type="curve" smooth="yes"/>
      <point x="-168" y="853"/>
      <point x="-264" y="794"/>
      <point x="-264" y="674" type="curve" smooth="yes"/>
      <point x="-264" y="653"/>
      <point x="-261" y="634"/>
      <point x="-255" y="618" type="curve"/>
      <point x="-73" y="639" type="line"/>
      <point x="-76" y="648"/>
      <point x="-78" y="660"/>
      <point x="-78" y="670" type="curve" smooth="yes"/>
      <point x="-78" y="706"/>
      <point x="-53" y="725"/>
      <point x="-23" y="725" type="curve" smooth="yes"/>
      <point x="0" y="725"/>
      <point x="15" y="717"/>
      <point x="27" y="704" type="curve" smooth="yes"/>
      <point x="49" y="678"/>
      <point x="55" y="641"/>
      <point x="55" y="528" type="curve" smooth="yes"/>
      <point x="55" y="0" type="line"/>
      <point x="242" y="0" type="line"/>
      <point x="242" y="544" type="line" smooth="yes"/>
      <point x="242" y="684"/>
      <point x="211" y="765"/>
      <point x="134" y="814" type="curve" smooth="yes"/>
      <point x="95" y="839"/>
      <point x="44" y="853"/>
    </contour>
  </outline>
</glyph>
<glyph name="iivowelsignmlym" format="2">
  <advance width="297"/>
  <unicode hex="0D40"/>
  <outline>
    <contour>
      <point x="-99" y="853" type="curve" smooth="yes"/>
      <point x="-250" y="853"/>
      <point x="-313" y="793"/>
      <point x="-313" y="710" type="curve" smooth="yes"/>
      <point x="-313" y="624"/>
      <point x="-256" y="576"/>
      <point x="-146" y="576" type="curve" smooth="yes"/>
      <point x="-30" y="576"/>
      <point x="19" y="639"/>
      <point x="19" y="707" type="curve" smooth="yes"/>
      <point x="19" y="732"/>
      <point x="9" y="767"/>
      <point x="-2" y="779" type="curve"/>
      <point x="-159" y="797" type="line"/>
      <point x="-127" y="778"/>
      <point x="-105" y="755"/>
      <point x="-105" y="722" type="curve" smooth="yes"/>
      <point x="-105" y="701"/>
      <point x="-114" y="681"/>
      <point x="-142" y="681" type="curve" smooth="yes"/>
      <point x="-166" y="681"/>
      <point x="-176" y="697"/>
      <point x="-176" y="711" type="curve" smooth="yes"/>
      <point x="-176" y="744"/>
      <point x="-146" y="754"/>
      <point x="-114" y="754" type="curve" smooth="yes"/>
      <point x="-73" y="754"/>
      <point x="-40" y="749"/>
      <point x="-18" y="742" type="curve"/>
      <point x="39" y="717"/>
      <point x="55" y="646"/>
      <point x="55" y="511" type="curve" smooth="yes"/>
      <point x="55" y="0" type="line"/>
      <point x="242" y="0" type="line"/>
      <point x="242" y="503" type="line" smooth="yes"/>
      <point x="242" y="653"/>
      <point x="205" y="747"/>
      <point x="107" y="806" type="curve" smooth="yes"/>
      <point x="54" y="838"/>
      <point x="-13" y="853"/>
    </contour>
  </outline>
</glyph>
<glyph name="uvowelsignmlym" format="2">
  <advance width="412"/>
  <unicode hex="0D41"/>
  <outline>
    <contour>
      <point x="193" y="-241" type="curve" smooth="yes"/>
      <point x="339" y="-241"/>
      <point x="420" y="-167"/>
      <point x="420" y="-55" type="curve" smooth="yes"/>
      <point x="420" y="61"/>
      <point x="334" y="135"/>
      <point x="192" y="135" type="curve" smooth="yes"/>
      <point x="49" y="135"/>
      <point x="-33" y="58"/>
      <point x="-33" y="-53" type="curve" smooth="yes"/>
      <point x="-33" y="-163"/>
      <point x="46" y="-241"/>
    </contour>
    <contour>
      <point x="194" y="-120" type="curve" smooth="yes"/>
      <point x="153" y="-120"/>
      <point x="128" y="-94"/>
      <point x="128" y="-52" type="curve" smooth="yes"/>
      <point x="128" y="-8"/>
      <point x="155" y="17"/>
      <point x="192" y="17" type="curve" smooth="yes"/>
      <point x="234" y="17"/>
      <point x="259" y="-9"/>
      <point x="259" y="-52" type="curve" smooth="yes"/>
      <point x="259" y="-98"/>
      <point x="232" y="-120"/>
    </contour>
    <contour>
      <point x="159" y="581" type="curve" smooth="yes"/>
      <point x="103" y="581"/>
      <point x="67" y="575"/>
      <point x="29" y="567" type="curve"/>
      <point x="54" y="445" type="line"/>
      <point x="74" y="450"/>
      <point x="88" y="451"/>
      <point x="104" y="451" type="curve" smooth="yes"/>
      <point x="153" y="451"/>
      <point x="165" y="411"/>
      <point x="165" y="369" type="curve" smooth="yes"/>
      <point x="165" y="298"/>
      <point x="147" y="215"/>
      <point x="117" y="119" type="curve"/>
      <point x="289" y="104" type="line"/>
      <point x="327" y="209"/>
      <point x="354" y="295"/>
      <point x="354" y="401" type="curve" smooth="yes"/>
      <point x="354" y="498"/>
      <point x="299" y="581"/>
    </contour>
  </outline>
</glyph>
<glyph name="uuvowelsignmlym" format="2">
  <advance width="412"/>
  <unicode hex="0D42"/>
  <outline>
    <contour>
      <point x="193" y="-241" type="curve" smooth="yes"/>
      <point x="339" y="-241"/>
      <point x="420" y="-167"/>
      <point x="420" y="-55" type="curve" smooth="yes"/>
      <point x="420" y="61"/>
      <point x="334" y="135"/>
      <point x="192" y="135" type="curve" smooth="yes"/>
      <point x="49" y="135"/>
      <point x="-33" y="58"/>
      <point x="-33" y="-53" type="curve" smooth="yes"/>
      <point x="-33" y="-163"/>
      <point x="46" y="-241"/>
    </contour>
    <contour>
      <point x="192" y="36" type="curve" smooth="yes"/>
      <point x="251" y="36"/>
      <point x="296" y="7"/>
      <point x="296" y="-53" type="curve" smooth="yes"/>
      <point x="296" y="-114"/>
      <point x="250" y="-143"/>
      <point x="194" y="-143" type="curve" smooth="yes"/>
      <point x="138" y="-143"/>
      <point x="91" y="-113"/>
      <point x="91" y="-53" type="curve" smooth="yes"/>
      <point x="91" y="5"/>
      <point x="140" y="36"/>
    </contour>
    <contour>
      <point x="195" y="-103" type="curve" smooth="yes"/>
      <point x="280" y="-103"/>
      <point x="310" y="-44"/>
      <point x="310" y="15" type="curve" smooth="yes"/>
      <point x="310" y="44"/>
      <point x="299" y="70"/>
      <point x="269" y="102" type="curve"/>
      <point x="220" y="74" type="line"/>
      <point x="240" y="64"/>
      <point x="252" y="48"/>
      <point x="252" y="33" type="curve" smooth="yes"/>
      <point x="252" y="4"/>
      <point x="230" y="-15"/>
      <point x="196" y="-15" type="curve" smooth="yes"/>
      <point x="161" y="-15"/>
      <point x="140" y="1"/>
      <point x="140" y="33" type="curve" smooth="yes"/>
      <point x="140" y="51"/>
      <point x="152" y="69"/>
      <point x="174" y="81" type="curve"/>
      <point x="125" y="102" type="line"/>
      <point x="96" y="68"/>
      <point x="81" y="40"/>
      <point x="81" y="16" type="curve" smooth="yes"/>
      <point x="81" y="-55"/>
      <point x="119" y="-103"/>
    </contour>
    <contour>
      <point x="159" y="581" type="curve" smooth="yes"/>
      <point x="103" y="581"/>
      <point x="67" y="575"/>
      <point x="29" y="567" type="curve"/>
      <point x="54" y="445" type="line"/>
      <point x="74" y="450"/>
      <point x="88" y="451"/>
      <point x="104" y="451" type="curve" smooth="yes"/>
      <point x="153" y="451"/>
      <point x="165" y="411"/>
      <point x="165" y="369" type="curve" smooth="yes"/>
      <point x="165" y="298"/>
      <point x="147" y="215"/>
      <point x="117" y="119" type="curve"/>
      <point x="289" y="104" type="line"/>
      <point x="327" y="209"/>
      <point x="354" y="295"/>
      <point x="354" y="401" type="curve" smooth="yes"/>
      <point x="354" y="498"/>
      <point x="299" y="581"/>
    </contour>
  </outline>
</glyph>
<glyph name="rvocalicvowelsignmlym" format="2">
  <advance width="326"/>
  <unicode hex="0D43"/>
  <outline>
    <contour>
      <point x="68" y="-337" type="curve" smooth="yes"/>
      <point x="209" y="-337"/>
      <point x="327" y="-275"/>
      <point x="327" y="-117" type="curve" smooth="yes"/>
      <point x="327" y="-48"/>
      <point x="314" y="5"/>
      <point x="269" y="122" type="curve" smooth="yes"/>
      <point x="240" y="199"/>
      <point x="224" y="257"/>
      <point x="224" y="322" type="curve" smooth="yes"/>
      <point x="224" y="401"/>
      <point x="248" y="472"/>
      <point x="303" y="569" type="curve"/>
      <point x="114" y="569" type="line"/>
      <point x="72" y="497"/>
      <point x="37" y="412"/>
      <point x="37" y="309" type="curve" smooth="yes"/>
      <point x="37" y="228"/>
      <point x="60" y="152"/>
      <point x="97" y="62" type="curve" smooth="yes"/>
      <point x="138" y="-36"/>
      <point x="148" y="-92"/>
      <point x="148" y="-120" type="curve" smooth="yes"/>
      <point x="148" y="-189"/>
      <point x="119" y="-211"/>
      <point x="68" y="-211" type="curve" smooth="yes"/>
      <point x="37" y="-211"/>
      <point x="15" y="-201"/>
      <point x="15" y="-174" type="curve" smooth="yes"/>
      <point x="15" y="-151"/>
      <point x="31" y="-138"/>
      <point x="67" y="-138" type="curve" smooth="yes"/>
      <point x="107" y="-138"/>
      <point x="133" y="-149"/>
      <point x="166" y="-172" type="curve"/>
      <point x="209" y="-77" type="line"/>
      <point x="149" y="-34"/>
      <point x="105" y="-19"/>
      <point x="36" y="-19" type="curve" smooth="yes"/>
      <point x="-86" y="-19"/>
      <point x="-158" y="-83"/>
      <point x="-158" y="-173" type="curve" smooth="yes"/>
      <point x="-158" y="-284"/>
      <point x="-77" y="-337"/>
    </contour>
  </outline>
</glyph>
<glyph name="rrvocalicvowelsignmlym" format="2">
  <advance width="326"/>
  <unicode hex="0D44"/>
  <outline>
    <contour>
      <point x="-24" y="-337" type="curve" smooth="yes"/>
      <point x="240" y="-337"/>
      <point x="324" y="-242"/>
      <point x="324" y="-116" type="curve" smooth="yes"/>
      <point x="324" y="-45"/>
      <point x="309" y="15"/>
      <point x="272" y="114" type="curve" smooth="yes"/>
      <point x="240" y="199"/>
      <point x="224" y="257"/>
      <point x="224" y="322" type="curve" smooth="yes"/>
      <point x="224" y="401"/>
      <point x="248" y="472"/>
      <point x="303" y="569" type="curve"/>
      <point x="114" y="569" type="line"/>
      <point x="72" y="497"/>
      <point x="37" y="412"/>
      <point x="37" y="309" type="curve" smooth="yes"/>
      <point x="37" y="228"/>
      <point x="60" y="152"/>
      <point x="99" y="58" type="curve" smooth="yes"/>
      <point x="135" y="-28"/>
      <point x="141" y="-68"/>
      <point x="141" y="-110" type="curve" smooth="yes"/>
      <point x="141" y="-187"/>
      <point x="92" y="-214"/>
      <point x="-23" y="-214" type="curve" smooth="yes"/>
      <point x="-131" y="-214"/>
      <point x="-172" y="-196"/>
      <point x="-172" y="-159" type="curve" smooth="yes"/>
      <point x="-172" y="-144"/>
      <point x="-166" y="-130"/>
      <point x="-145" y="-130" type="curve" smooth="yes"/>
      <point x="-131" y="-130"/>
      <point x="-119" y="-138"/>
      <point x="-119" y="-164" type="curve" smooth="yes"/>
      <point x="-119" y="-178" type="line"/>
      <point x="-25" y="-178" type="line"/>
      <point x="-25" y="-163" type="line" smooth="yes"/>
      <point x="-25" y="-147"/>
      <point x="-21" y="-130"/>
      <point x="-1" y="-130" type="curve" smooth="yes"/>
      <point x="16" y="-130"/>
      <point x="22" y="-146"/>
      <point x="22" y="-164" type="curve" smooth="yes"/>
      <point x="22" y="-178" type="line"/>
      <point x="121" y="-178" type="line"/>
      <point x="121" y="-151" type="line" smooth="yes"/>
      <point x="121" y="-102"/>
      <point x="111" y="-22"/>
      <point x="7" y="-22" type="curve" smooth="yes"/>
      <point x="-33" y="-22"/>
      <point x="-61" y="-42"/>
      <point x="-84" y="-69" type="curve"/>
      <point x="-65" y="-68" type="line"/>
      <point x="-90" y="-37"/>
      <point x="-121" y="-22"/>
      <point x="-168" y="-22" type="curve" smooth="yes"/>
      <point x="-248" y="-22"/>
      <point x="-305" y="-77"/>
      <point x="-305" y="-159" type="curve" smooth="yes"/>
      <point x="-305" y="-273"/>
      <point x="-208" y="-337"/>
    </contour>
  </outline>
</glyph>
<glyph name="evowelsignmlym" format="2">
  <advance width="838"/>
  <unicode hex="0D46"/>
  <outline>
    <contour>
      <point x="278" y="-12" type="curve" smooth="yes"/>
      <point x="432" y="-12"/>
      <point x="506" y="61"/>
      <point x="506" y="179" type="curve" smooth="yes"/>
      <point x="506" y="285"/>
      <point x="444" y="359"/>
      <point x="316" y="359" type="curve" smooth="yes"/>
      <point x="227" y="359"/>
      <point x="171" y="321"/>
      <point x="118" y="276" type="curve"/>
      <point x="139" y="156" type="line"/>
      <point x="193" y="215"/>
      <point x="222" y="240"/>
      <point x="267" y="240" type="curve" smooth="yes"/>
      <point x="303" y="240"/>
      <point x="325" y="216"/>
      <point x="325" y="173" type="curve" smooth="yes"/>
      <point x="325" y="127"/>
      <point x="306" y="108"/>
      <point x="273" y="108" type="curve" smooth="yes"/>
      <point x="235" y="108"/>
      <point x="202" y="135"/>
      <point x="202" y="244" type="curve" smooth="yes"/>
      <point x="202" y="369"/>
      <point x="292" y="452"/>
      <point x="426" y="452" type="curve" smooth="yes"/>
      <point x="553" y="452"/>
      <point x="611" y="386"/>
      <point x="611" y="281" type="curve" smooth="yes"/>
      <point x="611" y="201"/>
      <point x="577" y="139"/>
      <point x="518" y="69" type="curve"/>
      <point x="656" y="-12" type="line"/>
      <point x="744" y="65"/>
      <point x="803" y="154"/>
      <point x="803" y="284" type="curve" smooth="yes"/>
      <point x="803" y="426"/>
      <point x="715" y="581"/>
      <point x="441" y="581" type="curve" smooth="yes"/>
      <point x="177" y="581"/>
      <point x="33" y="438"/>
      <point x="33" y="245" type="curve" smooth="yes"/>
      <point x="33" y="62"/>
      <point x="139" y="-12"/>
    </contour>
  </outline>
</glyph>
<glyph name="eevowelsignmlym" format="2">
  <advance width="689"/>
  <unicode hex="0D47"/>
  <outline>
    <contour>
      <point x="409" y="-12" type="curve" smooth="yes"/>
      <point x="585" y="-12"/>
      <point x="649" y="59"/>
      <point x="649" y="135" type="curve" smooth="yes"/>
      <point x="649" y="237"/>
      <point x="580" y="279"/>
      <point x="463" y="279" type="curve" smooth="yes"/>
      <point x="325" y="279"/>
      <point x="283" y="223"/>
      <point x="283" y="144" type="curve" smooth="yes"/>
      <point x="283" y="122"/>
      <point x="292" y="98"/>
      <point x="300" y="83" type="curve"/>
      <point x="452" y="62" type="line"/>
      <point x="428" y="85"/>
      <point x="418" y="108"/>
      <point x="418" y="132" type="curve" smooth="yes"/>
      <point x="418" y="161"/>
      <point x="433" y="174"/>
      <point x="458" y="174" type="curve" smooth="yes"/>
      <point x="483" y="174"/>
      <point x="494" y="160"/>
      <point x="494" y="141" type="curve" smooth="yes"/>
      <point x="494" y="123"/>
      <point x="476" y="96"/>
      <point x="432" y="96" type="curve" smooth="yes"/>
      <point x="409" y="96"/>
      <point x="386" y="98"/>
      <point x="373" y="100" type="curve" smooth="yes"/>
      <point x="260" y="114"/>
      <point x="218" y="183"/>
      <point x="218" y="287" type="curve" smooth="yes"/>
      <point x="218" y="385"/>
      <point x="274" y="460"/>
      <point x="379" y="471" type="curve" smooth="yes"/>
      <point x="397" y="473"/>
      <point x="420" y="473"/>
      <point x="439" y="473" type="curve" smooth="yes"/>
      <point x="479" y="473"/>
      <point x="501" y="456"/>
      <point x="501" y="429" type="curve" smooth="yes"/>
      <point x="501" y="408"/>
      <point x="488" y="396"/>
      <point x="463" y="396" type="curve" smooth="yes"/>
      <point x="436" y="396"/>
      <point x="424" y="409"/>
      <point x="424" y="438" type="curve" smooth="yes"/>
      <point x="424" y="467"/>
      <point x="442" y="492"/>
      <point x="464" y="511" type="curve"/>
      <point x="312" y="495" type="line"/>
      <point x="300" y="479"/>
      <point x="289" y="448"/>
      <point x="289" y="424" type="curve" smooth="yes"/>
      <point x="289" y="351"/>
      <point x="326" y="291"/>
      <point x="468" y="291" type="curve" smooth="yes"/>
      <point x="589" y="291"/>
      <point x="656" y="332"/>
      <point x="656" y="431" type="curve" smooth="yes"/>
      <point x="656" y="508"/>
      <point x="597" y="581"/>
      <point x="413" y="581" type="curve" smooth="yes"/>
      <point x="192" y="581"/>
      <point x="32" y="489"/>
      <point x="32" y="288" type="curve" smooth="yes"/>
      <point x="32" y="73"/>
      <point x="186" y="-12"/>
    </contour>
  </outline>
</glyph>
<glyph name="viramamlym" format="2">
  <unicode hex="0D4D"/>
  <outline>
    <contour>
      <point x="-133" y="599" type="curve" smooth="yes"/>
      <point x="36" y="599"/>
      <point x="97" y="667"/>
      <point x="97" y="768" type="curve" smooth="yes"/>
      <point x="97" y="796"/>
      <point x="91" y="823"/>
      <point x="84" y="840" type="curve"/>
      <point x="-72" y="812" type="line"/>
      <point x="-69" y="801"/>
      <point x="-67" y="787"/>
      <point x="-67" y="774" type="curve" smooth="yes"/>
      <point x="-67" y="731"/>
      <point x="-95" y="718"/>
      <point x="-131" y="718" type="curve" smooth="yes"/>
      <point x="-166" y="718"/>
      <point x="-191" y="732"/>
      <point x="-191" y="774" type="curve" smooth="yes"/>
      <point x="-191" y="787"/>
      <point x="-189" y="801"/>
      <point x="-185" y="812" type="curve"/>
      <point x="-346" y="840" type="line"/>
      <point x="-354" y="822"/>
      <point x="-361" y="796"/>
      <point x="-361" y="768" type="curve" smooth="yes"/>
      <point x="-361" y="667"/>
      <point x="-297" y="599"/>
    </contour>
  </outline>
</glyph>
<glyph name="rephmlym" format="2">
  <unicode hex="0D4E"/>
  <outline>
    <contour>
      <point x="-180" y="843" type="line"/>
      <point x="-377" y="843" type="line"/>
      <point x="-368" y="637" type="line"/>
      <point x="-190" y="637" type="line"/>
    </contour>
  </outline>
</glyph>
<glyph name="uni0D4F" format="2">
  <advance width="1433"/>
  <unicode hex="0D4F"/>
  <outline>
    <contour>
      <point x="673" y="581" type="curve" smooth="yes"/>
      <point x="453" y="581"/>
      <point x="284" y="460"/>
      <point x="284" y="244" type="curve" smooth="yes"/>
      <point x="284" y="63"/>
      <point x="390" y="-12"/>
      <point x="529" y="-12" type="curve" smooth="yes"/>
      <point x="683" y="-12"/>
      <point x="757" y="61"/>
      <point x="757" y="180" type="curve" smooth="yes"/>
      <point x="757" y="285"/>
      <point x="695" y="359"/>
      <point x="567" y="359" type="curve" smooth="yes"/>
      <point x="481" y="359"/>
      <point x="422" y="321"/>
      <point x="369" y="276" type="curve"/>
      <point x="390" y="156" type="line"/>
      <point x="444" y="215"/>
      <point x="473" y="240"/>
      <point x="518" y="240" type="curve" smooth="yes"/>
      <point x="554" y="240"/>
      <point x="576" y="216"/>
      <point x="576" y="173" type="curve" smooth="yes"/>
      <point x="576" y="127"/>
      <point x="557" y="108"/>
      <point x="524" y="108" type="curve" smooth="yes"/>
      <point x="486" y="108"/>
      <point x="453" y="135"/>
      <point x="453" y="240" type="curve" smooth="yes"/>
      <point x="453" y="244" type="line" smooth="yes"/>
      <point x="453" y="380"/>
      <point x="552" y="453"/>
      <point x="669" y="453" type="curve" smooth="yes"/>
      <point x="720" y="453"/>
      <point x="756" y="443"/>
      <point x="780" y="424" type="curve" smooth="yes"/>
      <point x="813" y="397"/>
      <point x="825" y="359"/>
      <point x="825" y="273" type="curve" smooth="yes"/>
      <point x="825" y="0" type="line"/>
      <point x="1012" y="0" type="line"/>
      <point x="1012" y="327" type="line" smooth="yes"/>
      <point x="1012" y="380"/>
      <point x="1019" y="408"/>
      <point x="1037" y="428" type="curve" smooth="yes"/>
      <point x="1049" y="442"/>
      <point x="1068" y="452"/>
      <point x="1096" y="452" type="curve" smooth="yes"/>
      <point x="1155" y="452"/>
      <point x="1208" y="383"/>
      <point x="1208" y="244" type="curve" smooth="yes"/>
      <point x="1208" y="33"/>
      <point x="1123" y="-116"/>
      <point x="711" y="-116" type="curve" smooth="yes"/>
      <point x="295" y="-116"/>
      <point x="212" y="27"/>
      <point x="212" y="234" type="curve" smooth="yes"/>
      <point x="212" y="319"/>
      <point x="230" y="412"/>
      <point x="275" y="500" type="curve"/>
      <point x="126" y="564" type="line"/>
      <point x="71" y="460"/>
      <point x="39" y="336"/>
      <point x="39" y="234" type="curve" smooth="yes"/>
      <point x="39" y="-28"/>
      <point x="191" y="-252"/>
      <point x="712" y="-252" type="curve" smooth="yes"/>
      <point x="1194" y="-252"/>
      <point x="1398" y="-77"/>
      <point x="1398" y="241" type="curve" smooth="yes"/>
      <point x="1398" y="431"/>
      <point x="1314" y="581"/>
      <point x="1117" y="581" type="curve" smooth="yes"/>
      <point x="1026" y="581"/>
      <point x="966" y="559"/>
      <point x="905" y="505" type="curve"/>
      <point x="955" y="480" type="line"/>
      <point x="880" y="553"/>
      <point x="798" y="581"/>
    </contour>
  </outline>
</glyph>
<glyph name="machillumlym" format="2">
  <advance width="757"/>
  <unicode hex="0D54"/>
  <outline>
    <contour>
      <point x="245" y="803" type="curve" smooth="yes"/>
      <point x="191" y="803"/>
      <point x="139" y="795"/>
      <point x="101" y="783" type="curve"/>
      <point x="131" y="667" type="line"/>
      <point x="149" y="672"/>
      <point x="173" y="676"/>
      <point x="193" y="676" type="curve" smooth="yes"/>
      <point x="210" y="676"/>
      <point x="220" y="673"/>
      <point x="229" y="666" type="curve" smooth="yes"/>
      <point x="238" y="659"/>
      <point x="245" y="643"/>
      <point x="245" y="609" type="curve" smooth="yes"/>
      <point x="245" y="521" type="line" smooth="yes"/>
      <point x="245" y="395"/>
      <point x="293" y="285"/>
      <point x="404" y="208" type="curve"/>
      <point x="449" y="183" type="line"/>
      <point x="489" y="142"/>
      <point x="531" y="110"/>
      <point x="605" y="59" type="curve"/>
      <point x="631" y="114" type="line"/>
      <point x="603" y="118"/>
      <point x="548" y="120"/>
      <point x="491" y="120" type="curve" smooth="yes"/>
      <point x="471" y="120" type="line" smooth="yes"/>
      <point x="450" y="120"/>
      <point x="405" y="119"/>
      <point x="373" y="113" type="curve"/>
      <point x="358" y="85" type="line"/>
      <point x="420" y="117"/>
      <point x="493" y="166"/>
      <point x="532" y="198" type="curve"/>
      <point x="568" y="210" type="line"/>
      <point x="623" y="254"/>
      <point x="661" y="308"/>
      <point x="661" y="384" type="curve" smooth="yes"/>
      <point x="661" y="515"/>
      <point x="541" y="580"/>
      <point x="398" y="580" type="curve" smooth="yes"/>
      <point x="303" y="580"/>
      <point x="218" y="555"/>
      <point x="159" y="510" type="curve" smooth="yes"/>
      <point x="90" y="457"/>
      <point x="51" y="384"/>
      <point x="51" y="242" type="curve" smooth="yes"/>
      <point x="51" y="0" type="line"/>
      <point x="695" y="0" type="line"/>
      <point x="749" y="111" type="line"/>
      <point x="666" y="170"/>
      <point x="601" y="224"/>
      <point x="551" y="270" type="curve"/>
      <point x="509" y="296" type="line"/>
      <point x="437" y="356"/>
      <point x="421" y="423"/>
      <point x="421" y="478" type="curve" smooth="yes"/>
      <point x="421" y="619" type="line" smooth="yes"/>
      <point x="421" y="693"/>
      <point x="404" y="747"/>
      <point x="356" y="777" type="curve" smooth="yes"/>
      <point x="330" y="793"/>
      <point x="297" y="803"/>
    </contour>
    <contour>
      <point x="237" y="68" type="line"/>
      <point x="237" y="246" type="line" smooth="yes"/>
      <point x="237" y="337"/>
      <point x="247" y="380"/>
      <point x="267" y="410" type="curve" smooth="yes"/>
      <point x="288" y="441"/>
      <point x="332" y="462"/>
      <point x="381" y="462" type="curve" smooth="yes"/>
      <point x="439" y="462"/>
      <point x="482" y="436"/>
      <point x="482" y="380" type="curve" smooth="yes"/>
      <point x="482" y="352"/>
      <point x="469" y="324"/>
      <point x="449" y="296" type="curve"/>
      <point x="404" y="273" type="line"/>
      <point x="350" y="220"/>
      <point x="261" y="139"/>
      <point x="175" y="90" type="curve"/>
    </contour>
  </outline>
</glyph>
<glyph name="yachillumlym" format="2">
  <advance width="1187"/>
  <unicode hex="0D55"/>
  <outline>
    <contour>
      <point x="781" y="-12" type="curve" smooth="yes"/>
      <point x="1088" y="-12"/>
      <point x="1155" y="155"/>
      <point x="1155" y="258" type="curve" smooth="yes"/>
      <point x="1155" y="355"/>
      <point x="1117" y="433"/>
      <point x="1039" y="532" type="curve" smooth="yes"/>
      <point x="983" y="603"/>
      <point x="973" y="619"/>
      <point x="973" y="646" type="curve" smooth="yes"/>
      <point x="973" y="667"/>
      <point x="988" y="678"/>
      <point x="1011" y="678" type="curve" smooth="yes"/>
      <point x="1036" y="678"/>
      <point x="1063" y="671"/>
      <point x="1080" y="665" type="curve"/>
      <point x="1110" y="785" type="line"/>
      <point x="1075" y="795"/>
      <point x="1029" y="803"/>
      <point x="966" y="803" type="curve" smooth="yes"/>
      <point x="853" y="803"/>
      <point x="787" y="745"/>
      <point x="787" y="662" type="curve" smooth="yes"/>
      <point x="787" y="599"/>
      <point x="807" y="556"/>
      <point x="881" y="456" type="curve" smooth="yes"/>
      <point x="948" y="366"/>
      <point x="965" y="320"/>
      <point x="965" y="263" type="curve" smooth="yes"/>
      <point x="965" y="172"/>
      <point x="899" y="111"/>
      <point x="783" y="111" type="curve" smooth="yes"/>
      <point x="732" y="111"/>
      <point x="711" y="116"/>
      <point x="688" y="121" type="curve" smooth="yes"/>
      <point x="671" y="125"/>
      <point x="655" y="124"/>
      <point x="641" y="131" type="curve" smooth="yes"/>
      <point x="569" y="168"/>
      <point x="524" y="248"/>
      <point x="524" y="336" type="curve" smooth="yes"/>
      <point x="524" y="422"/>
      <point x="558" y="453"/>
      <point x="601" y="453" type="curve" smooth="yes"/>
      <point x="641" y="453"/>
      <point x="677" y="420"/>
      <point x="677" y="338" type="curve" smooth="yes"/>
      <point x="677" y="244"/>
      <point x="630" y="167"/>
      <point x="563" y="133" type="curve" smooth="yes"/>
      <point x="552" y="128"/>
      <point x="536" y="127"/>
      <point x="524" y="123" type="curve" smooth="yes"/>
      <point x="498" y="115"/>
      <point x="469" y="111"/>
      <point x="439" y="111" type="curve" smooth="yes"/>
      <point x="297" y="111"/>
      <point x="218" y="209"/>
      <point x="218" y="335" type="curve" smooth="yes"/>
      <point x="218" y="410"/>
      <point x="254" y="453"/>
      <point x="305" y="453" type="curve" smooth="yes"/>
      <point x="339" y="453"/>
      <point x="364" y="439"/>
      <point x="392" y="396" type="curve"/>
      <point x="532" y="459" type="line"/>
      <point x="481" y="548"/>
      <point x="401" y="581"/>
      <point x="305" y="581" type="curve" smooth="yes"/>
      <point x="124" y="581"/>
      <point x="31" y="473"/>
      <point x="31" y="334" type="curve" smooth="yes"/>
      <point x="31" y="128"/>
      <point x="163" y="-12"/>
      <point x="433" y="-12" type="curve" smooth="yes"/>
      <point x="509" y="-12"/>
      <point x="587" y="4"/>
      <point x="656" y="35" type="curve" smooth="yes"/>
      <point x="669" y="41"/>
      <point x="681" y="51"/>
      <point x="693" y="58" type="curve" smooth="yes"/>
      <point x="779" y="106"/>
      <point x="864" y="204"/>
      <point x="864" y="334" type="curve" smooth="yes"/>
      <point x="864" y="494"/>
      <point x="765" y="581"/>
      <point x="600" y="581" type="curve" smooth="yes"/>
      <point x="511" y="581"/>
      <point x="439" y="554"/>
      <point x="398" y="499" type="curve"/>
      <point x="380" y="477" type="line"/>
      <point x="354" y="439"/>
      <point x="337" y="392"/>
      <point x="337" y="338" type="curve" smooth="yes"/>
      <point x="337" y="202"/>
      <point x="411" y="109"/>
      <point x="518" y="52" type="curve" smooth="yes"/>
      <point x="532" y="45"/>
      <point x="546" y="34"/>
      <point x="560" y="28" type="curve" smooth="yes"/>
      <point x="623" y="1"/>
      <point x="692" y="-12"/>
    </contour>
  </outline>
</glyph>
<glyph name="lllachillumlym" format="2">
  <advance width="884"/>
  <unicode hex="0D56"/>
  <outline>
    <contour>
      <point x="331" y="190" type="curve" smooth="yes"/>
      <point x="331" y="238"/>
      <point x="349" y="300"/>
      <point x="417" y="410" type="curve" smooth="yes"/>
      <point x="494" y="535"/>
      <point x="519" y="581"/>
      <point x="519" y="654" type="curve" smooth="yes"/>
      <point x="519" y="729"/>
      <point x="480" y="803"/>
      <point x="332" y="803" type="curve" smooth="yes"/>
      <point x="277" y="803"/>
      <point x="224" y="794"/>
      <point x="186" y="782" type="curve"/>
      <point x="216" y="668" type="line"/>
      <point x="230" y="671"/>
      <point x="254" y="676"/>
      <point x="285" y="676" type="curve" smooth="yes"/>
      <point x="319" y="676"/>
      <point x="335" y="659"/>
      <point x="335" y="628" type="curve" smooth="yes"/>
      <point x="335" y="593"/>
      <point x="313" y="548"/>
      <point x="274" y="476" type="curve" smooth="yes"/>
      <point x="206" y="350"/>
      <point x="171" y="268"/>
      <point x="171" y="185" type="curve" smooth="yes"/>
      <point x="171" y="50"/>
      <point x="268" y="-12"/>
      <point x="413" y="-12" type="curve" smooth="yes"/>
      <point x="613" y="-12"/>
      <point x="657" y="62"/>
      <point x="657" y="142" type="curve" smooth="yes"/>
      <point x="657" y="256"/>
      <point x="570" y="322"/>
      <point x="570" y="410" type="curve" smooth="yes"/>
      <point x="570" y="437"/>
      <point x="586" y="462"/>
      <point x="619" y="462" type="curve" smooth="yes"/>
      <point x="653" y="462"/>
      <point x="670" y="436"/>
      <point x="670" y="400" type="curve" smooth="yes"/>
      <point x="670" y="324"/>
      <point x="621" y="270"/>
      <point x="474" y="270" type="curve" smooth="yes"/>
      <point x="440" y="270" type="line" smooth="yes"/>
      <point x="388" y="270"/>
      <point x="339" y="276"/>
      <point x="299" y="293" type="curve"/>
      <point x="242" y="320" type="line"/>
      <point x="221" y="347"/>
      <point x="211" y="362"/>
      <point x="211" y="412" type="curve" smooth="yes"/>
      <point x="211" y="451"/>
      <point x="220" y="477"/>
      <point x="240" y="511" type="curve"/>
      <point x="95" y="581" type="line"/>
      <point x="52" y="523"/>
      <point x="30" y="462"/>
      <point x="30" y="404" type="curve" smooth="yes"/>
      <point x="30" y="280"/>
      <point x="106" y="216"/>
      <point x="209" y="184" type="curve"/>
      <point x="261" y="176" type="line"/>
      <point x="315" y="164"/>
      <point x="370" y="157"/>
      <point x="429" y="157" type="curve" smooth="yes"/>
      <point x="503" y="157" type="line" smooth="yes"/>
      <point x="747" y="157"/>
      <point x="854" y="251"/>
      <point x="854" y="387" type="curve" smooth="yes"/>
      <point x="854" y="486"/>
      <point x="791" y="581"/>
      <point x="609" y="581" type="curve" smooth="yes"/>
      <point x="503" y="581"/>
      <point x="404" y="511"/>
      <point x="404" y="401" type="curve" smooth="yes"/>
      <point x="404" y="295"/>
      <point x="479" y="227"/>
      <point x="479" y="160" type="curve" smooth="yes"/>
      <point x="479" y="131"/>
      <point x="459" y="115"/>
      <point x="413" y="115" type="curve" smooth="yes"/>
      <point x="362" y="115"/>
      <point x="331" y="136"/>
    </contour>
  </outline>
</glyph>
<glyph name="aulengthmarkmlym" format="2">
  <advance width="877"/>
  <unicode hex="0D57"/>
  <outline>
    <contour>
      <point x="590" y="581" type="curve" smooth="yes"/>
      <point x="523" y="581"/>
      <point x="466" y="565"/>
      <point x="419" y="514" type="curve"/>
      <point x="441" y="514" type="line"/>
      <point x="401" y="552"/>
      <point x="350" y="581"/>
      <point x="266" y="581" type="curve" smooth="yes"/>
      <point x="104" y="581"/>
      <point x="30" y="487"/>
      <point x="30" y="380" type="curve" smooth="yes"/>
      <point x="30" y="343"/>
      <point x="37" y="295"/>
      <point x="51" y="254" type="curve"/>
      <point x="231" y="293" type="line"/>
      <point x="223" y="317"/>
      <point x="217" y="344"/>
      <point x="217" y="376" type="curve" smooth="yes"/>
      <point x="217" y="425"/>
      <point x="243" y="453"/>
      <point x="281" y="453" type="curve" smooth="yes"/>
      <point x="295" y="453"/>
      <point x="307" y="450"/>
      <point x="318" y="439" type="curve" smooth="yes"/>
      <point x="334" y="423"/>
      <point x="338" y="388"/>
      <point x="338" y="345" type="curve" smooth="yes"/>
      <point x="338" y="268" type="line"/>
      <point x="523" y="268" type="line"/>
      <point x="523" y="353" type="line" smooth="yes"/>
      <point x="523" y="399"/>
      <point x="526" y="423"/>
      <point x="540" y="439" type="curve" smooth="yes"/>
      <point x="548" y="448"/>
      <point x="560" y="453"/>
      <point x="576" y="453" type="curve" smooth="yes"/>
      <point x="618" y="453"/>
      <point x="652" y="406"/>
      <point x="652" y="308" type="curve" smooth="yes"/>
      <point x="652" y="179"/>
      <point x="609" y="118"/>
      <point x="493" y="118" type="curve" smooth="yes"/>
      <point x="423" y="118"/>
      <point x="375" y="129"/>
      <point x="303" y="165" type="curve"/>
      <point x="237" y="47" type="line"/>
      <point x="314" y="8"/>
      <point x="394" y="-12"/>
      <point x="514" y="-12" type="curve" smooth="yes"/>
      <point x="734" y="-12"/>
      <point x="842" y="106"/>
      <point x="842" y="307" type="curve" smooth="yes"/>
      <point x="842" y="482"/>
      <point x="746" y="581"/>
    </contour>
  </outline>
</glyph>
